<svg xmlns="http://www.w3.org/2000/svg" viewBox="0 0 43 42.23"><defs><style>.cls-1{fill:#fcb008;}</style></defs><title>icon_tip_d</title><g id="圖層_2" data-name="圖層 2"><g id="時時彩_助手單元_popup_號碼統計"><path class="cls-1" d="M21.5,26.64a2.78,2.78,0,0,0,2.8-2.75V11.34a2.8,2.8,0,0,0-5.6,0V23.89A2.78,2.78,0,0,0,21.5,26.64Z"/><path class="cls-1" d="M21.5,28.14a2.84,2.84,0,0,0-2,.81,2.72,2.72,0,0,0,0,3.89,2.84,2.84,0,0,0,4,0,2.72,2.72,0,0,0,0-3.89A2.85,2.85,0,0,0,21.5,28.14Z"/><path class="cls-1" d="M21.5,0A21.33,21.33,0,0,0,0,21.12,21.33,21.33,0,0,0,21.5,42.23,21.33,21.33,0,0,0,43,21.12,21.33,21.33,0,0,0,21.5,0Zm0,38.93A18,18,0,0,1,3.36,21.12,18,18,0,0,1,21.5,3.3,18,18,0,0,1,39.64,21.12,18,18,0,0,1,21.5,38.93Z"/></g></g></svg>