<?xml version="1.0" encoding="utf-8"?>
<!-- Generator: Adobe Illustrator 21.0.0, SVG Export Plug-In . SVG Version: 6.00 Build 0)  -->
<svg version="1.1" id="图层_1" xmlns="http://www.w3.org/2000/svg" xmlns:xlink="http://www.w3.org/1999/xlink" x="0px" y="0px"
	 width="42.2px" height="42.2px" viewBox="0 0 42.2 42.2" style="enable-background:new 0 0 42.2 42.2;" xml:space="preserve">
<style type="text/css">
	.st0{opacity:0.46;fill:none;stroke:#EFEFEF;stroke-width:0.29;stroke-miterlimit:10;enable-background:new    ;}
	.st1{opacity:0.8;fill:#F3D547;enable-background:new    ;}
	.st2{opacity:0.25;fill:#FFFFFF;enable-background:new    ;}
	.st3{fill:#FFFFFF;}
</style>
<title>menu_jxk3</title>
<g id="图层_2">
	<g id="左側選單">
		<circle class="st0" cx="21.1" cy="21.1" r="21"/>
		<circle class="st1" cx="21.1" cy="21.1" r="19.7"/>
		<path class="st2" d="M33.5,5.8C25.1-1,12.7,0.3,5.8,8.7C1.9,13.6,0.5,20,2,26c1.7,0.3,3.5,0.5,5.2,0.5C19.8,26.5,30.6,18,33.5,5.8
			z"/>
		<path class="st3" d="M30.7,24.8c-0.6-0.2-1.1-0.5-1.8-0.7l7.3-5.4c-0.3-0.8-1.1-1.3-2-1.2c-2.4,0.1-4.8,0-7.1,0
			c-0.6,0-1.1,0.1-1.7,0.2c-1.2,0.3-2,1.4-2,2.6h7c-1.4,1.1-2.8,2.1-4,3.1c-0.5,0.5-0.9,1-1.3,1.6c0.3,0.1,0.7,0.3,1,0.4
			c0.4,0.3,0.8,0.7,1.1,1.1c0.9,1.2,0.6,2.9-0.6,3.9c-1,0.9-2.1,1.6-3.3,2.1c-2.2,1-4.6,1.8-6.9,2.7L16,35.7l0.1,0.2
			c1.9-0.3,3.7-0.5,5.6-0.8c2.5-0.4,5-1.2,7.3-2.2c1.3-0.5,2.5-1.4,3.3-2.5C33.4,28.4,33.5,26.1,30.7,24.8z"/>
		<path class="st3" d="M18.9,27.1H23l0.1-2.1l-0.6-0.1c0.1-1.2,0.2-2.4,0.2-3.6c0.1-0.9-0.5-1.7-1.3-1.8c-0.2,0-0.3,0-0.5,0h-1.7
			v-1.2H17l-0.1,1.2h-1.7L15,21.6c0.4,0,0.7,0,1.1,0c0.2,0.1,0.5,0.3,0.5,0.5c0,0.9-0.1,1.8-0.1,2.7h-2.3l-0.1,2.2h2
			c-0.4,1.2-1.1,2.3-2.1,3.1c-0.2,0.1-0.4,0.3-0.4,0.5c0,0.8,0,1.5,0,2.3C15.8,32.7,17.6,30.6,18.9,27.1z M19.1,21.7
			c1.3-0.1,1.4,0,1.3,1.2c0,0.6-0.1,1.3-0.1,1.9c0,0,0,0.1-0.1,0.1h-1.3L19.1,21.7z"/>
		<path class="st3" d="M10.6,19.2H8.8L7.9,32.3c1.5,0,1.9-0.3,2-1.6c0.2-3.6,0.5-7.2,0.7-10.8C10.6,19.7,10.6,19.5,10.6,19.2z"/>
		<path class="st3" d="M30.9,23.9l6.7-3.5l-0.7-1l-6.1,4.3L30.9,23.9z"/>
		<path class="st3" d="M31.7,24.3l7-2.3l-0.6-0.9l-6.4,3.1L31.7,24.3z"/>
		<path class="st3" d="M14.1,23.7l0.1-2.5h-0.6h-0.1l0.2-3h-2.5l-0.9,15h1.1c1,0,1.4-0.3,1.5-1.4c0-0.7,0.1-1.4,0.1-2.1l0.4-6.1
			L14.1,23.7z"/>
		<path class="st3" d="M18.1,31.1c0,1.3,1.1,2.4,2.4,2.4s2.4-1.1,2.4-2.4c0-1.3-1-2.4-2.3-2.4C19.2,28.7,18.1,29.7,18.1,31.1
			C18.1,31.1,18.1,31.1,18.1,31.1z M19.4,31.9c-0.3,0-0.5-0.2-0.5-0.5c0-0.3,0.2-0.5,0.5-0.5c0.3,0,0.5,0.2,0.5,0.5
			C19.9,31.7,19.7,31.9,19.4,31.9C19.4,31.9,19.4,31.9,19.4,31.9L19.4,31.9z M21.7,31c0.3,0,0.5,0.2,0.5,0.5c0,0.3-0.2,0.5-0.5,0.5
			c-0.3,0-0.5-0.2-0.5-0.5C21.2,31.2,21.4,31,21.7,31C21.7,31,21.7,31,21.7,31z M20.7,30.1c0,0.3-0.3,0.6-0.6,0.6s-0.6-0.3-0.6-0.6
			s0.3-0.6,0.6-0.6l0,0C20.5,29.5,20.7,29.7,20.7,30.1C20.8,30,20.8,30.1,20.7,30.1L20.7,30.1z"/>
		<path class="st3" d="M14.7,15.6c0.5-1.1,0.8-2.2,0.9-3.4H17c-0.1,1.2-0.4,2.3-0.9,3.4H14.7z M15.4,8.9L14.8,7h1.4l0.6,1.9
			L15.4,8.9z M15.6,11.5l-0.6-2h1.4l0.6,2H15.6z M17.1,15.5V15h2.3V8h-2V7.5h5.5V8h-2.2v7h2.4v0.5L17.1,15.5z"/>
		<path class="st3" d="M23.6,7.9h1.6V7h1.4v0.9h2.5V7h1.4v0.9h1.6v0.5h-1.6v0.9h-1.4V8.4h-2.5v0.9h-1.4V8.4h-1.6L23.6,7.9z
			 M23.7,14.2l0.4-2.6h1.4l-0.4,2.6H23.7z M24.6,10.4h1.7c0-0.3,0.1-0.6,0.1-0.9h1.4c0,0.3,0,0.6-0.1,0.9h2c0.3,0,0.6,0.3,0.6,0.6
			c0,0,0,0,0,0v3.9c0,0.3-0.3,0.6-0.6,0.6c0,0,0,0,0,0h-2V15h0.9c0.2,0,0.3-0.2,0.3-0.3l0,0v-3.4c0-0.2-0.2-0.3-0.3-0.3l0,0h-0.9
			c-0.2,1.6-0.5,3.1-1,4.6h-1.6c0.6-1.5,1-3,1.2-4.6h-1.6L24.6,10.4z M30.8,14.1l-0.3-2.6h1.4l0.3,2.6H30.8z"/>
	</g>
</g>
</svg>
