<?xml version="1.0" encoding="utf-8"?>
<!-- Generator: Adobe Illustrator 21.0.0, SVG Export Plug-In . SVG Version: 6.00 Build 0)  -->
<svg version="1.1" id="图层_1" xmlns="http://www.w3.org/2000/svg" xmlns:xlink="http://www.w3.org/1999/xlink" x="0px" y="0px"
	 width="42.2px" height="42.2px" viewBox="0 0 42.2 42.2" style="enable-background:new 0 0 42.2 42.2;" xml:space="preserve">
<style type="text/css">
	.st0{opacity:0.46;fill:none;stroke:#EFEFEF;stroke-width:0.29;stroke-miterlimit:10;enable-background:new    ;}
	.st1{opacity:0.8;fill:#20BD5B;enable-background:new    ;}
	.st2{opacity:0.25;fill:#FFFFFF;enable-background:new    ;}
	.st3{fill:#FFFFFF;}
	.st4{opacity:0.4;fill:#FFFFFF;enable-background:new    ;}
</style>
<title>menu_jc11x5</title>
<g id="图层_2">
	<g id="左側選單">
		<circle class="st0" cx="21.1" cy="21.1" r="21"/>
		<circle class="st1" cx="21.1" cy="21.1" r="19.7"/>
		<path class="st2" d="M33.5,5.8C25.1-1,12.7,0.3,5.8,8.7C1.9,13.6,0.5,20,2,26c1.7,0.3,3.5,0.5,5.2,0.5C19.8,26.5,30.6,18,33.5,5.8
			z"/>
		<path class="st3" d="M19.7,25.7c-0.2,0.6-0.5,1.2-0.9,1.7h-1c0.3-0.6,0.5-1.2,0.9-1.7H19.7z"/>
		<path class="st3" d="M16,24.1h1.6l-0.5,3.5c0,0.2,0.1,0.3,0.3,0.3c0,0,3,0,4.4,0c0,0.2,0,0.5,0,0.7h-5.1c-0.3,0-0.6-0.2-0.6-0.5
			l0.4-3.3H16V24.1L16,24.1z"/>
		<path class="st3" d="M19.7,22.5L19.5,23H20v-0.5h1V23h1.6v0.6h-1.7l-0.1,1.1h1.6v0.6h-1.2l-0.1,1.4h0.9v0.7c-0.7,0-1.4,0-1.4,0
			c-0.5,0-0.6-0.3-0.6-0.6l0.1-1.5H18v-0.6h1.8l0.1-1l-0.6-0.1l-0.2,0.6H18l0.6-1.7L19.7,22.5z"/>
		<path class="st3" d="M16.5,22.5h1l0.2,1.4h-1L16.5,22.5z"/>
		<path class="st3" d="M11.4,22.3l-0.9,6.4H9l-0.1-0.1l0.7-4.4c-0.4,0.1-0.6,0.2-1,0.3v-1.1L11.4,22.3L11.4,22.3z"/>
		<path class="st3" d="M14.3,28.7h-1.6l0.6-4.4l-1,0.2l0.1-1.1l2.7-1.2C14.9,24.3,14.6,26.6,14.3,28.7L14.3,28.7z"/>
		<path class="st3" d="M24.2,20.5h5L29.1,22h-3.5l-0.1,1c5.1,0.6,4,5.6-0.1,5.7h-2.2v-1.3h2.3c2.4-0.3,1.9-2.8-0.6-2.8h-1.2
			C23.8,23.2,24,21.8,24.2,20.5L24.2,20.5z"/>
		<path class="st3" d="M12.3,18.9c0.1-0.3,0.9-0.6,1.4,0.1c1.9,1.6,3.3,1.4,5.3,1.4C17,21.5,11.2,21.3,12.3,18.9L12.3,18.9z"/>
		<path class="st3" d="M19.4,19.9c-4.2,0.8-9.4-5.7-6.4-6.9c0.6-0.2,1.5-0.2,1.9,1.1C15.3,17.1,16.8,19.3,19.4,19.9z"/>
		<path class="st3" d="M26,12.7c5-0.5,9.5,3.3,9.9,8.3c0.1,0.7,0,1.4,0,2c-0.8,6.1-8.5,11.6-15.2,6.1c7.5,3.2,11.9-2.6,11.7-7.1
			c-0.1-3.9-4.9-6.8-9.3-2.7C18.6,21.8,16,13.8,26,12.7z"/>
		<path class="st3" d="M32.5,8.9c1.4,1.6-0.4,3.1-1.6,3c-0.9,0-6-2-11.5,2.7C21.9,8.4,30.1,6.1,32.5,8.9L32.5,8.9z"/>
		<path class="st3" d="M19.6,7.9c1,0.1,1.7,0.9,1.7,1.9c0,0.3-0.1,0.5-0.2,0.7c-2.5,2.4-4.1,6.4-1.6,9.2C14,16.5,16.1,7.9,19.6,7.9
			L19.6,7.9z"/>
		<path class="st3" d="M23.2,19.3c-0.6-3.8,7.6-5.3,10.1-0.3c1.5,2.8-0.1,7.6-3.7,9.4c2.2-1.9,3.3-4.8,2.7-7.7
			C31.6,18.7,28.2,15,23.2,19.3L23.2,19.3z"/>
		<path class="st4" d="M17.7,8.8c1.2,0.1,2.5,0.4,3.6,1c0-0.1,0-0.2,0-0.3c-0.1-0.9-0.9-1.6-1.8-1.6C18.8,8,18.1,8.3,17.7,8.8
			L17.7,8.8z M22.5,10.6c0.6,0.4,1.2,0.9,1.8,1.4c1.7-0.5,3.5-0.6,5.2-0.3l0.9,0.1c-0.3-1.5-1-2.9-2-4C26.1,8.1,24.1,9.1,22.5,10.6
			L22.5,10.6z M25.1,12.8c1.2,1.4,2.3,2.9,3.1,4.5c0.9,0.1,1.7,0.4,2.3,1c0.2-1.6,0.2-3.3,0-4.9C28.8,12.7,26.9,12.5,25.1,12.8
			L25.1,12.8z"/>
		<path class="st3" d="M8.4,34c0.2-0.6,0.4-1.2,0.5-1.8h0.7c-0.1,0.6-0.2,1.2-0.5,1.8H8.4z M8.8,30.4l-0.3-1h0.8l0.3,1H8.8z
			 M8.9,31.8l-0.3-1.1h0.8l0.3,1.1H8.9z M9.7,34v-0.3h1.2V30H9.8v-0.3h3V30h-1.2v3.7h1.3V34H9.7z"/>
		<path class="st3" d="M13.2,29.5h4.6v0.3h-1.3v0.7h0.9c0.2,0,0.3,0.1,0.3,0.3v2.8c0,0.2-0.1,0.3-0.3,0.3c0,0,0,0,0,0h-3.7
			c-0.2,0-0.3-0.1-0.3-0.3v-2.8c0-0.2,0.1-0.3,0.3-0.3h0.9v-0.7h-1.3L13.2,29.5z M14,32.8c0.3-0.5,0.5-1.1,0.4-1.7v-0.3h-0.3
			c-0.1,0-0.2,0.1-0.2,0.2l0,0L14,32.8z M14,33v0.5c0,0.1,0.1,0.2,0.2,0.2c0,0,0,0,0,0h2.5c0.1,0,0.2-0.1,0.2-0.2l0,0V33H16
			c-0.2,0-0.3-0.1-0.3-0.3c0,0,0,0,0,0v-2h-0.5V31c0,0.7-0.1,1.4-0.5,2H14z M15.2,30.5h0.5v-0.7h-0.5V30.5z M16.4,30.7v1.8
			c0,0.1,0.1,0.2,0.2,0.2l0,0h0.3v-1.8c0-0.1-0.1-0.2-0.2-0.2l0,0L16.4,30.7z"/>
	</g>
</g>
</svg>
