<svg xmlns="http://www.w3.org/2000/svg" viewBox="0 0 72.28 72.28"><defs><style>.cls-1{fill:#fdfdff;opacity:0.4;}.cls-2{fill:#fff;}.cls-3{fill:#f0f3f3;}.cls-4{fill:#52acd3;}.cls-5{fill:#44475a;}</style></defs><title>b_mark</title><g id="圖層_2" data-name="圖層 2"><g id="footer"><circle class="cls-1" cx="36.14" cy="36.14" r="36.14"/><circle class="cls-2" cx="36.32" cy="35.96" r="29.55"/><circle class="cls-3" cx="36.32" cy="35.96" r="26.21"/><polygon class="cls-4" points="36.32 35.97 36.32 35.97 36.32 35.97 36.32 35.97"/><polygon class="cls-4" points="36.32 35.97 36.32 35.97 36.32 35.97 36.32 35.97"/><polygon class="cls-4" points="36.32 35.97 36.32 35.97 36.32 35.97 36.32 35.97"/><polygon class="cls-4" points="36.32 35.97 36.32 35.97 36.32 35.97 36.32 35.97"/><polygon class="cls-4" points="36.32 35.97 36.32 35.97 36.32 35.97 36.32 35.97"/><polygon class="cls-4" points="36.32 35.97 36.32 35.97 36.32 35.97 36.32 35.97"/><polygon class="cls-4" points="36.32 35.97 36.32 35.97 36.32 35.97 36.32 35.97"/><circle class="cls-4" cx="36.32" cy="35.96"/><circle class="cls-4" cx="36.32" cy="35.96"/><polygon class="cls-4" points="36.32 35.97 36.32 35.97 36.32 35.97 36.32 35.97 36.32 35.97 36.32 35.97 36.32 35.97"/><polygon class="cls-4" points="36.32 35.97 36.32 35.97 36.32 35.97 36.32 35.97"/><polygon class="cls-4" points="36.32 35.97 36.32 35.97 36.32 35.97 36.32 35.97"/><rect class="cls-4" x="36.32" y="35.96"/><circle class="cls-4" cx="36.32" cy="35.96"/><polygon class="cls-4" points="36.32 35.97 36.32 35.97 36.32 35.97 36.32 35.97"/><circle class="cls-4" cx="36.32" cy="35.96"/><circle class="cls-4" cx="36.32" cy="35.96"/><circle class="cls-4" cx="36.32" cy="35.96"/><polygon class="cls-4" points="36.32 35.97 36.32 35.97 36.32 35.97 36.32 35.97"/><polygon class="cls-4" points="36.32 35.97 36.32 35.97 36.32 35.97 36.32 35.97"/><polygon class="cls-4" points="36.32 35.96 36.32 35.97 36.32 35.97 36.32 35.96"/><circle class="cls-4" cx="36.32" cy="35.96"/><polygon class="cls-4" points="36.32 35.97 36.32 35.97 36.32 35.97 36.32 35.97"/><polygon class="cls-4" points="36.32 35.97 36.32 35.97 36.32 35.97 36.32 35.97"/><polygon class="cls-4" points="36.32 35.97 36.32 35.97 36.32 35.97 36.32 35.97"/><polygon class="cls-4" points="36.32 35.97 36.32 35.97 36.32 35.97 36.32 35.97"/><circle class="cls-4" cx="36.32" cy="35.96"/><polygon class="cls-4" points="36.32 35.97 36.32 35.97 36.32 35.97 36.32 35.97"/><polygon class="cls-4" points="36.32 35.97 36.32 35.97 36.32 35.97 36.32 35.97"/><circle class="cls-4" cx="36.32" cy="35.96"/><rect class="cls-4" x="36.32" y="35.96"/><polygon class="cls-4" points="36.32 35.97 36.32 35.97 36.32 35.97 36.32 35.97"/><circle class="cls-4" cx="36.32" cy="35.96"/><circle class="cls-4" cx="36.32" cy="35.96"/><path class="cls-4" d="M36.32,36h0L13,42.22A24,24,0,0,0,15.4,48L36.32,36Z"/><path class="cls-4" d="M36.32,36,30.07,12.63A24,24,0,0,0,24.24,15L36.32,36Z"/><path class="cls-5" d="M15.4,48a24.24,24.24,0,0,0,3.84,5L36.32,36Z"/><path class="cls-4" d="M36.32,36,13,29.71A24.17,24.17,0,0,0,12.16,36H36.32Z"/><path class="cls-4" d="M36.32,36h0L19.24,53a24.24,24.24,0,0,0,5,3.84L36.32,36Z"/><path class="cls-5" d="M36.32,36,24.24,15a24.24,24.24,0,0,0-5,3.84L36.32,36Z"/><path class="cls-5" d="M15.4,23.89A24,24,0,0,0,13,29.71L36.32,36Z"/><path class="cls-4" d="M36.32,36,19.24,18.88a24.24,24.24,0,0,0-3.84,5L36.32,36Z"/><path class="cls-5" d="M36.32,36H12.16A24.18,24.18,0,0,0,13,42.22L36.32,36Z"/><path class="cls-4" d="M36.32,36,53.4,53a24.24,24.24,0,0,0,3.84-5L36.32,36Z"/><path class="cls-5" d="M24.24,56.88a24,24,0,0,0,5.82,2.42L36.32,36Z"/><path class="cls-5" d="M36.32,36,48.39,56.88a24.24,24.24,0,0,0,5-3.84L36.32,36Z"/><path class="cls-5" d="M36.32,36h0L57.23,48a24,24,0,0,0,2.42-5.82Z"/><path class="cls-4" d="M42.57,59.3a24,24,0,0,0,5.82-2.42L36.32,36Z"/><path class="cls-4" d="M36.32,36h0L30.07,59.3a24.17,24.17,0,0,0,6.25.82h0V36Z"/><path class="cls-5" d="M36.32,36h0V60.12a24.17,24.17,0,0,0,6.25-.82L36.32,36Z"/><path class="cls-5" d="M36.32,36H60.47a24.17,24.17,0,0,0-.82-6.25L36.32,36Z"/><circle class="cls-4" cx="36.32" cy="35.96"/><polygon class="cls-4" points="36.32 35.97 36.32 35.97 36.32 35.97 36.32 35.97 36.32 35.97 36.32 35.97"/><polygon class="cls-4" points="36.32 35.97 36.32 35.97 36.32 35.97 36.32 35.97"/><circle class="cls-4" cx="36.32" cy="35.96"/><polygon class="cls-4" points="36.32 35.97 36.32 35.97 36.32 35.97 36.32 35.97"/><polygon class="cls-4" points="36.32 35.97 36.32 35.97 36.32 35.97 36.32 35.97"/><polygon class="cls-4" points="36.32 35.97 36.32 35.97 36.32 35.97 36.32 35.97 36.32 35.97 36.32 35.97"/><circle class="cls-4" cx="36.32" cy="35.96"/><circle class="cls-4" cx="36.32" cy="35.96"/><path class="cls-4" d="M36.32,36,53.4,18.89a24.25,24.25,0,0,0-5-3.84L36.32,36Z"/><path class="cls-4" d="M36.32,36l23.33,6.25A24.17,24.17,0,0,0,60.47,36H36.32Z"/><path class="cls-4" d="M36.32,36l6.25-23.33a24.17,24.17,0,0,0-6.25-.82V36Z"/><path class="cls-5" d="M36.32,36h0L48.39,15a24,24,0,0,0-5.82-2.42L36.32,36Z"/><path class="cls-5" d="M36.32,11.81h0a24.17,24.17,0,0,0-6.25.82L36.32,36Z"/><path class="cls-5" d="M36.32,36,57.23,23.89a24.24,24.24,0,0,0-3.84-5L36.32,36Z"/><path class="cls-4" d="M59.65,29.71a24,24,0,0,0-2.42-5.82L36.32,36Z"/><circle class="cls-3" cx="36.32" cy="35.96" r="20.92"/><circle class="cls-4" cx="36.32" cy="35.96" r="19.23"/><path class="cls-2" d="M11,21.37,6.59,18.8A34.16,34.16,0,0,0,2,36H7.12A29.05,29.05,0,0,1,11,21.37Z"/><path class="cls-4" d="M21.72,61.25l-2.56,4.44a34.16,34.16,0,0,0,17.16,4.59V65.17A29.05,29.05,0,0,1,21.72,61.25Z"/><path class="cls-2" d="M36.32,65.17v5.12a34.16,34.16,0,0,0,17.16-4.59l-2.56-4.44A29.05,29.05,0,0,1,36.32,65.17Z"/><path class="cls-2" d="M11,50.56,6.59,53.13A34.49,34.49,0,0,0,19.16,65.69l2.56-4.44A29.33,29.33,0,0,1,11,50.56Z"/><path class="cls-4" d="M50.92,61.25l2.56,4.44A34.49,34.49,0,0,0,66,53.13L61.6,50.56A29.33,29.33,0,0,1,50.92,61.25Z"/><path class="cls-2" d="M65.52,36a29.05,29.05,0,0,1-3.92,14.6L66,53.13A34.16,34.16,0,0,0,70.64,36Z"/><path class="cls-4" d="M65.52,36h5.12A34.16,34.16,0,0,0,66,18.8L61.6,21.37A29.05,29.05,0,0,1,65.52,36Z"/><path class="cls-4" d="M7.12,36H2A34.16,34.16,0,0,0,6.59,53.13L11,50.56A29.06,29.06,0,0,1,7.12,36Z"/><path class="cls-4" d="M50.92,10.68l2.56-4.44A34.16,34.16,0,0,0,36.32,1.65V6.76A29.05,29.05,0,0,1,50.92,10.68Z"/><path class="cls-2" d="M61.6,21.37,66,18.8A34.48,34.48,0,0,0,53.48,6.24l-2.56,4.44A29.33,29.33,0,0,1,61.6,21.37Z"/><path class="cls-4" d="M21.72,10.68,19.16,6.24A34.49,34.49,0,0,0,6.59,18.8L11,21.37A29.33,29.33,0,0,1,21.72,10.68Z"/><path class="cls-2" d="M36.32,6.76V1.65A34.16,34.16,0,0,0,19.16,6.24l2.56,4.44A29.06,29.06,0,0,1,36.32,6.76Z"/><circle class="cls-4" cx="44.61" cy="66.43" r="1.1" transform="translate(-15.89 14.05) rotate(-15.23)"/><circle class="cls-4" cx="28.02" cy="5.49" r="1.1" transform="translate(-0.46 7.55) rotate(-15.22)"/><circle class="cls-4" cx="13.99" cy="58.29" r="1.1" transform="translate(-37.12 26.96) rotate(-45)"/><circle class="cls-4" cx="58.65" cy="13.63" r="1.1" transform="translate(7.54 45.46) rotate(-45)"/><circle class="cls-4" cx="66.84" cy="44.07" r="1.1" transform="translate(7.08 97.35) rotate(-75.12)"/><circle class="cls-4" cx="5.8" cy="27.86" r="1.1" transform="translate(-22.61 26.31) rotate(-75.12)"/><path class="cls-2" d="M44.72,34.07a5.65,5.65,0,0,0-4.07-.62,5.67,5.67,0,1,0-8.7,0,5.67,5.67,0,1,0,3.78,8.18,19,19,0,0,1-3.44,6h8a19,19,0,0,1-3.44-6,5.67,5.67,0,1,0,7.86-7.56Z"/></g></g></svg>