<?xml version="1.0" encoding="utf-8"?>
<!-- Generator: Adobe Illustrator 21.0.0, SVG Export Plug-In . SVG Version: 6.00 Build 0)  -->
<svg version="1.1" id="图层_1" xmlns="http://www.w3.org/2000/svg" xmlns:xlink="http://www.w3.org/1999/xlink" x="0px" y="0px"
	 width="360px" height="107.8px" viewBox="0 0 360 107.8" style="enable-background:new 0 0 360 107.8;" xml:space="preserve">
<style type="text/css">
	.st0{clip-path:url(#SVGID_2_);}
	.st1{fill:#EFEFEF;}
	.st2{fill:#FFFFFF;}
</style>
<title>bg_cloud</title>
<g id="图层_2">
	<g id="圖層_8">
		<g>
			<defs>
				<rect id="SVGID_1_" y="-71.9" width="360" height="236"/>
			</defs>
			<clipPath id="SVGID_2_">
				<use xlink:href="#SVGID_1_"  style="overflow:visible;"/>
			</clipPath>
			<g class="st0">
				<path class="st1" d="M129.5,62c0-10.4-7-19.5-17.1-22.2c3.1-15.4-6.9-30.3-22.3-33.3c-1.8-0.4-3.7-0.5-5.6-0.5
					c-5.6,0-11,1.6-15.6,4.7C59-1.7,40.8-3.6,28.5,6.5c-4,3.3-7,7.5-8.8,12.4c-15.3-3-30.2,7-33.2,22.3c-2,10.4,1.9,21.1,10.3,27.7
					c-2.8,15.2,7.3,29.7,22.4,32.4c8,1.5,16.3-0.7,22.6-5.8c5.6,2.8,12.1,3.2,18,1.1c12.5,10.7,31.3,9.3,42-3.2
					c2.1-2.5,3.9-5.3,5.1-8.4C119.6,84.7,129.6,74.5,129.5,62z"/>
				<path class="st1" d="M243.9,64c0-10.4,7-19.5,17.1-22.2c-3-15.4,6.9-30.3,22.3-33.3c1.8-0.4,3.7-0.5,5.5-0.5
					c5.6,0,11,1.6,15.6,4.7C314.5,0.3,332.7-1.6,345,8.5c4,3.3,7,7.5,8.8,12.4c15.3-3,30.2,7,33.2,22.3c2,10.4-1.9,21.1-10.3,27.7
					c2.7,15.2-7.4,29.6-22.6,32.3c-8,1.4-16.1-0.7-22.4-5.8c-5.6,2.8-12.1,3.3-18.1,1.1c-12.5,10.7-31.3,9.3-42-3.2
					c-2.1-2.5-3.9-5.3-5.1-8.4C253.9,86.7,243.9,76.5,243.9,64z"/>
				<path class="st1" d="M94.2,59.2c-1.5-9.1,4.7-17.7,13.8-19.1c0.3,0,0.6-0.1,0.9-0.1c0,0,0-0.1,0-0.1c0-10.3,8.4-18.7,18.7-18.7
					c8.2,0,15.4,5.3,17.8,13.1c5.9-4.8,14.5-3.9,19.2,1.9c1.1,1.4,1.9,2.9,2.5,4.6c7.2-3.8,16.1-1,19.8,6.2c0.8,1.5,1.3,3.1,1.5,4.8
					c5.8-2.4,12.4,0.3,14.9,6c1.2,2.8,1.2,6,0,8.8c7,1,11.8,7.5,10.8,14.5c-1,7-7.5,11.8-14.5,10.8c-2.6-0.4-5-1.6-6.9-3.4
					c-5.8,4.6-14.1,3.7-18.8-1.9c-6.3,5.4-15.5,5.9-22.4,1.2c-4.8,3.3-11.4,2.1-14.7-2.7c-0.1-0.2-0.3-0.4-0.4-0.6
					c-3.8,7.1-12.7,9.7-19.7,5.9c-2.5-1.3-4.5-3.4-5.9-5.9c-5.7,6.6-15.6,7.3-22.2,1.6c-6.6-5.7-7.3-15.6-1.6-22.2
					C88.8,61.7,91.3,60.1,94.2,59.2L94.2,59.2z"/>
				<path class="st1" d="M279.9,58.9c0-8.1-5.5-15.1-13.3-17.1c-5.9-11.5-19.8-16.5-31.6-11.3c-10.2-11.9-28-13.3-39.9-3.1
					c-1.2,1.1-2.4,2.2-3.4,3.5c-9.1-1.5-18.3,2.6-23.4,10.3c-9-4.9-20.2-1.7-25.2,7.3c-0.7,1.4-1.3,2.8-1.7,4.3
					C129,53,119.2,63.2,119.5,75.5c0.2,12.3,10.4,22.1,22.8,21.9c5.7-0.1,11.1-2.4,15.1-6.3c5.6,7.6,16.2,9.2,23.8,3.7
					c0.8-0.6,1.6-1.2,2.2-2c7.2,7.1,18.8,7.1,26-0.1c0.6-0.6,1.2-1.3,1.8-2.1c8.8,9.2,23.4,9.5,32.6,0.7c9.1,6.5,21.8,4.4,28.2-4.8
					c3.2-4.6,4.5-10.2,3.4-15.7C278.3,67.6,280,63.3,279.9,58.9z"/>
				<path class="st2" d="M129.5,64c0-10.4-7-19.5-17.1-22.2c3.1-15.4-6.9-30.3-22.3-33.3c-1.8-0.4-3.7-0.5-5.6-0.5
					c-5.6,0-11,1.6-15.6,4.7C59,0.3,40.8-1.6,28.5,8.5c-4,3.3-7,7.5-8.8,12.4c-15.3-3-30.2,7-33.2,22.3c-2,10.4,1.9,21.1,10.3,27.7
					c-2.8,15.2,7.3,29.7,22.4,32.4c8,1.5,16.3-0.7,22.6-5.8c5.6,2.8,12.1,3.2,18,1.1c12.5,10.7,31.3,9.3,42-3.2
					c2.1-2.5,3.9-5.3,5.1-8.4C119.6,86.7,129.6,76.5,129.5,64z"/>
				<path class="st2" d="M243.9,66c0-10.4,7-19.5,17.1-22.2c-3-15.4,6.9-30.3,22.3-33.3c1.8-0.4,3.7-0.5,5.5-0.5
					c5.6,0,11,1.6,15.6,4.7c10.1-12.3,28.2-14.1,40.5-4.1c4,3.3,7,7.5,8.8,12.4c15.3-3,30.2,7,33.2,22.3c2,10.4-1.9,21.1-10.3,27.7
					c2.7,15.2-7.4,29.6-22.6,32.3c-8,1.4-16.1-0.7-22.4-5.8c-5.6,2.8-12.1,3.3-18.1,1.1c-12.5,10.7-31.3,9.3-42-3.2
					c-2.1-2.5-3.9-5.3-5.1-8.4C253.9,88.7,243.9,78.5,243.9,66z"/>
				<path class="st2" d="M94.2,61.2c-1.5-9.1,4.7-17.7,13.8-19.1c0.3,0,0.6-0.1,0.9-0.1c0,0,0-0.1,0-0.1c0-10.3,8.4-18.7,18.7-18.7
					c8.2,0,15.4,5.3,17.8,13.1c5.9-4.8,14.5-3.9,19.2,1.9c1.1,1.4,1.9,2.9,2.5,4.6c7.2-3.8,16.1-1,19.8,6.2c0.8,1.5,1.3,3.1,1.5,4.8
					c5.8-2.4,12.4,0.3,14.9,6c1.2,2.8,1.2,6,0,8.8c7,1,11.8,7.5,10.8,14.5c-1,7-7.5,11.8-14.5,10.8c-2.6-0.4-5-1.6-6.9-3.4
					c-5.8,4.6-14.1,3.7-18.8-1.9c-6.3,5.4-15.5,5.9-22.4,1.2c-4.8,3.3-11.4,2.1-14.7-2.7c-0.1-0.2-0.3-0.4-0.4-0.6
					c-3.8,7.1-12.7,9.7-19.7,5.9c-2.5-1.3-4.5-3.4-5.9-5.9c-5.7,6.6-15.6,7.3-22.2,1.6c-6.6-5.7-7.3-15.6-1.6-22.2
					C88.8,63.7,91.3,62.1,94.2,61.2L94.2,61.2z"/>
				<path class="st2" d="M279.9,60.9c0-8.1-5.5-15.1-13.3-17.1c-5.9-11.5-19.8-16.5-31.6-11.3c-10.2-11.9-28-13.3-39.9-3.1
					c-1.2,1.1-2.4,2.2-3.4,3.5c-9.1-1.5-18.3,2.6-23.4,10.3c-9-4.9-20.2-1.7-25.2,7.3c-0.7,1.4-1.3,2.8-1.7,4.3
					C129,55,119.2,65.2,119.5,77.5c0.2,12.3,10.4,22.1,22.8,21.9c5.7-0.1,11.1-2.4,15.1-6.3c5.6,7.6,16.2,9.2,23.8,3.7
					c0.8-0.6,1.6-1.2,2.2-2c7.2,7.1,18.8,7.1,26-0.1c0.6-0.6,1.2-1.3,1.8-2.1c8.8,9.2,23.4,9.5,32.6,0.7c9.1,6.5,21.8,4.4,28.2-4.8
					c3.2-4.6,4.5-10.2,3.4-15.7C278.3,69.6,280,65.3,279.9,60.9z"/>
			</g>
		</g>
	</g>
</g>
</svg>
