<?xml version="1.0" encoding="utf-8"?>
<!-- Generator: Adobe Illustrator 21.0.0, SVG Export Plug-In . SVG Version: 6.00 Build 0)  -->
<svg version="1.1" id="图层_1" xmlns="http://www.w3.org/2000/svg" xmlns:xlink="http://www.w3.org/1999/xlink" x="0px" y="0px"
	 width="14.3px" height="14.3px" viewBox="0 0 14.3 14.3" style="enable-background:new 0 0 14.3 14.3;" xml:space="preserve">
<style type="text/css">
	.st0{fill:#FFFFFF;}
</style>
<title>icon_clock</title>
<g id="图层_2">
	<g id="top">
		<path class="st0" d="M13.8,4.4C13,2.6,11.7,1.3,9.9,0.6C9.1,0.2,8.1,0,7.2,0c-1,0-1.9,0.2-2.8,0.6C2.6,1.3,1.3,2.6,0.6,4.4
			c-0.8,1.8-0.8,3.8,0,5.6c0.7,1.7,2.1,3.1,3.8,3.8c0.9,0.4,1.8,0.6,2.8,0.6c1,0,1.9-0.2,2.8-0.6c1.7-0.7,3.1-2.1,3.8-3.8
			C14.5,8.2,14.5,6.1,13.8,4.4z M12.6,10.3c-0.6,1-1.3,1.7-2.3,2.3c-1,0.6-2,0.9-3.2,0.9c-0.8,0-1.7-0.2-2.4-0.5
			c-0.7-0.3-1.4-0.8-2-1.3c-0.6-0.6-1-1.3-1.3-2C1,8.8,0.9,8,0.9,7.2C0.9,6,1.2,5,1.7,4C2.3,3,3,2.3,4,1.7c1-0.6,2-0.9,3.2-0.9
			c1.1,0,2.2,0.3,3.2,0.9c1,0.5,1.8,1.3,2.3,2.3c0.6,1,0.8,2,0.8,3.2C13.5,8.3,13.2,9.4,12.6,10.3z"/>
		<path class="st0" d="M7.6,7.1V3c0-0.2-0.2-0.4-0.4-0.4C6.9,2.6,6.7,2.8,6.7,3v4.2c0,0,0,0,0,0.1c0,0.1,0,0.3,0.1,0.3l2.3,2.3
			c0.2,0.2,0.4,0.2,0.6,0c0.2-0.2,0.2-0.4,0-0.6c0,0,0,0,0,0L7.6,7.1z"/>
	</g>
</g>
</svg>
