<?xml version="1.0" encoding="utf-8"?>
<!-- Generator: Adobe Illustrator 21.1.0, SVG Export Plug-In . SVG Version: 6.00 Build 0)  -->
<svg version="1.1" id="圖層_1" xmlns="http://www.w3.org/2000/svg" xmlns:xlink="http://www.w3.org/1999/xlink" x="0px" y="0px"
	 width="32px" height="32px" viewBox="0 0 32 32" style="enable-background:new 0 0 32 32;" xml:space="preserve">
<style type="text/css">
	.st0{fill:#52ACD3;}
</style>
<title>icon_trace_b</title>
<g id="圖層_2">
	<g id="footer">
		<path class="st0" d="M0.4,5.6C0.2,5.6,0.1,5.8,0.1,6c0,0.1,0.1,0.2,0.1,0.2L9.7,15v8c0,0.2,0.2,0.4,0.4,0.4c0.1,0,0.2,0,0.2-0.1
			l3.4-2.7l3.9,5.5c0.1,0.2,0.3,0.3,0.5,0.2c0.2-0.1,0.3-0.3,0.2-0.5c0,0,0-0.1-0.1-0.1l-4.1-5.8c0,0,0-0.1-0.1-0.1L10.7,15
			l19.9-8.2L18.8,23.9c-0.1,0.2-0.1,0.4,0.1,0.5c0.2,0.1,0.4,0.1,0.5,0l0,0L31.9,6.2C32,6,31.9,5.8,31.8,5.7c-0.1,0-0.1-0.1-0.2-0.1
			H3.4C3.2,5.6,3,5.8,3,6c0,0.2,0.2,0.4,0.4,0.4h26.3l-19.5,8.1L0.7,5.7C0.6,5.6,0.5,5.6,0.4,5.6z M10.5,16l2.8,4l-2.8,2.2V16z"/>
	</g>
</g>
</svg>
