<?xml version="1.0" encoding="utf-8"?>
<!-- Generator: Adobe Illustrator 21.1.0, SVG Export Plug-In . SVG Version: 6.00 Build 0)  -->
<svg version="1.1" id="图层_1" xmlns="http://www.w3.org/2000/svg" xmlns:xlink="http://www.w3.org/1999/xlink" x="0px" y="0px"
	 width="20px" height="20px" viewBox="0 0 20 20" style="enable-background:new 0 0 20 20;" xml:space="preserve">
<style type="text/css">
	.st0{fill:#FFFFFF;}
</style>
<title>icon_random</title>
<g id="图层_2">
	<g id="footer">
		<path class="st0" d="M18.7,9.3l-4.9-1.5c-0.9-0.3-1.9,0.2-2.1,1.1l-1.5,4.9c-0.3,0.9,0.2,1.9,1.1,2.1l4.9,1.5
			c0.9,0.3,1.9-0.2,2.1-1.1l1.5-4.9C20.1,10.5,19.6,9.6,18.7,9.3z M14.2,10.1c0.4,0.1,0.6,0.5,0.5,0.9s-0.5,0.6-0.9,0.5
			s-0.6-0.5-0.5-0.9C13.5,10.2,13.9,10,14.2,10.1L14.2,10.1z M13,14.2c-0.4-0.1-0.6-0.5-0.5-0.9s0.5-0.6,0.9-0.5s0.6,0.5,0.5,0.9
			C13.8,14.1,13.4,14.3,13,14.2L13,14.2z M14.8,13.3c-0.4-0.1-0.6-0.5-0.5-0.9s0.5-0.6,0.9-0.5s0.6,0.5,0.5,0.9
			C15.5,13.2,15.1,13.4,14.8,13.3L14.8,13.3z M15.7,15c-0.4-0.1-0.6-0.5-0.5-0.9s0.5-0.6,0.9-0.5c0.4,0.1,0.6,0.5,0.5,0.9
			S16.1,15.2,15.7,15L15.7,15z M16.5,12.3c-0.4-0.1-0.6-0.5-0.5-0.9s0.5-0.6,0.9-0.5s0.6,0.5,0.5,0.9S16.9,12.4,16.5,12.3L16.5,12.3
			z"/>
		<path class="st0" d="M10.2,7.9L7.9,3.4C7.4,2.6,6.4,2.3,5.5,2.7L1.1,5.1C0.2,5.5-0.1,6.6,0.3,7.4l2.4,4.5C3.2,12.7,4.2,13,5,12.6
			l0,0l4.5-2.4C10.4,9.8,10.7,8.7,10.2,7.9L10.2,7.9z M5,10.2c-0.4,0.2-0.8,0-1-0.3c-0.2-0.4,0-0.8,0.3-1s0.7,0,0.9,0.3
			C5.5,9.5,5.4,10,5,10.2C5.1,10.2,5,10.2,5,10.2z M5.6,8.3c-0.4,0.2-0.8,0-1-0.3C4.5,7.6,4.6,7.2,5,7c0.3-0.2,0.7,0,0.9,0.3
			C6.1,7.6,6,8.1,5.6,8.3C5.7,8.3,5.6,8.3,5.6,8.3z M6.2,6.4c-0.4,0.2-0.8,0-1-0.3c-0.2-0.4,0-0.8,0.3-1s0.7,0,0.9,0.3
			C6.7,5.7,6.6,6.1,6.2,6.4C6.3,6.3,6.2,6.4,6.2,6.4L6.2,6.4z"/>
	</g>
</g>
</svg>
