<?xml version="1.0" encoding="utf-8"?>
<!-- Generator: Adobe Illustrator 21.1.0, SVG Export Plug-In . SVG Version: 6.00 Build 0)  -->
<svg version="1.1" id="图层_1" xmlns="http://www.w3.org/2000/svg" xmlns:xlink="http://www.w3.org/1999/xlink" x="0px" y="0px"
	 width="34.8px" height="32.2px" viewBox="0 0 34.8 32.2" style="enable-background:new 0 0 34.8 32.2;" xml:space="preserve">
<style type="text/css">
	.st0{opacity:0.8;}
	.st1{fill:#FFFFFF;}
</style>
<title>icon_cart</title>
<g id="图层_2">
	<g id="other">
		<g class="st0">
			<path class="st1" d="M14.6,26.1c-1.7,0-3.1,1.4-3.1,3.1s1.4,3.1,3.1,3.1s3.1-1.4,3.1-3.1l0,0C17.6,27.4,16.3,26.1,14.6,26.1z
				 M14.6,30.5c-0.7,0-1.3-0.6-1.3-1.4s0.6-1.4,1.4-1.4c0.7,0,1.3,0.6,1.3,1.4S15.3,30.5,14.6,30.5L14.6,30.5z"/>
			<path class="st1" d="M25.3,26.1c-1.7,0-3.1,1.4-3.1,3.1s1.4,3.1,3.1,3.1s3.1-1.4,3.1-3.1l0,0C28.4,27.4,27,26.1,25.3,26.1z
				 M25.3,30.5c-0.7,0-1.4-0.6-1.4-1.4s0.6-1.4,1.4-1.4s1.4,0.6,1.4,1.4S26.1,30.5,25.3,30.5L25.3,30.5z"/>
			<path class="st1" d="M13.8,11.7H26c0.5,0,0.9-0.4,0.9-0.9S26.5,9.9,26,9.9l0,0H13.8c-0.5,0-0.9,0.4-0.9,0.9
				C13,11.3,13.4,11.7,13.8,11.7z"/>
			<path class="st1" d="M25.4,14.4H14.5c-0.5,0-0.9,0.4-0.9,0.9s0.4,0.9,0.9,0.9h10.9c0.5,0,0.9-0.4,0.9-0.9
				C26.3,14.8,25.9,14.4,25.4,14.4L25.4,14.4z"/>
			<path class="st1" d="M34.4,6.2c-0.3-0.4-0.8-0.6-1.3-0.6H6.5L5.9,2.9c-0.1-0.5-0.5-1-1-1.2L1.2,0.1c-0.4-0.2-0.9,0-1.1,0.4
				s0,0.9,0.4,1.1l3.8,1.6l4.1,20.1c0.2,0.8,0.9,1.4,1.7,1.4h20.5c0.5,0,0.9-0.4,0.9-0.9S31,23,30.5,23H10.1l-0.5-2.4h21.1
				c0.8,0,1.5-0.6,1.7-1.4l2.4-11.6C34.9,7.1,34.7,6.6,34.4,6.2z M30.7,18.8H9.2L6.8,7.2H33L30.7,18.8z"/>
		</g>
	</g>
</g>
</svg>
