<?xml version="1.0" encoding="utf-8"?>
<!-- Generator: Adobe Illustrator 21.0.0, SVG Export Plug-In . SVG Version: 6.00 Build 0)  -->
<svg version="1.1" id="图层_1" xmlns="http://www.w3.org/2000/svg" xmlns:xlink="http://www.w3.org/1999/xlink" x="0px" y="0px"
	 width="16px" height="16px" viewBox="0 0 16 16" style="enable-background:new 0 0 16 16;" xml:space="preserve">
<style type="text/css">
	.st0{fill:#52ACD3;}
</style>
<title>icon_conut</title>
<g id="图层_2">
	<g id="助手選單">
		<path class="st0" d="M14.8,14.2h-13v-13c0-0.3-0.2-0.5-0.5-0.5C1,0.8,0.8,1,0.8,1.3c0,0,0,0,0,0v13.5c0,0.3,0.2,0.5,0.5,0.5
			c0,0,0,0,0,0h13.5c0.3-0.1,0.5-0.3,0.4-0.6C15.1,14.5,15,14.3,14.8,14.2L14.8,14.2z"/>
		<path class="st0" d="M6.8,12.2V4.9c0.1-0.3-0.1-0.5-0.4-0.6C6.1,4.2,5.8,4.4,5.8,4.7c0,0.1,0,0.1,0,0.2v7.4
			c0.1,0.3,0.3,0.5,0.6,0.4C6.6,12.6,6.7,12.5,6.8,12.2z"/>
		<path class="st0" d="M4.3,12.2V4.9C4.2,4.6,3.9,4.4,3.7,4.5c-0.2,0-0.4,0.2-0.4,0.4v7.4c0.1,0.3,0.3,0.5,0.6,0.4
			C4.1,12.6,4.2,12.5,4.3,12.2z"/>
		<path class="st0" d="M11.7,12.2V4.9c0.1-0.3-0.1-0.5-0.4-0.6c-0.3-0.1-0.5,0.1-0.6,0.4c0,0.1,0,0.1,0,0.2v7.4
			c0.1,0.3,0.3,0.5,0.6,0.4C11.5,12.6,11.6,12.5,11.7,12.2z"/>
		<path class="st0" d="M14.1,12.2V8.6c-0.1-0.3-0.3-0.5-0.6-0.4c-0.2,0-0.4,0.2-0.4,0.4v3.7c0.1,0.3,0.3,0.5,0.6,0.4
			C14,12.6,14.1,12.5,14.1,12.2z"/>
		<path class="st0" d="M9.2,12.2V8.6C9.2,8.3,8.9,8.1,8.6,8.2c-0.2,0-0.4,0.2-0.4,0.4v3.7c0.1,0.3,0.3,0.5,0.6,0.4
			C9,12.6,9.2,12.5,9.2,12.2z"/>
	</g>
</g>
</svg>
