<?xml version="1.0" encoding="utf-8"?>
<!-- Generator: Adobe Illustrator 21.1.0, SVG Export Plug-In . SVG Version: 6.00 Build 0)  -->
<svg version="1.1" id="圖層_1" xmlns="http://www.w3.org/2000/svg" xmlns:xlink="http://www.w3.org/1999/xlink" x="0px" y="0px"
	 width="45px" height="45px" viewBox="0 0 45 45" style="enable-background:new 0 0 45 45;" xml:space="preserve">
<style type="text/css">
	.st0{fill:#FCB008;}
</style>
<title>icon_tip_d</title>
<g>
	<g>
		<path class="st0" d="M22.5,44.9c-12.3,0-22.3-10-22.3-22.3s10-22.3,22.3-22.3s22.3,10,22.3,22.3S34.8,44.9,22.5,44.9z M22.5,1.9
			c-11.4,0-20.7,9.3-20.7,20.7c0,11.4,9.3,20.7,20.7,20.7c11.4,0,20.7-9.3,20.7-20.7C43.2,11.2,33.9,1.9,22.5,1.9z"/>
	</g>
	<g>
		<g>
			<path class="st0" d="M22.7,30.2h-0.9c-0.5,0-0.8-0.4-0.8-0.8l0-19.6C21,9.4,21.4,9,21.9,9h0.9c0.5,0,0.8,0.4,0.8,0.8l0,19.6
				C23.6,29.8,23.2,30.2,22.7,30.2z"/>
		</g>
		<g>
			<circle class="st0" cx="22.3" cy="34.8" r="1.4"/>
		</g>
	</g>
</g>
</svg>
