<?xml version="1.0" encoding="utf-8"?>
<!-- Generator: Adobe Illustrator 21.0.0, SVG Export Plug-In . SVG Version: 6.00 Build 0)  -->
<svg version="1.1" id="图层_1" xmlns="http://www.w3.org/2000/svg" xmlns:xlink="http://www.w3.org/1999/xlink" x="0px" y="0px"
	 width="16px" height="16px" viewBox="0 0 16 16" style="enable-background:new 0 0 16 16;" xml:space="preserve">
<style type="text/css">
	.st0{fill:#52ACD3;}
</style>
<title>icon_lottery</title>
<g id="图层_2">
	<g id="助手選單">
		<path class="st0" d="M5.6,5.9c-2.8,0-5,2.3-5,5s2.3,5,5,5s5-2.3,5-5c0,0,0,0,0,0C10.6,8.2,8.4,5.9,5.6,5.9z M7,10.7
			c0.2,0,0.4,0.2,0.4,0.4c0,0.2-0.2,0.4-0.4,0.4H6.1V12H7c0.2,0,0.4,0.2,0.4,0.4c0,0.2-0.2,0.4-0.4,0.4H6.1v0.5
			c0,0.2-0.2,0.4-0.4,0.4c-0.2,0-0.4-0.2-0.4-0.4v-0.5H4.4c-0.2,0-0.4-0.2-0.4-0.4C4,12.2,4.2,12,4.4,12h0.9v-0.4H4.4
			c-0.2,0-0.4-0.2-0.4-0.4c0-0.2,0.2-0.4,0.4-0.4h0.4L3.9,9.3c-0.1-0.2,0-0.5,0.2-0.6c0.2-0.1,0.4,0,0.5,0.1l1.1,1.6l1-1.6
			c0.1-0.2,0.4-0.3,0.6-0.2C7.5,8.8,7.6,9,7.5,9.2c0,0,0,0.1,0,0.1l-0.9,1.4H7z"/>
		<path class="st0" d="M11.8,6.7v0.2c0,0.2-0.2,0.3-0.3,0.3c-0.2,0-0.3-0.2-0.3-0.3l0,0V6.6c-0.2-0.1-0.4-0.2-0.5-0.3
			c-0.1-0.1-0.1-0.3,0-0.4c0,0,0,0,0,0c0.1-0.1,0.3-0.1,0.5,0C11.2,6,11.3,6,11.4,6c0.3,0.1,0.5-0.1,0.6-0.4c0-0.3-0.2-0.5-0.5-0.5
			c-0.6,0-1.1-0.4-1.2-1.1c0-0.5,0.4-0.9,0.9-1V3c0-0.2,0.2-0.3,0.3-0.3c0.2,0,0.3,0.2,0.3,0.3v0.2c0.2,0.1,0.4,0.2,0.5,0.3
			c0.1,0.1,0.1,0.3,0,0.4c0,0,0,0,0,0c-0.1,0.1-0.3,0.1-0.5,0c-0.1-0.1-0.2-0.1-0.4-0.1c-0.3,0-0.5,0.2-0.5,0.4
			c0,0.3,0.2,0.5,0.5,0.5c0.6,0,1.1,0.4,1.2,1.1C12.7,6.2,12.3,6.6,11.8,6.7z M11.1,0.9c-2.5,0-4.4,2-4.4,4.5
			c2.3,0.4,4.1,2.2,4.5,4.5c2.5,0,4.5-2.1,4.5-4.5C15.6,2.9,13.6,0.9,11.1,0.9z"/>
		<path class="st0" d="M4,0c-2,0-3.7,1.6-3.7,3.7c0,1.2,0.6,2.3,1.6,3c1-0.9,2.4-1.4,3.7-1.4H6C6,4.1,6.5,3,7.2,2.1
			C6.6,0.8,5.4,0,4,0z M4.8,1.6C4.8,1.7,4.6,1.7,4.5,1.7c-0.1,0-0.2-0.1-0.4-0.1c-0.4,0-0.8,0.2-1,0.6h1.1c0.1,0,0.2,0.1,0.2,0.2
			c0,0.1-0.1,0.2-0.2,0.2H3C3,2.8,3,3,3,3.1h1.2c0.1,0,0.2,0.1,0.2,0.2c0,0.1-0.1,0.2-0.2,0.2h-1c0.2,0.4,0.6,0.6,1,0.6
			c0.1,0,0.2,0,0.3,0c0.1,0,0.3,0,0.3,0.2c0,0.1,0,0.3-0.2,0.3l0,0c-0.1,0-0.3,0.1-0.5,0.1c-0.7,0-1.3-0.4-1.5-1.1H2.2
			C2,3.6,1.9,3.5,1.9,3.4c0-0.1,0.1-0.2,0.2-0.2h0.3c0-0.1,0-0.3,0-0.4H2.2C2,2.8,1.9,2.6,1.9,2.5c0-0.1,0.1-0.2,0.2-0.2h0.4
			c0.2-0.7,0.8-1.1,1.5-1.1c0.2,0,0.4,0,0.6,0.1C4.8,1.3,4.9,1.4,4.8,1.6C4.8,1.6,4.8,1.6,4.8,1.6z"/>
	</g>
</g>
</svg>
