<?xml version="1.0" encoding="utf-8"?>
<!-- Generator: Adobe Illustrator 21.0.0, SVG Export Plug-In . SVG Version: 6.00 Build 0)  -->
<svg version="1.1" id="图层_1" xmlns="http://www.w3.org/2000/svg" xmlns:xlink="http://www.w3.org/1999/xlink" x="0px" y="0px"
	 width="16px" height="16px" viewBox="0 0 16 16" style="enable-background:new 0 0 16 16;" xml:space="preserve">
<style type="text/css">
	.st0{fill:#52ACD3;}
</style>
<title>icon_trend</title>
<g id="图层_2">
	<g id="助手選單">
		<path class="st0" d="M15,0.6H1C0.7,0.6,0.5,0.7,0.5,1v2.7C0.5,4,0.7,4.1,1,4.1h0.8v6.3c0,0.3,0.2,0.5,0.5,0.5c0,0,0,0,0,0h1.9
			L2,14.6c-0.2,0.2-0.1,0.6,0.2,0.7c0,0,0,0,0,0c0.1,0.1,0.2,0.1,0.3,0.1c0.2,0,0.3-0.1,0.4-0.2l2.8-4.3h4.8l2.8,4.3
			c0.1,0.2,0.3,0.2,0.4,0.2c0.1,0,0.2,0,0.3-0.1c0.2-0.1,0.3-0.5,0.2-0.7c0,0,0,0,0,0l-2.4-3.7h2c0.3,0,0.5-0.2,0.5-0.5c0,0,0,0,0,0
			V4.1H15c0.3,0,0.5-0.1,0.5-0.4V1C15.5,0.7,15.3,0.6,15,0.6z M13.2,9.9V10H2.8V4.1h10.4V9.9z M14.4,3.2H1.5V1.5h12.9V3.2z"/>
		<path class="st0" d="M5.5,8.8c0.1,0,0.3-0.1,0.4-0.2l0.8-0.8l1.8,0.5c0.2,0,0.4,0,0.5-0.2L10.8,6c0.2-0.2,0.2-0.5,0-0.7
			c0,0,0,0,0,0c-0.2-0.1-0.5-0.1-0.6,0.1l-1.6,2L6.8,6.8c-0.2-0.1-0.4-0.1-0.5,0L5.3,7.9C5.1,8,5,8.2,5,8.5c0,0.2,0.2,0.3,0.3,0.3
			L5.5,8.8z"/>
	</g>
</g>
</svg>
