<?xml version="1.0" encoding="utf-8"?>
<!-- Generator: Adobe Illustrator 21.0.0, SVG Export Plug-In . SVG Version: 6.00 Build 0)  -->
<svg version="1.1" id="图层_1" xmlns="http://www.w3.org/2000/svg" xmlns:xlink="http://www.w3.org/1999/xlink" x="0px" y="0px"
	 width="14px" height="14px" viewBox="0 0 14 14" style="enable-background:new 0 0 14 14;" xml:space="preserve">
<style type="text/css">
	.st0{fill:#52ACD3;stroke:#52ACD3;stroke-width:0.1;stroke-miterlimit:10;}
</style>
<title>icon_trash</title>
<g id="图层_2">
	<g id="選單">
		<path class="st0" d="M10.5,2.4H8.6C8.5,1.5,7.7,0.8,6.8,1C6,1.1,5.5,1.6,5.4,2.4H3.5C2.7,2.4,2.1,3,2.1,3.8c0,0,0,0,0,0v0.1
			c0,0.6,0.4,1.1,0.9,1.3v6.6c0,0.8,0.6,1.4,1.4,1.4h0h5.3c0.8,0,1.4-0.6,1.4-1.4V5.1c0.5-0.2,0.9-0.7,0.9-1.3V3.8
			C11.9,3,11.3,2.4,10.5,2.4C10.5,2.4,10.5,2.4,10.5,2.4z M7,1.6c0.5,0,0.9,0.3,1,0.8H6C6.1,1.9,6.5,1.6,7,1.6z M10.4,11.7
			c0,0.4-0.3,0.7-0.7,0.7H4.4c-0.4,0-0.7-0.3-0.7-0.7V5.2h6.8V11.7z M11.3,3.9c0,0.4-0.3,0.7-0.7,0.7H3.5c-0.4,0-0.7-0.3-0.7-0.7
			l0,0V3.8C2.7,3.4,3.1,3,3.5,3l0,0h7.1C10.9,3,11.3,3.4,11.3,3.9L11.3,3.9L11.3,3.9z"/>
		<path class="st0" d="M5.2,11.6c0.2,0,0.3-0.1,0.3-0.3V7.5c0-0.2-0.1-0.3-0.3-0.3C5,7.2,4.9,7.4,4.9,7.5v3.7
			C4.9,11.4,5,11.6,5.2,11.6C5.2,11.6,5.2,11.6,5.2,11.6z"/>
		<path class="st0" d="M7,11.6c0.2,0,0.3-0.1,0.3-0.3V7.5c0-0.2-0.1-0.3-0.3-0.3S6.7,7.4,6.7,7.5c0,0,0,0,0,0v3.7
			C6.7,11.4,6.8,11.6,7,11.6C7,11.6,7,11.6,7,11.6z"/>
		<path class="st0" d="M8.8,11.6c0.2,0,0.3-0.1,0.3-0.3V7.5c0-0.2-0.1-0.3-0.3-0.3c-0.2,0-0.3,0.1-0.3,0.3c0,0,0,0,0,0v3.7
			C8.4,11.4,8.6,11.6,8.8,11.6C8.8,11.6,8.8,11.6,8.8,11.6z"/>
	</g>
</g>
</svg>
