<svg xmlns="http://www.w3.org/2000/svg" viewBox="0 0 16.02 19.71"><defs><style>.cls-1{fill:none;}.cls-2{fill:#fff;}</style></defs><title>icon_help</title><g id="图层_2" data-name="图层 2"><g id="other"><path class="cls-1" d="M11.52,6h-7A1.17,1.17,0,0,1,3.32,4.87v-1h-2a.44.44,0,0,0-.43.43V18.41a.44.44,0,0,0,.43.43H14.71a.44.44,0,0,0,.43-.43V4.26a.44.44,0,0,0-.43-.43h-2v1A1.17,1.17,0,0,1,11.52,6Z"/><path class="cls-2" d="M14.71,3h-2v.87h2a.44.44,0,0,1,.43.43V18.41a.44.44,0,0,1-.43.43H1.3a.44.44,0,0,1-.43-.43V4.26a.44.44,0,0,1,.43-.43h2V3h-2A1.31,1.31,0,0,0,0,4.26V18.41a1.31,1.31,0,0,0,1.3,1.3H14.71a1.31,1.31,0,0,0,1.3-1.3V4.26A1.31,1.31,0,0,0,14.71,3Z"/><path class="cls-2" d="M4.19,2.65a.31.31,0,0,1,.3-.3H6.55L6.62,2A1.41,1.41,0,0,1,9.39,2l.07.35h2.05a.3.3,0,0,1,.3.3V3h.87v-.3a1.17,1.17,0,0,0-1.17-1.17H10.14a2.28,2.28,0,0,0-4.27,0H4.5A1.17,1.17,0,0,0,3.32,2.65V3h.87Z"/><path class="cls-2" d="M11.82,4.87a.3.3,0,0,1-.3.3h-7a.31.31,0,0,1-.3-.3v-1H3.32v1A1.17,1.17,0,0,0,4.5,6h7a1.17,1.17,0,0,0,1.17-1.17v-1h-.87Z"/><rect class="cls-2" x="11.82" y="2.96" width="0.87" height="0.87"/><rect class="cls-2" x="3.32" y="2.96" width="0.87" height="0.87"/><path class="cls-2" d="M12.32,10.11H3.82a.43.43,0,1,1,0-.87h8.5a.43.43,0,1,1,0,.87Z"/><path class="cls-2" d="M8.62,14.17H3.82a.43.43,0,0,1,0-.87h4.8a.43.43,0,0,1,0,.87Z"/></g></g></svg>