<?xml version="1.0" encoding="utf-8"?>
<!-- Generator: Adobe Illustrator 21.0.0, SVG Export Plug-In . SVG Version: 6.00 Build 0)  -->
<svg version="1.1" id="图层_1" xmlns="http://www.w3.org/2000/svg" xmlns:xlink="http://www.w3.org/1999/xlink" x="0px" y="0px"
	 width="16px" height="16px" viewBox="0 0 16 16" style="enable-background:new 0 0 16 16;" xml:space="preserve">
<style type="text/css">
	.st0{fill:#52ACD3;}
</style>
<title>icon_info</title>
<g id="图层_2">
	<g id="助手選單">
		<path class="st0" d="M8,15.3c4,0,7.3-3.3,7.3-7.3S12,0.7,8,0.7C4,0.7,0.7,4,0.7,8C0.7,12,4,15.3,8,15.3C8,15.3,8,15.3,8,15.3z
			 M8,1.7c3.5,0,6.3,2.8,6.2,6.3s-2.8,6.3-6.3,6.2c-3.5,0-6.2-2.8-6.3-6.3C1.7,4.5,4.5,1.7,8,1.7C8,1.7,8,1.7,8,1.7z"/>
		<path class="st0" d="M6.8,11.2c-0.3,0.1-0.4,0.4-0.4,0.6c0,0.2,0.2,0.3,0.4,0.4h3.4c0.3-0.1,0.4-0.4,0.4-0.6
			c0-0.2-0.2-0.3-0.4-0.4H9V6.7c0-0.3-0.2-0.5-0.5-0.5c0,0,0,0,0,0H6.8C6.5,6.3,6.4,6.6,6.4,6.8c0,0.2,0.2,0.3,0.4,0.4H8v4L6.8,11.2
			z"/>
		<circle class="st0" cx="7.8" cy="4.5" r="0.8"/>
	</g>
</g>
</svg>
