<?xml version="1.0" encoding="utf-8"?>
<!-- Generator: Adobe Illustrator 21.1.0, SVG Export Plug-In . SVG Version: 6.00 Build 0)  -->
<svg version="1.1" id="图层_1" xmlns="http://www.w3.org/2000/svg" xmlns:xlink="http://www.w3.org/1999/xlink" x="0px" y="0px"
	 width="16px" height="16px" viewBox="0 0 16 16" style="enable-background:new 0 0 16 16;" xml:space="preserve">
<style type="text/css">
	.st0{fill:#484848;}
</style>
<title>icon_lottery</title>
<g>
	<g>
		<g>
			<path class="st0" d="M14.8,13c-1.7-0.8-1.7-4-1.7-4.1V6.7c0-2.1-1.3-3.9-3.1-4.7c0-1.1-0.9-2-2-2c-1.1,0-2,0.9-2,2
				C4.2,2.8,2.9,4.6,2.9,6.7v2.2c0,0.1-0.1,3.3-1.7,4.1c-0.2,0.1-0.3,0.3-0.3,0.5c0,0.2,0.2,0.4,0.4,0.4h4.3
				c0.1,0.5,0.3,0.9,0.7,1.3c0.5,0.5,1.1,0.7,1.7,0.7c0.6,0,1.3-0.3,1.7-0.7c0.3-0.4,0.6-0.8,0.7-1.3h4.3c0.2,0,0.4-0.1,0.4-0.4
				C15.1,13.3,15,13.1,14.8,13z M12.6,11.4c0.2,0.5,0.4,1.1,0.8,1.5H2.6c0.4-0.4,0.6-1,0.8-1.5H12.6z M8,0.9c0.5,0,0.9,0.3,1,0.8
				C8.7,1.7,8.4,1.6,8,1.6c-0.4,0-0.7,0-1,0.1C7.1,1.3,7.5,0.9,8,0.9z M3.8,8.9V6.7c0-2.3,1.9-4.2,4.2-4.2s4.2,1.9,4.2,4.2v2.2
				c0,0.1,0,0.8,0.2,1.6H3.6C3.8,9.7,3.8,9,3.8,8.9z M8,15c-0.7,0-1.3-0.5-1.5-1.1h2.9C9.3,14.5,8.7,15,8,15z"/>
			<path class="st0" d="M8,3.1c-1.9,0-3.5,1.6-3.5,3.5c0,0.2,0.2,0.4,0.4,0.4c0.2,0,0.4-0.2,0.4-0.4C5.4,5.2,6.6,4,8,4
				c0.2,0,0.4-0.2,0.4-0.4C8.4,3.3,8.2,3.1,8,3.1z"/>
		</g>
	</g>
</g>
</svg>
