<svg xmlns="http://www.w3.org/2000/svg" viewBox="0 0 31.85 20.79"><defs><style>.cls-1{fill:#52acd3;}</style></defs><title>icon_trace_b</title><g id="圖層_2" data-name="圖層 2"><g id="footer"><path class="cls-1" d="M.33,0a.37.37,0,0,0-.2.65L9.64,9.43v8a.37.37,0,0,0,.6.29L13.61,15l3.88,5.54a.37.37,0,1,0,.6-.42L14,14.33a.37.37,0,0,0-.07-.09L10.58,9.42,30.5,1.17,18.76,18.3a.37.37,0,0,0,.57.47l0,0L31.78.58a.37.37,0,0,0-.3-.58H3.31a.37.37,0,0,0,0,.74H29.61L10.09,8.82.64.1A.37.37,0,0,0,.33,0ZM10.38,10.43l2.8,4-2.8,2.22Z"/></g></g></svg>