<?xml version="1.0" encoding="utf-8"?>
<!-- Generator: Adobe Illustrator 21.0.0, SVG Export Plug-In . SVG Version: 6.00 Build 0)  -->
<svg version="1.1" id="图层_1" xmlns="http://www.w3.org/2000/svg" xmlns:xlink="http://www.w3.org/1999/xlink" x="0px" y="0px"
	 width="24px" height="24px" viewBox="0 0 24 24" style="enable-background:new 0 0 24 24;" xml:space="preserve">
<style type="text/css">
	.st0{fill:#ACACAC;stroke:#ACACAC;stroke-width:0.25;stroke-miterlimit:10;}
</style>
<title>icon_hourglass</title>
<path class="st0" d="M18.7,4.7V4.2h0.8c0.2,0,0.4-0.2,0.4-0.4V1.7c0-0.2-0.2-0.4-0.4-0.4H4.4C4.2,1.3,4,1.5,4,1.7v2.1
	c0,0.2,0.2,0.4,0.4,0.4h0.8v0.5c0,2.1,1.1,4.1,2.9,5.3l3.1,2l-3.1,2c-1.8,1.1-2.9,3.1-2.9,5.3v0.5H4.4c-0.2,0-0.4,0.2-0.4,0.4v2.1
	c0,0.2,0.2,0.4,0.4,0.4h15.2c0.2,0,0.4-0.2,0.4-0.4v-2.1c0-0.2-0.2-0.4-0.4-0.4h-0.8v-0.5c0-2.1-1.1-4.1-2.9-5.3l-3.1-2l3.1-2
	C17.6,8.8,18.7,6.9,18.7,4.7z M4.8,3.4V2.1h14.4v1.4H4.8z M19.2,20.5v1.4H4.8v-1.4H19.2z M15.4,14.6c1.6,1,2.5,2.7,2.5,4.6v0.5H6.1
	v-0.5c0-1.9,1-3.6,2.5-4.6l3.4-2.2L15.4,14.6z M12,11.5L8.6,9.3C7,8.3,6,6.6,6,4.7V4.2h11.9v0.5c0,1.9-1,3.6-2.5,4.6L12,11.5z"/>
<path class="st0" d="M9.2,16.6c-1.1,0.7-1.8,0.8-2,2.1h9.7c-0.2-1.3-0.9-1.4-2-2.1L12,14.7L9.2,16.6z"/>
<path class="st0" d="M12,10.2c3.1-2,2.9-1.8,3.1-2H8.9C9.1,8.4,8.9,8.2,12,10.2z"/>
</svg>
