<svg xmlns="http://www.w3.org/2000/svg" viewBox="0 0 31.41 31.28"><defs><style>.cls-1{fill:#52acd3;}</style></defs><title>icon_coin_b</title><g id="圖層_2" data-name="圖層 2"><g id="footer"><path class="cls-1" d="M26.37,23.29a13.08,13.08,0,0,0,2.45-7.62,13.07,13.07,0,0,0-3.78-9.38,12.94,12.94,0,0,0-9.32-3.9,13.15,13.15,0,1,0,0,26.31,14.19,14.19,0,0,0,3.65-.5l-.25-1.26a12.7,12.7,0,0,1-3.4.5A11.83,11.83,0,1,1,27.51,15.61a11.73,11.73,0,0,1-2.27,7Z"/><path class="cls-1" d="M26.88,4.59A15.66,15.66,0,0,0,15.74,0a15.5,15.5,0,0,0-4.22.57l.25,1.2a14.47,14.47,0,1,1,4,28.39A14.55,14.55,0,0,1,3.9,7.24L2.83,6.61a15.29,15.29,0,0,0-2.83,9,15.7,15.7,0,0,0,31.41,0A15.53,15.53,0,0,0,26.88,4.59Z"/><path class="cls-1" d="M20.43,18.14c0-2.12-3-2.62-4.24-2.74V9.91c2.62.37,2.93,3.37,2.93,3.49l.62-.06.62-.06c-.12-1.56-1.25-4.37-4.24-4.68V6.79H14.88V8.6a5.92,5.92,0,0,0-3.31,1.62,3.68,3.68,0,0,0-.87,3.12c.31,2.31,2.87,2.93,4.18,3.12V21C12,20.33,12,18.08,12,18H10.7c0,.06,0,3.56,4.18,4.3v2.25h1.25V22.45a4.72,4.72,0,0,0,2.93-1.06A4.11,4.11,0,0,0,20.43,18.14ZM12,13.28a2.53,2.53,0,0,1,.56-2.12A4.1,4.1,0,0,1,14.95,10v5.3C13.95,15.09,12.2,14.59,12,13.28Zm4.24,7.92V16.65c1.19.12,2.93.56,2.93,1.5a3.1,3.1,0,0,1-.87,2.31A3.61,3.61,0,0,1,16.26,21.2Z"/><circle class="cls-1" cx="15.51" cy="6.81" r="0.62"/><circle class="cls-1" cx="15.51" cy="24.5" r="0.62"/><circle class="cls-1" cx="11.33" cy="17.95" r="0.63" transform="translate(-8.74 24.87) rotate(-76.78)"/><circle class="cls-1" cx="19.74" cy="13.32" r="0.63" transform="translate(2.27 29.49) rotate(-76.78)"/></g></g></svg>