<svg xmlns="http://www.w3.org/2000/svg" viewBox="0 0 18.54 18.73"><defs><style>.cls-1{fill:#fff;}</style></defs><title>icon_wallet</title><g id="圖層_2" data-name="圖層 2"><g id="footer"><path class="cls-1" d="M18.54,8.73h-.9V4.59a1.8,1.8,0,0,0-1.8-1.8H14.63L13.38.55A1.08,1.08,0,0,0,11.92.14L7.14,2.79H1.8A1.8,1.8,0,0,0,0,4.59V16.93a1.8,1.8,0,0,0,1.8,1.8h14a1.8,1.8,0,0,0,1.8-1.8V13.31h.9Zm-2.7-5.21a1.08,1.08,0,0,1,1.07,1H15.56l-.53-1ZM12.27.76a.37.37,0,0,1,.49.14l2,3.57H5.6Zm4.66,16.17A1.08,1.08,0,0,1,15.85,18H1.8A1.08,1.08,0,0,1,.72,16.93V4.59A1.08,1.08,0,0,1,1.8,3.51h4l-1.72,1H2a.36.36,0,1,0,0,.72h14.9V8.73H14.3a2.22,2.22,0,0,0-2.21,2.21v.15a2.22,2.22,0,0,0,2.21,2.21h2.63Zm.9-4.34H14.3a1.5,1.5,0,0,1-1.5-1.5v-.15a1.5,1.5,0,0,1,1.5-1.5h3.53ZM15.4,11a.79.79,0,1,1-.79-.79.79.79,0,0,1,.79.79Zm0,0"/></g></g></svg>