<?xml version="1.0" encoding="utf-8"?>
<!-- Generator: Adobe Illustrator 21.1.0, SVG Export Plug-In . SVG Version: 6.00 Build 0)  -->
<svg version="1.1" id="圖層_1" xmlns="http://www.w3.org/2000/svg" xmlns:xlink="http://www.w3.org/1999/xlink" x="0px" y="0px"
	 width="32px" height="32px" viewBox="0 0 32 32" style="enable-background:new 0 0 32 32;" xml:space="preserve">
<style type="text/css">
	.st0{fill:#808080;}
</style>
<title>icon_coin</title>
<g id="圖層_2">
	<g id="footer">
		<path class="st0" d="M26.7,23.7c1.6-2.2,2.4-4.9,2.5-7.6c0-3.5-1.3-6.9-3.8-9.4c-2.4-2.5-5.8-3.9-9.3-3.9
			C8.7,2.8,2.9,8.6,2.9,15.9S8.7,29.1,16,29.1c1.2,0,2.5-0.2,3.6-0.5l-0.2-1.3c-1.1,0.3-2.2,0.5-3.4,0.5C9.5,27.8,4.2,22.5,4.1,16
			S9.4,4.2,15.9,4.1s11.8,5.3,11.9,11.8c0,0,0,0,0,0c0,2.5-0.8,5-2.3,7L26.7,23.7z"/>
		<path class="st0" d="M27.2,4.9c-3-3-7-4.6-11.1-4.6c-1.4,0-2.8,0.2-4.2,0.6l0.2,1.2c7.7-2.2,15.7,2.3,17.9,10S27.7,27.8,20,30
			c-1.3,0.4-2.6,0.5-3.9,0.5C8,30.5,1.5,24,1.5,15.9c0-3,0.9-5.9,2.6-8.3L3.1,7c-1.9,2.6-2.9,5.8-2.8,9c0,8.7,7,15.7,15.7,15.7
			s15.7-7,15.7-15.7C31.7,11.8,30.1,7.9,27.2,4.9z"/>
		<path class="st0" d="M20.7,18.5c0-2.1-3-2.6-4.2-2.7v-5.5c2.6,0.4,2.9,3.4,2.9,3.5l0.6-0.1l0.6-0.1c-0.1-1.6-1.2-4.4-4.2-4.7V7.1
			h-1.2V9c-1.2,0.2-2.4,0.7-3.3,1.6c-0.8,0.8-1.1,2-0.9,3.1c0.3,2.3,2.9,2.9,4.2,3.1v4.5c-2.9-0.7-2.9-2.9-2.9-3H11
			c0,0.1,0,3.6,4.2,4.3v2.2h1.2v-2.1c1.1,0,2.1-0.4,2.9-1.1C20.3,20.9,20.8,19.7,20.7,18.5z M12.3,13.6c-0.1-0.8,0.1-1.5,0.6-2.1
			c0.6-0.6,1.5-1,2.4-1.2v5.3C14.2,15.4,12.5,14.9,12.3,13.6z M16.5,21.6V17c1.2,0.1,2.9,0.6,2.9,1.5c0,0.9-0.3,1.7-0.9,2.3
			C18,21.3,17.3,21.5,16.5,21.6L16.5,21.6z"/>
		<circle class="st0" cx="15.8" cy="7.2" r="0.6"/>
		<circle class="st0" cx="15.8" cy="24.9" r="0.6"/>
		<ellipse transform="matrix(0.2287 -0.9735 0.9735 0.2287 -8.8572 25.4314)" class="st0" cx="11.6" cy="18.3" rx="0.6" ry="0.6"/>
		<ellipse transform="matrix(0.2287 -0.9735 0.9735 0.2287 2.1452 30.0661)" class="st0" cx="20" cy="13.7" rx="0.6" ry="0.6"/>
	</g>
</g>
</svg>
