<?xml version="1.0" encoding="utf-8"?>
<!-- Generator: Adobe Illustrator 21.0.0, SVG Export Plug-In . SVG Version: 6.00 Build 0)  -->
<svg version="1.1" id="图层_1" xmlns="http://www.w3.org/2000/svg" xmlns:xlink="http://www.w3.org/1999/xlink" x="0px" y="0px"
	 width="16px" height="16px" viewBox="0 0 16 16" style="enable-background:new 0 0 16 16;" xml:space="preserve">
<style type="text/css">
	.st0{fill:#52ACD3;stroke:#52ACD3;stroke-width:0.1;stroke-miterlimit:10;}
	.st1{fill:#52ACD3;}
</style>
<title>icon_bet-history</title>
<g id="图层_2">
	<g id="助手選單">
		<g id="Guión">
			<path class="st0" d="M13.3,13.4L15,13l-1.6-6.4V0.9c0-0.5-0.4-0.9-0.9-0.9c0,0,0,0-0.1,0c-0.2,0-0.4,0.1-0.6,0.2
				C11.5,0,11,0,10.7,0.3C10.4,0,9.9,0,9.6,0.3C9.2,0,8.8,0,8.4,0.3C8.1,0,7.6,0,7.3,0.3C6.9,0,6.5,0,6.1,0.3C5.8,0,5.3,0,5,0.3
				C4.6,0,4.2,0,3.8,0.3C3.5,0,3,0,2.7,0.3C2.5,0.1,2.3,0.1,2.1,0.1C1.6,0,1.2,0.4,1.2,0.9c0,0,0,0,0,0.1l0,0v13.7h1.7l0.3,1.2
				l5-1.2h5.2V13.4z M14.2,12.5l-0.9,0.2V9.4L14.2,12.5z M3.7,15l-0.1-0.4h1.7L3.7,15z M12.7,14H1.9v-13l0,0c0-0.1,0.1-0.2,0.2-0.2
				c0,0,0,0,0,0c0.1,0,0.2,0.1,0.2,0.2c0,0,0,0,0,0H3c0-0.1,0.1-0.2,0.2-0.2c0.1,0,0.2,0.1,0.2,0.2h0.7c0-0.1,0.1-0.2,0.2-0.2
				c0.1,0,0.2,0.1,0.2,0.2h0.7c0-0.1,0.1-0.2,0.2-0.2c0.1,0,0.2,0.1,0.2,0.2h0.7c0-0.1,0.1-0.2,0.2-0.2c0.1,0,0.2,0.1,0.2,0.2h0.7
				c0-0.1,0.1-0.2,0.2-0.2c0.1,0,0.2,0.1,0.2,0.2h0.7c0-0.1,0.1-0.2,0.2-0.2c0.1,0,0.2,0.1,0.2,0.2h0.7c0-0.1,0.1-0.2,0.2-0.2
				c0.1,0,0.2,0.1,0.2,0.2h0.7c0-0.1,0.1-0.2,0.2-0.2c0.1,0,0.2,0.1,0.2,0.2h0.7c0-0.1,0.1-0.2,0.2-0.2c0.1,0,0.2,0.1,0.2,0.2
				L12.7,14L12.7,14z"/>
			<rect x="6.1" y="2.9" class="st1" width="2.2" height="0.6"/>
			<rect x="3" y="5.9" class="st1" width="8.6" height="0.6"/>
			<rect x="3" y="7.6" class="st1" width="8.6" height="0.6"/>
			<rect x="3" y="10.6" class="st1" width="8.6" height="0.6"/>
			<rect x="3" y="5.1" class="st1" width="0.6" height="0.6"/>
			<rect x="3" y="9.7" class="st1" width="8.6" height="0.6"/>
			<rect x="3" y="8.8" class="st1" width="0.6" height="0.6"/>
			<rect x="3" y="12.3" class="st1" width="8.6" height="0.6"/>
			<rect x="3" y="11.4" class="st1" width="0.6" height="0.6"/>
		</g>
	</g>
</g>
</svg>
