<svg xmlns="http://www.w3.org/2000/svg" viewBox="0 0 44.61 44.61"><defs><style>.cls-1{fill:none;stroke:#52acd3;stroke-miterlimit:10;stroke-width:1.61px;}.cls-2{fill:#52acd3;}</style></defs><title>icon_count</title><g id="圖層_2" data-name="圖層 2"><g id="_2_號碼統計" data-name="2_號碼統計"><circle class="cls-1" cx="22.31" cy="22.31" r="21.5"/><path class="cls-2" d="M31.06,30.4H14.22V13.55a.67.67,0,0,0-1.33,0V31.06a.66.66,0,0,0,.67.67H31.06a.67.67,0,0,0,0-1.33Z"/><path class="cls-2" d="M20.66,27.83V18.26a.67.67,0,1,0-1.33,0v9.58a.67.67,0,1,0,1.33,0Z"/><path class="cls-2" d="M17.45,27.83V18.26a.67.67,0,0,0-1.33,0v9.58a.67.67,0,0,0,1.33,0Z"/><path class="cls-2" d="M27.09,27.83V18.26a.67.67,0,1,0-1.33,0v9.58a.67.67,0,1,0,1.33,0Z"/><path class="cls-2" d="M30.3,27.83V23A.67.67,0,0,0,29,23v4.79a.67.67,0,0,0,1.33,0Z"/><path class="cls-2" d="M23.87,27.83V23a.67.67,0,0,0-1.33,0v4.79a.67.67,0,0,0,1.33,0Z"/></g></g></svg>