<?xml version="1.0" encoding="utf-8"?>
<!-- Generator: Adobe Illustrator 21.1.0, SVG Export Plug-In . SVG Version: 6.00 Build 0)  -->
<svg version="1.1" id="图层_1" xmlns="http://www.w3.org/2000/svg" xmlns:xlink="http://www.w3.org/1999/xlink" x="0px" y="0px"
	 width="16px" height="16px" viewBox="0 0 16 16" style="enable-background:new 0 0 16 16;" xml:space="preserve">
<style type="text/css">
	.st0{fill:#484848;}
</style>
<title>icon_conut</title>
<g id="图层_2">
	<g id="助手選單">
		<path class="st0" d="M15.4,14.7H1.2v-14c0-0.3-0.2-0.5-0.5-0.5c-0.4,0-0.6,0.2-0.6,0.5l0,0v14.6c0,0.3,0.2,0.5,0.5,0.5l0,0h14.8
			c0.3-0.1,0.5-0.3,0.4-0.6C15.8,15,15.6,14.8,15.4,14.7L15.4,14.7z"/>
		<path class="st0" d="M6.7,12.5V4.6C6.8,4.3,6.6,4.1,6.2,4C5.9,3.9,5.6,4.1,5.6,4.4c0,0.1,0,0.1,0,0.2v8c0.1,0.3,0.3,0.5,0.7,0.4
			C6.5,12.9,6.6,12.8,6.7,12.5z"/>
		<path class="st0" d="M4,12.5V4.6C3.8,4.3,3.5,4.1,3.3,4.2c-0.2,0-0.4,0.2-0.4,0.4v8C3,12.9,3.2,13.2,3.5,13
			C3.7,12.9,3.8,12.8,4,12.5z"/>
		<path class="st0" d="M12,12.5V4.6c0.1-0.3-0.1-0.5-0.4-0.6c-0.3-0.1-0.5,0.1-0.7,0.4c0,0.1,0,0.1,0,0.2v8c0.1,0.3,0.3,0.5,0.7,0.4
			C11.8,12.9,11.9,12.8,12,12.5z"/>
		<path class="st0" d="M14.7,12.5V8.6c-0.1-0.3-0.3-0.5-0.7-0.4c-0.2,0-0.4,0.2-0.4,0.4v4c0.1,0.3,0.3,0.5,0.7,0.4
			C14.6,12.9,14.7,12.8,14.7,12.5z"/>
		<path class="st0" d="M9.3,12.5V8.6c0-0.3-0.3-0.5-0.7-0.4c-0.2,0-0.4,0.2-0.4,0.4v4c0.1,0.3,0.3,0.5,0.7,0.4
			C9.1,12.9,9.3,12.8,9.3,12.5z"/>
	</g>
</g>
</svg>
