<?xml version="1.0" encoding="utf-8"?>
<!-- Generator: Adobe Illustrator 21.1.0, SVG Export Plug-In . SVG Version: 6.00 Build 0)  -->
<svg version="1.1" id="圖層_1" xmlns="http://www.w3.org/2000/svg" xmlns:xlink="http://www.w3.org/1999/xlink" x="0px" y="0px"
	 width="18.8px" height="20.8px" viewBox="0 0 18.8 20.8" style="enable-background:new 0 0 18.8 20.8;" xml:space="preserve">
<style type="text/css">
	.st0{fill:#FFFFFF;}
</style>
<title>icon_help</title>
<g>
	<g id="Layer_1_1_">
		<g>
			<path class="st0" d="M9.4,3.2C5.9,3.2,3.1,6,3.1,9.3c0,2.2,0.9,3.5,1.5,4.4c0.4,0.6,0.6,0.9,0.6,1.3c0,0.8,0.4,1.5,1.2,2.1
				c0,0.5,0.1,1.6,0.1,1.6v0c0,0.3,0.2,1,1.3,1.4c0.1,0.2,0.3,0.4,0.5,0.5c0.1,0.1,0.3,0.1,0.4,0.1H10c0.2,0,0.3,0,0.4-0.1
				c0.2-0.1,0.4-0.3,0.5-0.5c1.1-0.4,1.3-1.1,1.3-1.4c0,0,0.1-1.1,0.1-1.6c0.8-0.6,1.2-1.3,1.2-2.1c0-0.4,0.2-0.7,0.6-1.3
				c0.6-0.9,1.5-2.2,1.5-4.4C15.7,6,12.9,3.2,9.4,3.2z M13.3,12.9c-0.5,0.7-0.9,1.3-0.9,2.2c0,0.4-0.8,1.1-1,1.3H7.4
				c-0.3-0.2-1-0.9-1-1.3c0-0.9-0.4-1.5-0.9-2.2C4.9,12,4.2,11,4.2,9.3c0-2.5,1.7-4.9,5.2-4.9c3.5,0,5.2,2.5,5.2,4.9
				C14.5,11,13.9,12,13.3,12.9z"/>
			<path class="st0" d="M9.4,2c0.2,0,0.4-0.2,0.4-0.4V0.4C9.8,0.2,9.6,0,9.4,0C9.2,0,9,0.2,9,0.4v1.2C9,1.9,9.2,2,9.4,2z"/>
			<path class="st0" d="M5.1,2.9C5.2,3,5.3,3.1,5.5,3.1c0.1,0,0.1,0,0.2-0.1c0.2-0.1,0.3-0.4,0.1-0.5l-0.6-1
				C5.1,1.3,4.9,1.2,4.7,1.3C4.5,1.4,4.4,1.7,4.5,1.9L5.1,2.9z"/>
			<path class="st0" d="M2.8,5.2l-1-0.6c-0.2-0.1-0.4,0-0.5,0.1c-0.1,0.2,0,0.4,0.1,0.5l1,0.6c0.1,0,0.1,0.1,0.2,0.1
				c0.1,0,0.3-0.1,0.3-0.2C3.1,5.5,3,5.3,2.8,5.2z"/>
			<path class="st0" d="M2,9.4C2,9.2,1.8,9,1.6,9H0.4C0.2,9,0,9.2,0,9.4c0,0.2,0.2,0.4,0.4,0.4h1.2C1.8,9.8,2,9.6,2,9.4z"/>
			<path class="st0" d="M2.4,13l-1,0.6c-0.2,0.1-0.3,0.4-0.1,0.5c0.1,0.1,0.2,0.2,0.3,0.2c0.1,0,0.1,0,0.2-0.1l1-0.6
				C3,13.6,3.1,13.3,3,13.1C2.9,12.9,2.6,12.9,2.4,13z"/>
			<path class="st0" d="M17.4,13.6l-1-0.6c-0.2-0.1-0.4,0-0.5,0.1c-0.1,0.2,0,0.4,0.1,0.5l1,0.6c0.1,0,0.1,0.1,0.2,0.1
				c0.1,0,0.3-0.1,0.3-0.2C17.6,13.9,17.5,13.7,17.4,13.6z"/>
			<path class="st0" d="M18.4,9l-1.2,0l0,0c-0.2,0-0.4,0.2-0.4,0.4c0,0.2,0.2,0.4,0.4,0.4l1.2,0l0,0c0.2,0,0.4-0.2,0.4-0.4
				C18.8,9.2,18.6,9,18.4,9z"/>
			<path class="st0" d="M16.1,5.9c0.1,0,0.1,0,0.2-0.1l1-0.6c0.2-0.1,0.3-0.4,0.1-0.5c-0.1-0.2-0.4-0.3-0.5-0.1l-1,0.6
				c-0.2,0.1-0.3,0.4-0.1,0.5C15.8,5.9,16,5.9,16.1,5.9z"/>
			<path class="st0" d="M13.1,3c0.1,0,0.1,0.1,0.2,0.1c0.1,0,0.3-0.1,0.3-0.2l0.6-1c0.1-0.2,0-0.4-0.1-0.5c-0.2-0.1-0.4,0-0.5,0.1
				l-0.6,1C12.8,2.7,12.9,2.9,13.1,3z"/>
			<path class="st0" d="M8.9,11.8c0,0.4,0.2,0.5,0.5,0.5c0.3,0,0.4-0.1,0.5-0.5L10.1,9c0-0.2,0-0.4,0-0.6V7c0-0.6-0.3-0.9-0.8-0.9
				C8.8,6.1,8.5,6.4,8.5,7v1.4c0,0.2,0,0.4,0,0.6L8.9,11.8z"/>
			<path class="st0" d="M9.4,13.4c-0.3,0-0.6,0.3-0.6,0.6s0.3,0.6,0.6,0.6s0.6-0.3,0.6-0.6C10,13.7,9.7,13.4,9.4,13.4z"/>
		</g>
	</g>
</g>
</svg>
