<?xml version="1.0" encoding="utf-8"?>
<!-- Generator: Adobe Illustrator 21.0.0, SVG Export Plug-In . SVG Version: 6.00 Build 0)  -->
<svg version="1.1" id="图层_1" xmlns="http://www.w3.org/2000/svg" xmlns:xlink="http://www.w3.org/1999/xlink" x="0px" y="0px"
	 width="40.9px" height="40.9px" viewBox="0 0 40.9 40.9" style="enable-background:new 0 0 40.9 40.9;" xml:space="preserve">
<style type="text/css">
	.st0{fill:#FEFEFE;}
</style>
<title>icon_add</title>
<g id="图层_2">
	<g id="other">
		<path class="st0" d="M20.4,4.3c8.9,0,16.1,7.2,16.1,16.1s-7.2,16.1-16.1,16.1S4.3,29.3,4.3,20.4c0,0,0,0,0,0
			C4.4,11.6,11.6,4.4,20.4,4.3 M20.4,0C9.2,0,0,9.1,0,20.4s9.1,20.4,20.4,20.4s20.4-9.1,20.4-20.4l0,0C40.9,9.1,31.7,0,20.4,0z"/>
		<polygon class="st0" points="28.1,18.3 12.8,18.3 12.8,22.6 28.1,22.6 28.1,18.3 		"/>
		<polygon class="st0" points="22.6,12.8 18.3,12.8 18.3,28.1 22.6,28.1 22.6,12.8 		"/>
	</g>
</g>
</svg>
