<?xml version="1.0" encoding="utf-8"?>
<!-- Generator: Adobe Illustrator 21.0.0, SVG Export Plug-In . SVG Version: 6.00 Build 0)  -->
<svg version="1.1" id="图层_1" xmlns="http://www.w3.org/2000/svg" xmlns:xlink="http://www.w3.org/1999/xlink" x="0px" y="0px"
	 width="24px" height="24px" viewBox="0 0 24 24" style="enable-background:new 0 0 24 24;" xml:space="preserve">
<style type="text/css">
	.st0{fill:#ACACAC;}
	.st1{enable-background:new    ;}
</style>
<title>icon_money</title>
<g id="單式">
	<path class="st0" d="M20.8,13.6c-0.6-1.4-1.5-2.8-2.5-4c-0.9-1.1-2-2.1-3.2-3L17.5,2c0.1-0.2,0.1-0.5-0.1-0.7
		c-0.5-0.6-1.3-0.9-2.1-0.9c-0.6,0-1.3,0.2-1.9,0.5c-0.4,0.2-0.8,0.3-1.2,0.4c-0.1,0-0.2,0-0.3,0c-0.9-0.4-1.9-0.6-2.9-0.7
		C8.1,0.6,7,1.1,6.3,1.9C6.1,2.1,6.1,2.4,6.2,2.7l2.6,4c-1.2,0.9-2.2,1.9-3.1,3c-1,1.2-1.9,2.6-2.5,4c-0.7,1.7-1.1,3.6-1.1,5.4
		c0,2.5,2,4.5,4.5,4.5h10.9c2.5,0,4.5-2,4.5-4.5C21.9,17.2,21.5,15.3,20.8,13.6z M7.5,2.3c0.5-0.4,1.1-0.7,1.7-0.7
		c0.9,0.1,1.7,0.3,2.5,0.6c0.2,0.1,0.4,0.1,0.7,0.1c0.6,0,1.1-0.2,1.6-0.4c0.4-0.2,0.9-0.4,1.4-0.4c0.3,0,0.7,0.1,0.9,0.3L14,6.1h-4
		L7.5,2.3z M17.5,22.3H6.5c-1.8,0-3.3-1.5-3.3-3.3l0,0c0-3.2,1.2-6.3,3.4-8.7c1-1.2,2.1-2.2,3.3-3.1h4.3c1.2,0.9,2.3,1.9,3.3,3.1
		c2.1,2.4,3.3,5.5,3.3,8.7C20.8,20.8,19.3,22.3,17.5,22.3C17.5,22.3,17.5,22.3,17.5,22.3L17.5,22.3z"/>
	<g class="st1">
		<path class="st0" d="M10.1,17.3h1.2v-0.7h-1.2c-0.5,0-0.7-0.2-0.7-0.5c0-0.3,0.2-0.5,0.7-0.5h0.7l-1.5-2.4C9.1,13,9,12.9,9,12.8
			c0-0.1-0.1-0.2-0.1-0.3c0-0.2,0.1-0.3,0.2-0.4c0.1-0.1,0.2-0.2,0.4-0.2c0.2,0,0.3,0.1,0.4,0.2c0.1,0.1,0.2,0.3,0.4,0.5l1.7,2.6
			l1.5-2.5c0.1-0.1,0.1-0.2,0.2-0.3c0.1-0.1,0.1-0.2,0.2-0.3S14,12,14.1,12c0.1,0,0.2-0.1,0.3-0.1c0.2,0,0.3,0.1,0.4,0.2
			c0.1,0.1,0.2,0.2,0.2,0.4c0,0.1,0,0.2-0.1,0.3s-0.1,0.2-0.2,0.4l-1.5,2.4h0.7c0.5,0,0.7,0.2,0.7,0.5c0,0.3-0.2,0.5-0.7,0.5h-1.2
			v0.7h1.2c0.5,0,0.7,0.2,0.7,0.5c0,0.3-0.2,0.5-0.7,0.5h-1.2v0.4c0,0.7-0.2,1-0.7,1c-0.5,0-0.7-0.3-0.7-1v-0.4h-1.2
			c-0.5,0-0.7-0.2-0.7-0.5C9.4,17.5,9.6,17.3,10.1,17.3z"/>
	</g>
</g>
</svg>
