<?xml version="1.0" encoding="utf-8"?>
<!-- Generator: Adobe Illustrator 21.1.0, SVG Export Plug-In . SVG Version: 6.00 Build 0)  -->
<svg version="1.1" id="图层_1" xmlns="http://www.w3.org/2000/svg" xmlns:xlink="http://www.w3.org/1999/xlink" x="0px" y="0px"
	 width="16px" height="16px" viewBox="0 0 16 16" style="enable-background:new 0 0 16 16;" xml:space="preserve">
<style type="text/css">
	.st0{fill:#484848;}
</style>
<title>icon_bet-history</title>
<g>
	<path class="st0" d="M12.4,10.6H3.9c-0.2,0-0.4,0.2-0.4,0.4s0.2,0.4,0.4,0.4h8.4c0.2,0,0.5-0.2,0.5-0.4S12.6,10.6,12.4,10.6z"/>
	<path class="st0" d="M3.9,13c-0.2,0-0.4,0.2-0.4,0.4c0,0.2,0.2,0.4,0.4,0.4h8.4c0.2,0,0.5-0.2,0.5-0.4c0-0.2-0.2-0.4-0.4-0.4H3.9z"
		/>
	<path class="st0" d="M5.4,6.9L4.9,8.7c0,0.1,0,0.2,0.1,0.3s0.2,0.1,0.3,0.1h0.1l1.9-0.5c0.1,0,0.1,0,0.2-0.1l5.8-5.4L14.5,2
		c0.1-0.1,0.1-0.4,0-0.5l-1.4-1.3c-0.1-0.1-0.2-0.1-0.3-0.1c-0.1,0-0.2,0-0.3,0.1l-1.1,1.1L5.5,6.7C5.5,6.7,5.4,6.8,5.4,6.9z
		 M12.8,0.9l0.9,0.8L13,2.3l-0.9-0.8L12.8,0.9z M6.1,7.2L11.6,2l0.9,0.8L7,8L5.8,8.3L6.1,7.2z"/>
	<path class="st0" d="M14.2,3.7c-0.2,0-0.5,0.2-0.5,0.4V15H2.4V2.2h6.7c0.2,0,0.5-0.2,0.5-0.4c0-0.2-0.2-0.5-0.5-0.5H1.9
		c-0.2,0-0.5,0.2-0.5,0.4v13.8c0,0.3,0.3,0.4,0.5,0.4h12.3c0.2,0,0.5-0.2,0.5-0.4V4.2C14.7,3.9,14.5,3.7,14.2,3.7z"/>
</g>
</svg>
