<?xml version="1.0" encoding="utf-8"?>
<!-- Generator: Adobe Illustrator 21.0.0, SVG Export Plug-In . SVG Version: 6.00 Build 0)  -->
<svg version="1.1" id="图层_1" xmlns="http://www.w3.org/2000/svg" xmlns:xlink="http://www.w3.org/1999/xlink" x="0px" y="0px"
	 width="16px" height="16px" viewBox="0 0 16 16" style="enable-background:new 0 0 16 16;" xml:space="preserve">
<style type="text/css">
	.st0{fill:none;stroke:#E2E2E2;stroke-miterlimit:10;}
	.st1{fill:#E2E2E2;stroke:#E2E2E2;stroke-width:0.5;stroke-miterlimit:10;}
</style>
<title>icon_del</title>
<g id="图层_2">
	<g id="選單">
		<circle class="st0" cx="8" cy="8" r="7"/>
		<path class="st1" d="M5.1,5.5C5,5.4,5,5.2,5.1,5.1s0.3-0.1,0.4,0L8,7.6l2.5-2.5c0.1-0.1,0.3-0.1,0.4,0c0.1,0.1,0.1,0.3,0,0.4
			L8.4,8l2.5,2.5c0.1,0.1,0.1,0.3,0,0.4c-0.1,0.1-0.3,0.1-0.4,0l0,0L8,8.4l-2.5,2.5c-0.1,0.1-0.3,0.1-0.4,0s-0.1-0.3,0-0.4l0,0
			L7.6,8L5.1,5.5z"/>
	</g>
</g>
</svg>
