<?xml version="1.0" encoding="utf-8"?>
<!-- Generator: Adobe Illustrator 21.0.0, SVG Export Plug-In . SVG Version: 6.00 Build 0)  -->
<svg version="1.1" id="图层_1" xmlns="http://www.w3.org/2000/svg" xmlns:xlink="http://www.w3.org/1999/xlink" x="0px" y="0px"
	 width="24px" height="24px" viewBox="0 0 24 24" style="enable-background:new 0 0 24 24;" xml:space="preserve">
<style type="text/css">
	.st0{fill:#ACACAC;stroke:#ACACAC;stroke-width:0.4;stroke-miterlimit:10;}
</style>
<title>icon_ticket</title>
<path class="st0" d="M20,7.1l-0.2,0.2c-0.3,0.4-0.8,0.6-1.3,0.5c-1.2,0-2.2-1-2.2-2.2l0,0c0-0.5,0.2-1,0.5-1.3L17,4.1l-2-2
	c-0.2-0.2-0.4-0.2-0.6,0c0,0,0,0,0,0L2.1,14.2c-0.2,0.2-0.2,0.4,0,0.6c0,0,0,0,0,0l2,2l0.2-0.2c0.3-0.4,0.8-0.6,1.4-0.5
	c1.2,0,2.2,1,2.3,2.2c0,0,0,0.1,0,0.1c0,0.5-0.2,1-0.5,1.4l-0.2,0.2l2,2c0.2,0.2,0.4,0.2,0.6,0c0,0,0,0,0,0L22.1,9.8
	c0.2-0.2,0.2-0.4,0-0.6c0,0,0,0,0,0L20,7.1z M8.1,19.9c0.4-0.4,0.6-1,0.5-1.6c0-1.6-1.3-2.9-2.8-2.9c0,0,0,0,0,0
	c-0.6,0-1.1,0.1-1.6,0.5l-1.3-1.3c-0.1-0.1-0.1-0.3,0-0.4L10.2,7l1,1l0.5-0.4l-1-1l3.8-3.8c0.1-0.1,0.3-0.1,0.4,0c0,0,0,0,0,0
	L16.1,4c-0.4,0.4-0.6,1-0.5,1.6c0,1.6,1.3,2.9,2.8,2.9c0,0,0,0,0,0C19,8.5,19.6,8.3,20,8l1.3,1.3c0.1,0.1,0.1,0.3,0,0.4c0,0,0,0,0,0
	l-3.8,3.8l-1-1L16,12.9l1,1l-7.3,7.3c-0.1,0.1-0.3,0.1-0.4,0c0,0,0,0,0,0L8.1,19.9z"/>
<path class="st0" d="M13.1,10l-1.3-1.3l0.5-0.4l1.3,1.3L13.1,10z"/>
<path class="st0" d="M15.4,12.2l-1.3-1.3l0.5-0.4l1.3,1.3L15.4,12.2z"/>
</svg>
