<svg xmlns="http://www.w3.org/2000/svg" xmlns:xlink="http://www.w3.org/1999/xlink" viewBox="0 0 5.12 5.12"><defs><style>.cls-1{fill:url(#未命名漸層_22);}.cls-2{fill:#898989;opacity:0.15;}.cls-3{fill:url(#未命名漸層_22-2);}</style><linearGradient id="未命名漸層_22" x1="2.56" y1="5.12" x2="2.56" gradientUnits="userSpaceOnUse"><stop offset="0" stop-opacity="0"/><stop offset="0.9" stop-opacity="0.1"/><stop offset="1" stop-opacity="0.2"/></linearGradient><linearGradient id="未命名漸層_22-2" x1="2.56" y1="4.69" x2="2.56" y2="0.43" xlink:href="#未命名漸層_22"/></defs><title>icon_liststyle</title><g id="圖層_2" data-name="圖層 2"><g id="圖層_1-2" data-name="圖層 1"><path class="cls-1" d="M2.56.43A2.13,2.13,0,1,1,.43,2.56,2.13,2.13,0,0,1,2.56.43m0-.43A2.56,2.56,0,1,0,5.12,2.56,2.56,2.56,0,0,0,2.56,0Z"/><circle class="cls-2" cx="2.56" cy="2.56" r="2.13"/><path class="cls-3" d="M2.56.73A1.83,1.83,0,1,1,.73,2.56,1.84,1.84,0,0,1,2.56.73m0-.3A2.13,2.13,0,1,0,4.69,2.56,2.13,2.13,0,0,0,2.56.43Z"/></g></g></svg>