<?xml version="1.0" encoding="utf-8"?>
<!-- Generator: Adobe Illustrator 21.1.0, SVG Export Plug-In . SVG Version: 6.00 Build 0)  -->
<svg version="1.1" id="图层_1" xmlns="http://www.w3.org/2000/svg" xmlns:xlink="http://www.w3.org/1999/xlink" x="0px" y="0px"
	 width="16px" height="16px" viewBox="0 0 16 16" style="enable-background:new 0 0 16 16;" xml:space="preserve">
<style type="text/css">
	.st0{fill:#484848;}
</style>
<title>icon_info</title>
<g id="图层_2">
	<g id="助手選單">
		<path class="st0" d="M8,15.8c4.3,0,7.8-3.5,7.8-7.8S12.3,0.2,8,0.2S0.2,3.7,0.2,8S3.7,15.8,8,15.8L8,15.8z M8,1.2
			c3.8,0,6.8,3,6.7,6.8s-3,6.8-6.8,6.7c-3.8,0-6.7-3-6.8-6.8C1.2,4.2,4.2,1.2,8,1.2L8,1.2z"/>
		<path class="st0" d="M6.7,11.4c-0.3,0.1-0.4,0.4-0.4,0.6s0.2,0.3,0.4,0.4h3.6c0.3-0.1,0.4-0.4,0.4-0.6s-0.2-0.3-0.4-0.4H9.1V6.6
			c0-0.3-0.2-0.5-0.5-0.5l0,0H6.7C6.4,6.2,6.3,6.5,6.3,6.7S6.5,7,6.7,7.1H8v4.3H6.7z"/>
		<circle class="st0" cx="7.8" cy="4.2" r="0.9"/>
	</g>
</g>
</svg>
