<?xml version="1.0" encoding="utf-8"?>
<!-- Generator: Adobe Illustrator 21.0.0, SVG Export Plug-In . SVG Version: 6.00 Build 0)  -->
<svg version="1.1" id="图层_1" xmlns="http://www.w3.org/2000/svg" xmlns:xlink="http://www.w3.org/1999/xlink" x="0px" y="0px"
	 width="16px" height="16px" viewBox="0 0 16 16" style="enable-background:new 0 0 16 16;" xml:space="preserve">
<style type="text/css">
	.st0{fill:#FFFFFF;}
</style>
<path class="st0" d="M15.7,7.7H15V4.3c0-0.8-0.7-1.5-1.5-1.5h-1l-1-1.8c-0.2-0.3-0.5-0.5-0.8-0.5c-0.2,0-0.3,0-0.4,0.1L6.4,2.8H2
	c-0.8,0-1.5,0.7-1.5,1.5v10.1c0,0.8,0.7,1.5,1.5,1.5h11.5c0.8,0,1.5-0.7,1.5-1.5v-3h0.7V7.7z M13.5,3.4c0.5,0,0.8,0.3,0.9,0.8h-1.1
	l-0.4-0.8H13.5z M10.6,1.1c0.1-0.1,0.3,0,0.4,0.1l1.6,2.9H5.1L10.6,1.1z M14.4,14.4c0,0.5-0.4,0.9-0.9,0.9H2c-0.5,0-0.9-0.4-0.9-0.9
	V4.3c0-0.5,0.4-0.9,0.9-0.9h3.3L3.9,4.2H2.2C2,4.2,1.9,4.3,1.9,4.5c0,0.2,0.1,0.3,0.3,0.3h12.3v2.9h-2.2c-1,0-1.8,0.8-1.8,1.8v0.1
	c0,1,0.8,1.8,1.8,1.8h2.2V14.4z M15.2,10.8h-2.9c-0.7,0-1.2-0.6-1.2-1.2V9.5c0-0.7,0.6-1.2,1.2-1.2h2.9V10.8z M13.2,9.6
	c0,0.4-0.3,0.7-0.7,0.7c-0.4,0-0.7-0.3-0.7-0.7c0-0.4,0.3-0.7,0.7-0.7C12.9,8.9,13.2,9.2,13.2,9.6L13.2,9.6z M13.2,9.6"/>
</svg>
