<?xml version="1.0" encoding="utf-8"?>
<!-- Generator: Adobe Illustrator 21.0.0, SVG Export Plug-In . SVG Version: 6.00 Build 0)  -->
<svg version="1.1" id="图层_1" xmlns="http://www.w3.org/2000/svg" xmlns:xlink="http://www.w3.org/1999/xlink" x="0px" y="0px"
	 width="16px" height="16px" viewBox="0 0 16 16" style="enable-background:new 0 0 16 16;" xml:space="preserve">
<style type="text/css">
	.st0{fill:#52ACD3;stroke:#52ACD3;stroke-width:0.25;stroke-miterlimit:10;}
</style>
<title>icon_add2</title>
<g id="图层_2">
	<g id="選單">
		<path class="st0" d="M2.4,8.4C2.2,8.4,2,8.2,2,8c0-0.2,0.2-0.4,0.4-0.4c0,0,0,0,0,0h5.1V2.4C7.6,2.2,7.8,2,8,2
			c0.2,0,0.4,0.2,0.4,0.4v5.1h5.1C13.8,7.6,14,7.8,14,8c0,0.2-0.2,0.4-0.4,0.4l0,0H8.4v5.1C8.4,13.8,8.2,14,8,14
			c-0.2,0-0.4-0.2-0.4-0.4l0,0V8.4H2.4z"/>
	</g>
</g>
</svg>
