<?xml version="1.0" encoding="utf-8"?>
<!-- Generator: Adobe Illustrator 21.1.0, SVG Export Plug-In . SVG Version: 6.00 Build 0)  -->
<svg version="1.1" id="logo_x5F_cqssc" xmlns="http://www.w3.org/2000/svg" xmlns:xlink="http://www.w3.org/1999/xlink" x="0px"
	 y="0px" width="49.3px" height="38.9px" viewBox="0 0 49.3 38.9" style="enable-background:new 0 0 49.3 38.9;"
	 xml:space="preserve">
<style type="text/css">
	.st0{fill:#FFFFFF;}
	.st1{fill:none;}
</style>
<title>logo_cqssc</title>
<g>
	<path class="st0" d="M10.8,16.8h-1v3h0.9c0.7,0,1.2-0.1,1.4-0.4c0.3-0.3,0.4-0.6,0.4-1.1c0-0.4-0.1-0.8-0.4-1.1
		C11.9,17,11.5,16.8,10.8,16.8z"/>
	<path class="st0" d="M12.8,10c0.1,0,0.1,0,0.2-0.1c0,0,0.1-0.1,0.1-0.1c0-0.1,0-0.1,0-0.2c0-0.1,0-0.1-0.1-0.2
		c0-0.1-0.1-0.1-0.2-0.1c-0.1,0-0.2,0-0.3,0h-0.5V10h0.5C12.7,10,12.8,10,12.8,10z"/>
	<path class="st0" d="M12.8,9C12.9,9,12.9,9,13,8.9c0,0,0.1-0.1,0.1-0.2c0-0.1,0-0.1-0.1-0.2c0-0.1-0.1-0.1-0.1-0.1s-0.2,0-0.3,0
		h-0.4V9h0.5C12.7,9,12.8,9,12.8,9z"/>
	<path class="st0" d="M42.9,18.2c-0.1-0.5-0.2-0.9-0.5-1.1c-0.2-0.2-0.6-0.3-1-0.3c-0.3,0-0.6,0.1-0.8,0.2c-0.2,0.1-0.4,0.3-0.4,0.6
		c-0.1,0.3-0.2,0.8-0.2,1.4c0,0.6-0.1,1.8-0.1,3.4v0.4c0,1.9,0.1,3.1,0.3,3.6s0.6,0.7,1.2,0.7c0.6,0,1-0.2,1.2-0.7
		c0.2-0.5,0.3-1.7,0.3-3.8v-0.2c0-1.2,0-2.1,0-2.8C43,18.8,42.9,18.4,42.9,18.2z"/>
</g>
<path class="st0" d="M31,6.2H33l0.4-2h1.3l-1.5,8.3h-1.3l0.3-1.7L30,11.3l0.1-0.8l2.2-0.6l0.6-3.3h-2.1L31,6.2z M35.9,4.1h1.3
	l-1.3,7.5c0,0.2,0.1,0.3,0.3,0.3h2.1l-0.1,0.5H35c-0.3,0-0.5-0.3-0.5-0.6L35.9,4.1z M36.5,9c0.6-1.1,1.2-2.3,1.7-3.6h1.3
	c-0.5,1.3-1,2.5-1.7,3.6H36.5z"/>
<path class="st0" d="M40,4.9h3.5l0.1-0.7h1.3l-0.1,0.7h3.5l-0.1,0.5h-8.3L40,4.9z M38.7,12.5c0.5-0.8,1-1.8,1.4-2.8h1.3
	c-0.4,1.1-0.9,2-1.4,2.8H38.7z M40.2,6.7c0.1-0.3,0.4-0.6,0.7-0.6h5.9c0.3,0,0.5,0.3,0.5,0.6L47,8.5C47,8.8,46.7,9,46.3,9H44
	l-0.5,2.8c-0.1,0.3-0.4,0.6-0.7,0.6H41l0.1-0.5h0.7c0.2,0,0.4-0.1,0.4-0.3L42.7,9h-2.3c-0.3,0-0.5-0.3-0.5-0.6L40.2,6.7z M46,6.9
	c0-0.2-0.1-0.3-0.3-0.3h-3.8c-0.2,0-0.4,0.1-0.4,0.3l-0.2,1.3c0,0.2,0.1,0.3,0.3,0.3h3.8c0.2,0,0.4-0.1,0.4-0.3L46,6.9z M45.6,12.5
	c-0.2-0.8-0.4-1.8-0.4-2.8h1.3c0,1.1,0.1,2,0.4,2.8H45.6z"/>
<g>
	<path class="st1" d="M12.1,14.1H6.3v13.6h3.5v-5h1.9c1.4,0,2.5-0.4,3.2-1.2c0.7-0.8,1-1.8,1-3.2c0-1.3-0.3-2.4-1-3.1
		C14.3,14.4,13.4,14.1,12.1,14.1z"/>
	<path class="st1" d="M45,12.3c-0.2-0.8-0.3-1.6-0.3-2.6l0,0h-0.1l-0.3,1.9C44.5,11.8,44.7,12,45,12.3z"/>
	<path class="st1" d="M34.3,16.2h-0.6c-0.1,0-0.1,0-0.2,0c-0.7,0.1-1.3,0.1-1.9,0.2c-0.6,0-1.2,0.1-1.8,0.1l0,0.4h0.9
		c0.5,0,0.8,0,1,0.1c0.1,0.1,0.2,0.2,0.2,0.4v9.4h-2.1v0.5h2.1h4.4v-0.5h-1.9V16.2z"/>
	<path class="st1" d="M42,9.6L42,9.6l-0.1,0.2c0,0,0.1,0,0.1,0L42,9.6z"/>
	<path class="st1" d="M39.4,8.4l0.3-1.8c0-0.2,0.1-0.4,0.3-0.6h-0.2c-0.3,0.9-0.7,1.7-1.1,2.5c0.2,0.1,0.4,0.1,0.7,0.2
		C39.3,8.6,39.3,8.5,39.4,8.4z"/>
	<polygon class="st1" points="28.1,14.1 23.9,14.1 23.4,14.1 19.7,19.2 19.7,14.1 16.2,14.1 16.2,27.6 19.7,27.6 19.7,24.3 21.5,22 
		21.8,22.8 23.9,27.6 28.3,27.6 23.9,19.2 	"/>
	<path class="st1" d="M43.2,16.7c-0.5-0.3-1.1-0.4-1.7-0.4c-0.6,0-1.2,0.1-1.7,0.4c-0.5,0.3-1,0.7-1.4,1.2c-0.4,0.5-0.7,1.1-0.9,1.8
		c-0.2,0.7-0.3,1.4-0.3,2.2c0,0.8,0.1,1.5,0.3,2.2c0.2,0.7,0.6,1.3,1,1.9c0.4,0.5,0.9,0.9,1.4,1.2c0.5,0.3,1.1,0.4,1.6,0.4
		c0.6,0,1.1-0.1,1.6-0.4c0.5-0.3,1-0.7,1.4-1.2c0.4-0.6,0.8-1.2,1-1.8c0.2-0.6,0.3-1.3,0.3-2.1c0-0.8-0.1-1.5-0.3-2.2
		c-0.2-0.7-0.5-1.3-0.9-1.8C44.2,17.4,43.7,16.9,43.2,16.7z"/>
	<polygon class="st1" points="41.9,8 45.2,8 45.3,7.1 42.1,7.1 	"/>
	<path class="st0" d="M41.2,11.4h0.5L42,9.9c0,0-0.1,0-0.1,0l0,0C41.7,10.4,41.5,10.9,41.2,11.4z"/>
	<path class="st0" d="M45,12.6c0-0.1-0.1-0.2-0.1-0.3c-0.2-0.3-0.5-0.5-0.8-0.8L44.1,12C44,12.6,43.5,13,42.9,13h-2.5l0-0.1L40.3,13
		h-2.7l0,0H35c-0.3,0-0.6-0.1-0.8-0.4c-0.2-0.2-0.2-0.4-0.2-0.7l-0.2,1h-2.5l0.3-1.5l-2.2,0.6l0.4-2l2.2-0.6l0.2-1.1
		c-0.7,0.2-1.3,0.4-2,0.6c-3-3.7-7.6-6-12.8-6c-9.1,0-16.5,7.4-16.5,16.5S8.2,36,17.3,36c3.9,0,7.5-1.3,10.3-3.6
		c2.1,1.5,4.7,2.3,7.5,2.3c7.4,0,13.4-6,13.4-13.4c0-3.1-1.1-6-2.9-8.3h-0.4L45,12.6z M14.9,21.4c-0.7,0.8-1.7,1.2-3.2,1.2H9.8v5
		H6.3V14.1h5.9c1.3,0,2.2,0.4,2.9,1.1c0.6,0.7,1,1.7,1,3.1C15.9,19.6,15.6,20.7,14.9,21.4z M23.9,27.6l-2.1-4.9L21.5,22l-1.8,2.3
		v3.3h-3.5V14.1h3.5v5.1l3.7-5.1h0.5h4.2l-4.2,5.1l4.3,8.5H23.9z M36.3,27.3h-4.4h-2.1v-0.5h2.1v-9.4c0-0.2-0.1-0.3-0.2-0.4
		c-0.1-0.1-0.4-0.1-1-0.1h-0.9l0-0.4c0.6,0,1.2,0,1.8-0.1c0.6,0,1.2-0.1,1.9-0.2c0.1,0,0.1,0,0.2,0h0.6v10.6h1.9V27.3z M45.8,21.9
		c0,0.8-0.1,1.5-0.3,2.1c-0.2,0.6-0.5,1.2-1,1.8c-0.4,0.5-0.9,1-1.4,1.2c-0.5,0.3-1.1,0.4-1.6,0.4c-0.6,0-1.1-0.1-1.6-0.4
		c-0.5-0.3-1-0.7-1.4-1.2c-0.4-0.5-0.7-1.1-1-1.9c-0.2-0.7-0.3-1.4-0.3-2.2c0-0.8,0.1-1.5,0.3-2.2c0.2-0.7,0.5-1.3,0.9-1.8
		c0.4-0.6,0.9-1,1.4-1.2c0.5-0.3,1.1-0.4,1.7-0.4c0.6,0,1.2,0.1,1.7,0.4c0.5,0.3,1,0.7,1.4,1.3c0.4,0.5,0.7,1.1,0.9,1.8
		C45.7,20.4,45.8,21.1,45.8,21.9z"/>
	<path class="st0" d="M38.1,9.6h-1.2l-0.3,1.8h2.1c0.3-0.6,0.6-1.2,0.9-1.9l0.1-0.2c-0.1-0.2-0.2-0.4-0.2-0.6
		c-0.2-0.1-0.4-0.1-0.7-0.2c-0.1,0.3-0.3,0.6-0.5,0.8L38.1,9.6z"/>
</g>
</svg>
