<svg xmlns="http://www.w3.org/2000/svg" viewBox="0 0 475 458"><defs><style>.cls-1{fill:#51a9dd;}</style></defs><title>nav</title><g id="圖層_2" data-name="圖層 2"><g id="Layer_1" data-name="Layer 1"><path class="cls-1" d="M437.15,0H37.85C17,0,0,9.61,0,21.5S17,43,37.85,43h399.3C458.05,43,475,33.39,475,21.5S458.05,0,437.15,0Z"/><path class="cls-1" d="M437.15,207.5H37.85C17,207.5,0,217.11,0,229s17,21.5,37.85,21.5h399.3c20.9,0,37.85-9.61,37.85-21.5S458.05,207.5,437.15,207.5Z"/><path class="cls-1" d="M437.15,415H37.85C17,415,0,424.61,0,436.5S17,458,37.85,458h399.3c20.9,0,37.85-9.61,37.85-21.5S458.05,415,437.15,415Z"/></g></g></svg>