<svg xmlns="http://www.w3.org/2000/svg" viewBox="0 0 22.5 39.8"><defs><style>.cls-1{fill:#277ca5;}</style></defs><title>phone</title><g id="圖層_2" data-name="圖層 2"><g id="圖層_1-2" data-name="圖層 1"><path class="cls-1" d="M19.6,0H2.9A2.9,2.9,0,0,0,0,2.9v34a2.9,2.9,0,0,0,2.9,2.9H19.6a2.9,2.9,0,0,0,2.9-2.9V2.9A2.9,2.9,0,0,0,19.6,0ZM1.2,5.3H21.1V30.5H1.2Zm1.6-4H19.5a1.58,1.58,0,0,1,1.6,1.6V4H1.2V2.9A1.64,1.64,0,0,1,2.8,1.3ZM19.6,38.5H2.9a1.58,1.58,0,0,1-1.6-1.6v-5H21.2v5A1.72,1.72,0,0,1,19.6,38.5Z"/><path class="cls-1" d="M11.2,32.5a2.7,2.7,0,1,0,2.7,2.7A2.69,2.69,0,0,0,11.2,32.5Zm0,4a1.3,1.3,0,1,1,1.3-1.3A1.32,1.32,0,0,1,11.2,36.5Z"/><path class="cls-1" d="M8.5,3.3h2.7a.68.68,0,0,0,.7-.7.68.68,0,0,0-.7-.7H8.5a.68.68,0,0,0-.7.7A.75.75,0,0,0,8.5,3.3Z"/><path class="cls-1" d="M13.2,3.3h.7a.68.68,0,0,0,.7-.7.68.68,0,0,0-.7-.7h-.7a.68.68,0,0,0-.7.7A.68.68,0,0,0,13.2,3.3Z"/></g></g></svg>