<svg xmlns="http://www.w3.org/2000/svg" viewBox="0 0 16.99 12.93"><defs><style>.cls-1{fill:#51a9dd;}</style></defs><title>mail</title><g id="圖層_2" data-name="圖層 2"><g id="top"><path class="cls-1" d="M14.91,0H2.08A2.08,2.08,0,0,0,0,2.08v8.77a2.08,2.08,0,0,0,2.08,2.08H14.91A2.08,2.08,0,0,0,17,10.85V2.08A2.08,2.08,0,0,0,14.91,0ZM16,10.85A1.14,1.14,0,0,1,14.91,12H2.08A1.14,1.14,0,0,1,1,10.85V2.08A1.14,1.14,0,0,1,2.08,1H14.91A1.14,1.14,0,0,1,16,2.08v8.77Z"/><path class="cls-1" d="M10.71,6.35l4.16-3.72a.48.48,0,0,0-.64-.71L8.5,7.06l-1.12-1h0L7.3,6,2.75,1.92a.47.47,0,1,0-.63.71l4.2,3.76L2.14,10.31a.47.47,0,0,0,0,.67.5.5,0,0,0,.34.15A.46.46,0,0,0,2.79,11L7,7l1.15,1a.47.47,0,0,0,.32.12.48.48,0,0,0,.31-.13L10,7l4.22,4a.46.46,0,0,0,.33.13A.45.45,0,0,0,14.9,11a.47.47,0,0,0,0-.67Z"/></g></g></svg>