<?xml version="1.0" encoding="utf-8"?>
<!-- Generator: Adobe Illustrator 21.1.0, SVG Export Plug-In . SVG Version: 6.00 Build 0)  -->
<svg version="1.1" id="logo_x5F_cqssc" xmlns="http://www.w3.org/2000/svg" xmlns:xlink="http://www.w3.org/1999/xlink" x="0px"
	 y="0px" width="53px" height="38.9px" viewBox="0 0 53 38.9" style="enable-background:new 0 0 53 38.9;" xml:space="preserve">
<style type="text/css">
	.st0{fill:#FFFFFF;}
</style>
<title>logo_cqssc</title>
<g id="图层_2">
	<g id="top">
		<path class="st0" d="M13.3,33c-0.2,0.1-0.4,0.2-0.6,0.5c-0.2,0.3-0.2,0.6-0.2,0.9c0,0.3,0,0.6,0.2,0.8c0.2,0.1,0.4,0.2,0.6,0.1
			c0.2-0.1,0.4-0.2,0.6-0.5c0.2-0.3,0.2-0.7,0.2-1s0-0.5-0.2-0.7C13.7,32.9,13.4,32.9,13.3,33z"/>
		<polygon class="st0" points="13.5,33.5 12.4,33.9 12.4,37.8 15.3,36.8 15.3,35.8 13.5,36.5 		"/>
		<polygon class="st0" points="19.8,23.2 20.4,21.7 19.4,22 18.8,23.5 		"/>
		<polygon class="st0" points="6.1,23.8 7.1,23.5 7.6,22 6.6,22.3 		"/>
		<path class="st0" d="M29.8,30.5c0.1,0,0.1-0.1,0.2-0.2c0-0.1,0-0.2,0-0.3c0-0.1,0-0.2-0.1-0.2s-0.2,0-0.4,0L29,30v0.8l0.5-0.2
			L29.8,30.5z"/>
		<polygon class="st0" points="21.9,17.3 20.9,17.7 20.4,19.2 21.4,18.8 		"/>
		<path class="st0" d="M8.3,23.5l1.6-4.6l0.9-0.4l0.4-1.2l-5.7,2.2L0.8,32.8l5.7-2.2l2.7-7.5L8.3,23.5z M5.5,27.8l-1,0.4L5,26.7
			l1-0.4L5.5,27.8z M7.1,23.5l-1,0.4l0.5-1.5l1-0.4L7.1,23.5z"/>
		<path class="st0" d="M20.9,26l2.7-7.5l-0.9,0.4l1.6-4.6l0.9-0.4l0.4-1.2l-5.7,2.2l-4.7,13.3L20.9,26z M20.9,17.7l1-0.4l-0.5,1.5
			l-1,0.4L20.9,17.7z M20.3,21.7l-0.5,1.5l-1,0.4l0.6-1.6L20.3,21.7z"/>
		<path class="st0" d="M31,15.2l1.5-0.6l1.2-3.4l-1.5,0.6l1-2.8l-3,1.2l-1,2.8l-4.6,1.8l-1.2,3.4l4.6-1.8l-0.4,1.1
			c0.3,0.5,0.3,1.1,0.1,1.6c-0.3,0.8-0.8,1.6-1.4,2.2l-0.4,1.1c0,0.2-0.1,0.3-0.2,0.4c-0.3,0.2-0.6,0.3-0.9,0.4l-1.2,0.5L22.3,27
			l4-1.5c0.4-0.1,0.7-0.4,0.9-0.7c0.2-0.2,0.4-0.5,0.6-0.8c0.3-0.6,0.5-1.2,0.7-1.8L31,15.2z"/>
		<path class="st0" d="M12.9,29.4c0.2-0.2,0.4-0.5,0.6-0.8c0.3-0.6,0.5-1.2,0.7-1.8l2.5-7l1.5-0.6l1.2-3.4l-1.5,0.6l1-2.8l-3,1.2
			l-1,2.8l-4.6,1.8l-1.2,3.4l4.6-1.7l-0.4,1.1c0.3,0.5,0.3,1.1,0.1,1.6c-0.3,0.8-0.8,1.6-1.4,2.2l-0.5,1c0,0.2-0.1,0.3-0.2,0.4
			c-0.3,0.2-0.6,0.3-0.9,0.4l-1.2,0.5L8,31.6l4-1.5C12.3,29.9,12.6,29.7,12.9,29.4z"/>
		<path class="st0" d="M24.8,21.3c0.9-0.3,1.6-1,1.9-1.9c0.3-1,0-1.7-0.8-1.6c-0.9,0.3-1.6,1-1.9,1.9C23.8,20.6,24.1,21.4,24.8,21.3
			z"/>
		<path class="st0" d="M10.6,25.9c0.9-0.3,1.6-1,1.9-1.9c0.3-1,0-1.7-0.8-1.6c-0.9,0.3-1.6,1-1.9,1.9C9.5,25.2,9.9,26,10.6,25.9z"/>
		<path class="st0" d="M30.5,29.8h0.1c0.1,0,0.2,0,0.3,0c0.1,0.1,0.1,0.1,0.2,0.2l0.6,1l1.3-0.5l-0.5-1c0-0.1-0.1-0.1-0.2-0.2
			c-0.1-0.1-0.1-0.1-0.2-0.1c-0.1,0-0.2,0-0.3,0c0.1-0.1,0.3-0.2,0.4-0.3c0.1-0.2,0.3-0.3,0.3-0.5c0.1-0.2,0.1-0.4,0.1-0.6
			s0-0.4-0.2-0.6C32.3,27.1,32.2,27,32,27c-0.3,0-0.5,0.1-0.8,0.2l-1.9,0.7v4l1.1-0.4L30.5,29.8z M30.5,28.2L31,28
			c0.2-0.1,0.3-0.1,0.4,0s0.1,0.2,0.1,0.2c0,0.1,0,0.2-0.1,0.3c0,0.1-0.1,0.1-0.2,0.2l-0.3,0.2l-0.5,0.2L30.5,28.2z"/>
		<polygon class="st0" points="27.2,31 29,30.3 29,29.5 27.2,30.2 27.2,29.5 29.1,28.8 29.1,28 26.1,29.1 26.1,33 29.2,31.9 
			29.2,31 27.2,31.8 		"/>
		<path class="st0" d="M19,32.1c-0.4-0.2-1-0.2-1.4,0c-0.6,0.2-1,0.5-1.4,1c-0.3,0.5-0.5,1.1-0.5,1.7c0,0.4,0.1,0.8,0.2,1.1
			c0.1,0.2,0.4,0.4,0.6,0.4c0.3,0,0.7,0,1-0.2c0.4-0.1,0.7-0.3,1-0.6s0.5-0.6,0.6-0.9c0.1-0.4,0.2-0.8,0.2-1.2
			C19.5,32.9,19.4,32.4,19,32.1z M18.2,34.8c-0.1,0.2-0.3,0.4-0.6,0.5c-0.2,0.1-0.4,0.1-0.5-0.1c-0.2-0.2-0.2-0.5-0.2-0.8
			s0.1-0.7,0.2-0.9s0.3-0.4,0.5-0.5s0.4-0.1,0.6,0c0.2,0.2,0.2,0.5,0.2,0.7C18.4,34.1,18.4,34.5,18.2,34.8L18.2,34.8z"/>
		<polygon class="st0" points="35.1,29.7 35.1,28 36.5,25.2 35.3,25.7 34.6,27.3 33.8,26.2 32.6,26.7 34,28.5 34,30.1 		"/>
		<polygon class="st0" points="19.5,31.5 19.5,32.4 20.6,32 20.6,35 21.8,34.6 21.8,31.6 22.5,31.3 22.9,31.2 23.6,30.9 23.6,33.9 
			24.8,33.5 24.8,30.5 25.9,30.1 25.9,29.1 22.5,30.4 		"/>
		<polygon class="st0" points="41.9,11.2 44.8,10.1 44.8,7.2 41.9,8.4 		"/>
		<polygon class="st0" points="32.5,24.1 36,17.4 33.9,23.8 37.1,22.5 39.2,16.3 38.7,21.6 41.7,20.4 42.2,14 43.6,13.4 44.2,11.5 
			40.2,13.1 40.5,12.2 37.2,13.5 37,14.4 32.9,16 32.3,17.9 33.6,17.4 29.6,25.3 		"/>
		<polygon class="st0" points="37.8,10.2 37.8,12.9 40.8,11.7 40.8,8.8 38,9.9 38.4,9.2 42,7.8 44.7,6.7 45.2,6.5 46.7,3.7 
			43.5,4.9 43.1,5.6 39.7,7 37.1,8 36.7,8.2 32.9,14.8 35.9,13.6 		"/>
		<path class="st0" d="M48,22.5L48,22.5c-1.6-0.6-3.9-1.4-2.2-3.7c0.2-0.3,0.4-0.6,0.6-0.9c0.7-0.8,1.1-1.8,1.2-2.9
			c0-0.3,0-0.6-0.1-0.9c-1.1-5.4,3.8-11.2,5.5-13l-4.5,1.8h-0.1c-1.1,1.3-1.8,2.9-2.2,4.6l0,0c-0.3,1.1-0.4,2.2-0.5,3.3
			c-0.1,3,1,3.9-1.1,7.6l0,0c-0.4,0.5-0.7,1.1-1,1.6c-0.7,1.3-1.2,2.9,0,3.2c1.9,0.5,4.1,2.1,0,5.5l0,0C39.8,32.5,37.1,29,32,38.9
			h4.9c2.2-6.9,3-5.2,7.3-9l0,0l0.7-0.5c1.2-1,2.1-1.8,2.8-2.4c1.7-1.6,1.9-3,1.1-3.9C48.6,22.8,48.3,22.7,48,22.5z"/>
	</g>
</g>
<g>
	<g>
		<path class="st0" d="M3.9,12.1l3.7-1.2l0-0.6l-2.9,1C4.3,11.4,4,11.2,4,10.9l-0.2-3C3.8,7.5,4,7.2,4.4,7l7.3-2.4
			c0.4-0.1,0.7,0,0.7,0.4l0.2,3c0,0.3-0.3,0.7-0.6,0.8l-2.9,1l0,0.6l3.7-1.2l0,0.5l-3.7,1.2l0,0.7l4-1.3l0,0.5L3.7,14l0-0.5l4-1.3
			l0-0.7L4,12.7L3.9,12.1z M3.9,16.1l0.5-2L6,13.6l-0.5,2L3.9,16.1z M5.9,10.3l1.6-0.5L7.3,6.6L5.7,7.2C5.5,7.2,5.3,7.4,5.3,7.6
			l0.2,2.5C5.5,10.3,5.7,10.4,5.9,10.3z M5.9,9.6L5.6,7.9l1.3-0.4l0.3,1.7L5.9,9.6z M7.1,15.1l-0.8-1.6L7.9,13l0.8,1.6L7.1,15.1z
			 M9.5,14.3l-0.8-1.6l1.5-0.5l0.7,1.6L9.5,14.3z M10.9,5.8c0-0.2-0.2-0.3-0.4-0.2L8.9,6.1l0.2,3.2l1.6-0.5c0.2-0.1,0.4-0.3,0.4-0.5
			L10.9,5.8z M9.3,8.5l0.1-1.8l1.3-0.4l-0.1,1.8L9.3,8.5z M11.8,13.5L11,12l1.5-0.5l0.8,1.6L11.8,13.5z"/>
		<path class="st0" d="M18.1,2.4c-0.1,0.7-0.2,1.3-0.3,2L23,2.6l0,0.5l-2.8,0.9l0.2,2.6C21.2,5.8,21.8,5,22.5,4l0.1,1.1
			c-0.7,0.9-1.4,1.7-2.1,2.5l0.1,2c0,0.2,0.2,0.3,0.4,0.2l2.4-0.8l0,0.5l-3.7,1.2c-0.4,0.1-0.7,0-0.7-0.4L19,9.2
			c-0.7,0.8-1.5,1.5-2.4,2.2l0-0.8c0.8-0.8,1.6-1.5,2.4-2.3l-0.2-3.7l-1,0.3c-0.5,2.5-1.2,4.9-2.1,7.3l-1.6,0.5
			c1-2.4,1.7-4.8,2.2-7.3l-2.6,0.9l0-0.5l2.8-0.9c0.1-0.7,0.2-1.3,0.3-2L18.1,2.4z M20.4,3.3l-0.7-1.1l1.5-0.5L22,2.7L20.4,3.3z"/>
		<path class="st0" d="M24.5,2.2l-0.8-1.7l1.6-0.5l0.8,1.7L24.5,2.2z M24.8,4.9L24,3l1.6-0.5l0.8,1.9L24.8,4.9z M24,9.4
			c0.5-1.3,0.7-2.5,0.8-3.9L26.4,5c-0.1,1.4-0.4,2.8-0.8,3.9L24,9.4z M26.8,8.4l0-0.5L29.3,7l-0.5-7.2l-2.3,0.8l0-0.5L32.7-2l0,0.5
			l-2.4,0.8l0.5,7.2l2.7-0.9l0,0.5L26.8,8.4z"/>
	</g>
</g>
</svg>
