<?xml version="1.0" encoding="utf-8"?>
<!-- Generator: Adobe Illustrator 21.1.0, SVG Export Plug-In . SVG Version: 6.00 Build 0)  -->
<svg version="1.1" id="logo_x5F_cqssc" xmlns="http://www.w3.org/2000/svg" xmlns:xlink="http://www.w3.org/1999/xlink" x="0px"
	 y="0px" width="53px" height="38.9px" viewBox="0 0 53 38.9" style="enable-background:new 0 0 53 38.9;" xml:space="preserve">
<style type="text/css">
	.st0{fill:#FFFFFF;}
</style>
<title>logo_cqssc</title>
<g>
	<g>
		<path class="st0" d="M30.1,24.4c-0.7-0.3-1.5-0.6-2.3-0.9c3.2-2.4,6.4-4.7,9.6-7.1c-0.6-1.1-1.3-1.6-2.5-1.5c-3.1,0.1-6.2,0-9.4,0
			c-0.7,0-1.5,0.1-2.2,0.3c-1.5,0.4-2.5,1.7-2.6,3.4c3,0,6,0,9.2,0c-1.9,1.5-3.6,2.7-5.3,4.1c-0.6,0.5-1.1,1.3-1.7,2.1
			c0.6,0.3,1,0.3,1.3,0.6c0.5,0.4,1.2,0.9,1.5,1.4c1.1,1.9,0.9,3.7-0.7,5.1c-1.3,1.1-2.7,2.1-4.3,2.8c-2.9,1.3-6,2.4-9,3.6
			c-0.2,0.1-0.5,0.2-0.7,0.3c0,0.1,0.1,0.2,0.1,0.3c2.4-0.3,4.9-0.6,7.3-1c3.3-0.6,6.5-1.5,9.5-2.9c1.7-0.7,3.3-1.7,4.3-3.3
			C33.7,29,33.8,26,30.1,24.4z"/>
		<path class="st0" d="M14.6,27.3c1.8,0,3.6,0,5.4,0c0.1-1,0.1-1.9,0.2-2.8c-0.3-0.1-0.5-0.1-0.8-0.2c0.1-1.6,0.3-3.2,0.3-4.7
			c0-1.6-0.8-2.4-2.4-2.4c-0.7,0-1.5,0-2.2,0c0-0.6,0-1,0-1.6c-1,0-1.9,0-2.9,0c-0.1,0.5-0.1,1-0.2,1.6c-0.8,0-1.5,0-2.2,0
			c-0.1,1-0.1,1.9-0.2,2.9c0.6,0,1-0.1,1.4,0c0.3,0.1,0.7,0.4,0.7,0.7c0,1.2-0.1,2.3-0.2,3.6c-1,0-1.9,0-2.9,0
			c-0.1,1-0.1,1.9-0.2,2.9c0.9,0,1.7,0,2.6,0c-0.6,1.7-1.4,3-2.7,4.1c-0.2,0.2-0.5,0.4-0.5,0.7c-0.1,1,0,2,0,3
			C10.6,34.7,13,31.9,14.6,27.3z M15,20.2c1.7-0.2,1.9,0,1.8,1.5c-0.1,0.8-0.1,1.7-0.2,2.5c0,0.1-0.1,0.1-0.1,0.2
			c-0.5,0-1.1,0-1.7,0C14.8,23,14.9,21.7,15,20.2z"/>
		<path class="st0" d="M3.8,17c-0.8,0-1.5,0-2.4,0c-0.4,5.8-0.7,11.5-1.1,17.3c2,0.1,2.5-0.4,2.6-2.1c0.3-4.7,0.6-9.4,0.9-14.1
			C3.8,17.6,3.8,17.3,3.8,17z"/>
		<path class="st0" d="M30.4,23.2c2.9-1.5,5.8-3,8.9-4.6c-0.4-0.5-0.7-0.8-1-1.2c-2.7,1.9-5.3,3.8-8,5.7
			C30.4,23.1,30.4,23.2,30.4,23.2z"/>
		<path class="st0" d="M31.5,23.6c3-1,6-2,9.1-3c-0.3-0.5-0.5-0.8-0.8-1.2c-2.9,1.4-5.7,2.7-8.4,4C31.4,23.5,31.5,23.6,31.5,23.6z"
			/>
		<path class="st0" d="M8.3,22.9l0.2-3.2l-0.8,0c0,0,0,0-0.1,0c0.1-1.3,0.2-2.6,0.2-3.9c-1.1,0-2.1,0-3.2,0
			c-0.4,6.5-0.8,13-1.2,19.6c0.5,0,1,0,1.4,0c1.3,0,1.8-0.5,1.9-1.8c0.1-0.9,0.1-1.8,0.2-2.8c0.2-2.7,0.4-5.4,0.5-8L8.3,22.9z"/>
		<path class="st0" d="M13.6,32.6c0,1.7,1.4,3.1,3.1,3.1c1.7,0,3.1-1.4,3.2-3.1c0-1.7-1.3-3.2-3-3.2C15.1,29.4,13.6,30.9,13.6,32.6z
			 M15.3,33.7c-0.4,0-0.7-0.3-0.7-0.6c0-0.4,0.3-0.7,0.6-0.7c0.4,0,0.7,0.3,0.7,0.6C15.9,33.4,15.7,33.7,15.3,33.7z M18.4,32.4
			c0.4,0,0.7,0.3,0.7,0.6c0,0.4-0.3,0.7-0.6,0.7c-0.4,0-0.7-0.3-0.7-0.6C17.8,32.8,18,32.5,18.4,32.4z M17.1,31.2
			c0,0.4-0.3,0.8-0.8,0.8c-0.4,0-0.8-0.3-0.8-0.8c0-0.4,0.3-0.8,0.8-0.8C16.8,30.5,17.1,30.8,17.1,31.2z"/>
	</g>
	<g>
		<path class="st0" d="M9.2,12.2c0.6-1.5,1-2.8,1.2-4.5l1.8,0c-0.2,1.7-0.6,3.3-1.2,4.5L9.2,12.2z M10.1,3.5L9.3,1.1l1.8,0L12,3.5
			L10.1,3.5z M10.3,6.9L9.5,4.3l1.8,0l0.8,2.7L10.3,6.9z M12.4,12.2l0-0.7l3,0l-0.1-9.1l-2.7,0l0-0.7l7.3,0l0,0.7l-2.8,0l0.1,9.1
			l3.1,0l0,0.7L12.4,12.2z"/>
		<path class="st0" d="M20.8,2.2l2.1,0L23,1l1.8,0l0,1.1l3.3,0L28,1l1.8,0l0,1.1l2.1,0l0,0.7l-2.1,0l0,1.2l-1.8,0l0-1.2l-3.3,0
			l0,1.2L23,4l0-1.2l-2.1,0L20.8,2.2z M21,10.4L21.6,7l1.8,0l-0.6,3.4L21,10.4z M22.2,5.4l2.2,0c0-0.4,0.1-0.8,0.1-1.2l1.8,0
			c0,0.4-0.1,0.8-0.1,1.2l2.6,0c0.4,0,0.8,0.3,0.8,0.8l0,5.2c0,0.4-0.3,0.8-0.8,0.8l-2.7,0l0-0.7l1.2,0c0.2,0,0.4-0.2,0.4-0.4l0-4.5
			c0-0.2-0.2-0.4-0.5-0.4l-1.2,0c-0.3,2.1-0.7,4.1-1.3,6.1l-2,0c0.8-2,1.3-4,1.5-6.1l-2.1,0L22.2,5.4z M30.2,10.3L29.8,7l1.8,0
			l0.4,3.4L30.2,10.3z"/>
	</g>
</g>
</svg>
