<?xml version="1.0" encoding="utf-8"?>
<!-- Generator: Adobe Illustrator 21.1.0, SVG Export Plug-In . SVG Version: 6.00 Build 0)  -->
<svg version="1.1" id="logo_x5F_cqssc" xmlns="http://www.w3.org/2000/svg" xmlns:xlink="http://www.w3.org/1999/xlink" x="0px"
	 y="0px" width="53px" height="38.9px" viewBox="0 0 53 38.9" style="enable-background:new 0 0 53 38.9;" xml:space="preserve">
<style type="text/css">
	.st0{fill:#FFFFFF;}
	.st1{opacity:0.4;fill:#FFFFFF;enable-background:new    ;}
</style>
<title>logo_cqssc</title>
<g>
	<g>
		<path class="st0" d="M16.8,26.7c-0.1,0.3-1.2,2.5-1.3,2.5H14c0-0.3,1.2-2.5,1.3-2.5C15.9,26.7,16.3,26.7,16.8,26.7L16.8,26.7z"/>
		<path class="st0" d="M11.4,24.3h2.4l-0.7,5.2C13,29.8,13.3,30,13.5,30c0,0,4.4,0,6.6,0c0,0.3,0,0.8,0,1.1c0,0-5.7,0-7.7,0
			c-0.4,0-0.8-0.2-0.9-0.8l0.6-4.9c-0.2,0-0.6,0-0.8,0L11.4,24.3L11.4,24.3z"/>
		<path class="st0" d="M16.8,22l-0.3,0.7c0.2,0,0.5,0,0.7,0l0.1-0.7h1.6v0.7h2.4v0.9h-2.5l-0.1,1.6h2.4v0.9h-1.8l-0.1,2h1.3v1.1
			c-1,0-2,0-2,0c-0.8,0.1-0.9-0.4-0.8-0.9l0.1-2.1h-3.4v-0.9H17c0.1-0.5,0.1-1,0.2-1.4c-0.5-0.1-0.3-0.1-0.9-0.2L16,24.6h-1.5
			l0.9-2.6H16.8L16.8,22z"/>
		<path class="st0" d="M12.1,22c0.5,0,1,0,1.5,0c0.1,0.7,0.2,1.3,0.4,2h-1.5C12.3,23.3,12.2,22.6,12.1,22L12.1,22z"/>
		<path class="st0" d="M4.4,21.6l-1.3,9.5H0.9c0-0.1-0.1-0.1-0.1-0.2l1-6.5c-0.5,0.1-0.9,0.3-1.4,0.4v-1.7L4.4,21.6L4.4,21.6z"/>
		<path class="st0" d="M8.8,31.1H6.4l0.9-6.6l-1.5,0.4L6,23.3l4-1.8C9.7,24.6,9.2,28,8.8,31.1L8.8,31.1z"/>
		<path class="st0" d="M23.4,18.9c2.5,0,5,0,7.5,0c-0.1,0.8-0.1,1.6-0.2,2.4h-5.1c-0.1,0.5-0.1,1-0.2,1.5c7.6,0.9,6,8.4-0.2,8.4
			h-3.3v-2h3.4c3.6-0.5,2.8-4.1-0.9-4.2h-1.8C22.9,22.9,23.2,20.8,23.4,18.9L23.4,18.9z"/>
		<path class="st0" d="M5.8,16.6C6,16.1,7,15.7,7.9,16.7c2.9,2.4,4.9,2.1,7.8,2C12.7,20.4,4.2,20.1,5.8,16.6L5.8,16.6z"/>
		<path class="st0" d="M16.3,18C10,19.1,2.3,9.6,6.8,7.8C7.7,7.5,9,7.5,9.6,9.4C10.3,13.9,12.5,17.1,16.3,18L16.3,18z"/>
		<path class="st0" d="M26.1,7.4C37,6.9,41.7,16,40.8,22.6c-1.2,9-12.6,17.1-22.5,9c11.2,4.7,17.6-3.8,17.4-10.4
			c-0.2-5.8-7.2-10-13.7-3.9C15.2,20.9,11.3,9.1,26.1,7.4L26.1,7.4z"/>
		<path class="st0" d="M35.8,1.8c2.1,2.3-0.6,4.6-2.4,4.4c-1.3,0.1-8.9-2.9-17,4C20.1,1,32.2-2.3,35.8,1.8L35.8,1.8z"/>
		<path class="st0" d="M16.6,0.3c1.9,0,3.2,2.3,2.2,3.8c-3.7,3.5-6,9.4-2.3,13.6C8.4,13,11.6,0.3,16.6,0.3L16.6,0.3z"/>
		<path class="st0" d="M21.9,17.1c-0.8-5.7,11.3-7.8,14.9-0.4c2.2,4.2-0.1,11.3-5.5,13.9c3.7-3.1,4.8-7.7,4-11.3
			C34.4,16.3,29.3,10.8,21.9,17.1L21.9,17.1z"/>
		<path class="st1" d="M13.8,1.7c1.4,0.1,3.3,0.5,5.3,1.5c0-0.2,0-0.3,0-0.5c0-0.5-0.7-2.5-2.6-2.4C15.2,0.4,14.3,1.1,13.8,1.7
			L13.8,1.7z M20.9,4.2c0.9,0.6,1.8,1.3,2.7,2.1c1.1-0.3,4-1,7.7-0.4c0,0,0.7,0.1,1.3,0.2c-0.5-2.3-1.5-4.4-2.9-6
			C24.2,0.9,21.2,3.9,20.9,4.2L20.9,4.2z M24.8,7.6c1.6,1.7,3.1,3.9,4.6,6.7c0.7,0.1,2,0.4,3.5,1.5c0.3-2.3,0.3-4.8,0.1-7.3
			C32,8.1,28.8,7,24.8,7.6L24.8,7.6z"/>
	</g>
</g>
<g>
	<path class="st0" d="M1.3,38.7l-1.1,0c0.4-0.5,0.5-1.1,0.5-1.6l0-3.7c0-0.3,0.2-0.5,0.5-0.5l2.3,0l0-0.9l1.1,0l0,0.9l2.3,0l0,0.4
		l-4.8,0c-0.1,0-0.3,0.1-0.3,0.3l0,3.5C1.8,37.6,1.6,38.3,1.3,38.7z"/>
	<path class="st0" d="M7.2,32.9l1.3,0L8.9,32l1.1,0l-0.4,0.9l4.2,0l0,0.4l-4.3,0l-0.7,1.6c0,0.1,0,0.2,0,0.2c0,0.1,0.1,0.1,0.2,0.1
		l1.1,0l0-1.3l1.1,0l0,1.3l2.5,0l0,0.4l-2.5,0l0,2.6c0,0.3-0.2,0.5-0.5,0.5l-1.4,0l0-0.4l0.6,0c0.1,0,0.3-0.1,0.3-0.3l0-2.4l-2.1,0
		c-0.1,0-0.3-0.1-0.4-0.2c-0.1-0.1-0.1-0.3-0.1-0.4l0.8-1.7l-1.2,0L7.2,32.9z M7.3,38.7c0.3-0.8,0.6-1.6,0.7-2.6l1.1,0
		c-0.2,1-0.4,1.9-0.7,2.6L7.3,38.7z M12.8,38.7C12.5,37.9,12.2,37,12,36l1.1,0c0.2,1,0.4,1.9,0.8,2.6L12.8,38.7z"/>
</g>
</svg>
