<?xml version="1.0" encoding="utf-8"?>
<!-- Generator: Adobe Illustrator 21.0.0, SVG Export Plug-In . SVG Version: 6.00 Build 0)  -->
<svg version="1.1" id="图层_1" xmlns="http://www.w3.org/2000/svg" xmlns:xlink="http://www.w3.org/1999/xlink" x="0px" y="0px"
	 width="42.2px" height="42.2px" viewBox="0 0 42.2 42.2" style="enable-background:new 0 0 42.2 42.2;" xml:space="preserve">
<style type="text/css">
	.st0{opacity:0.46;fill:none;stroke:#EFEFEF;stroke-width:0.29;stroke-miterlimit:10;enable-background:new    ;}
	.st1{fill:#52ACD3;}
	.st2{opacity:0.25;fill:#FFFFFF;enable-background:new    ;}
	.st3{fill:#FFFFFF;}
	.st4{fill:none;}
</style>
<title>menu_cqssc</title>
<g id="图层_2">
	<g id="左側選單">
		<circle class="st0" cx="21.1" cy="21.1" r="21"/>
		<circle class="st1" cx="21.1" cy="21.1" r="19.7"/>
		<path class="st2" d="M33.5,5.8C25.1-1,12.7,0.3,5.8,8.7C1.9,13.6,0.5,20,2,26c1.7,0.3,3.5,0.5,5.2,0.5C19.8,26.5,30.6,18,33.5,5.8
			z"/>
		<path class="st3" d="M8.7,13.3l3.6-1.1c0.3-0.1,0.5-0.2,0.7-0.4l1.1-0.3c-0.1,0.4-0.5,0.8-0.9,0.9l-1.3,0.4v0.5l2.4-0.7V13
			l-2.4,0.7v0.4l1.8-0.5c0.2-0.1,0.4,0.1,0.4,0.3l-0.1,1.6c0,0.3-0.2,0.5-0.4,0.6l-1.8,0.5v0.5l2.2-0.6v0.4l-2.2,0.6V18l2.4-0.7v0.4
			l-5.7,1.7V19l2.4-0.7v-0.5l-2.2,0.6V18l2.2-0.6v-0.5l-1.8,0.5c-0.1,0.1-0.3,0-0.4-0.2c0-0.1,0-0.1,0-0.2l0.1-1.6
			c0-0.3,0.2-0.5,0.4-0.6l1.8-0.5V14l-2.4,0.7v-0.4l2.4-0.7V13l-2.2,0.6L8.7,13.3z M9.6,16.8l1.1-0.3v-0.7l-1.3,0.4v0.4
			c0,0.1,0,0.2,0.1,0.2C9.5,16.8,9.5,16.8,9.6,16.8z M9.4,15.8l1.3-0.4v-0.7L9.6,15c-0.1,0-0.2,0.2-0.2,0.3L9.4,15.8z M12.9,15.1
			l-1.3,0.4v0.7l1.1-0.3c0.1,0,0.2-0.2,0.2-0.3L12.9,15.1z M11.7,14.5v0.7l1.3-0.4v-0.4c0-0.1,0-0.2-0.1-0.2c0,0-0.1,0-0.1,0
			L11.7,14.5z"/>
		<path class="st3" d="M15.6,15.6c0,0.6-0.2,1.1-0.5,1.7l-1,0.3c0.3-0.5,0.5-1.1,0.5-1.7l0.2-3.6c0-0.3,0.2-0.5,0.4-0.6l1.9-0.6
			v-0.7l0.9-0.3v0.7l2-0.6v0.4L16,11.9c-0.1,0-0.2,0.2-0.2,0.3L15.6,15.6z M15.9,13.6l1.5-0.4l0.1-1.1l0.9-0.3l-0.1,1.1l1.7-0.5v0.4
			l-1.6,0.5c0.2,1,0.7,1.9,1.2,2.8l-1,0.3c-0.4-0.5-0.7-1.1-0.9-1.7c-0.3,0.8-0.7,1.6-1.1,2.3l-1,0.3c0.7-1.1,1.2-2.3,1.6-3.6
			l-1.4,0.4L15.9,13.6z"/>
		<polygon class="st4" points="7.3,27.2 7.9,27 8.2,26.1 7.6,26.3 		"/>
		<path class="st4" d="M15.3,30.1c-0.1,0.1-0.3,0.2-0.3,0.3c-0.1,0.2-0.1,0.4-0.1,0.6c0,0.2,0,0.3,0.1,0.5c0.1,0.1,0.2,0.1,0.3,0
			c0.1-0.1,0.3-0.1,0.3-0.3c0.1-0.2,0.1-0.4,0.1-0.6c0-0.2,0-0.3-0.1-0.5C15.6,30.1,15.4,30.1,15.3,30.1z"/>
		<polygon class="st4" points="16.6,24.2 17,23.3 16.4,23.5 16,24.5 		"/>
		<polygon class="st4" points="8.3,24.6 8.9,24.4 9.2,23.5 8.6,23.7 		"/>
		<path class="st4" d="M22.7,28.6c0,0,0.1-0.1,0.1-0.1c0,0,0-0.1,0-0.1c0-0.1,0-0.1-0.1-0.1c0,0-0.1,0-0.2,0l-0.3,0.1v0.5l0.3-0.1
			L22.7,28.6z"/>
		<polygon class="st4" points="17.9,20.7 17.3,20.9 17,21.8 17.6,21.6 		"/>
		<path class="st3" d="M9.6,24.4l1-2.8l0.6-0.2l0.3-0.7L8,22l-2.9,8l3.5-1.3l1.6-4.5L9.6,24.4z M7.9,27l-0.6,0.2l0.3-0.9l0.6-0.2
			L7.9,27z M8.9,24.4l-0.6,0.2l0.3-0.9l0.6-0.2L8.9,24.4z"/>
		<path class="st3" d="M17.3,25.9l1.6-4.5l-0.6,0.2l1-2.8l0.6-0.2l0.3-0.7l-3.5,1.3l-2.9,8L17.3,25.9z M17.3,20.9l0.6-0.2l-0.3,0.9
			L17,21.8L17.3,20.9z M17,23.3l-0.3,0.9l-0.6,0.2l0.3-0.9L17,23.3z"/>
		<path class="st3" d="M23.4,19.4l0.9-0.4l0.7-2l-0.9,0.4l0.6-1.7L23,16.3L22.3,18l-2.8,1.1l-0.7,2.1l2.8-1.1l-0.2,0.7
			c0.2,0.3,0.2,0.7,0,1c-0.2,0.5-0.5,0.9-0.9,1.3l-0.2,0.7c0,0.1-0.1,0.2-0.1,0.2c-0.2,0.1-0.4,0.2-0.5,0.2l-0.8,0.3l-0.7,2l2.4-0.9
			c0.2-0.1,0.4-0.2,0.6-0.4c0.1-0.1,0.3-0.3,0.4-0.5c0.2-0.4,0.3-0.7,0.4-1.1L23.4,19.4z"/>
		<path class="st3" d="M12.4,28c0.1-0.1,0.2-0.3,0.4-0.5c0.2-0.4,0.3-0.7,0.4-1.1l1.5-4.2l0.9-0.4l0.7-2.1l-0.9,0.4l0.6-1.7
			l-1.8,0.7l-0.6,1.7l-2.8,1.1L10.1,24l2.8-1.1l-0.2,0.7c0.2,0.3,0.2,0.7,0,1c-0.2,0.5-0.5,0.9-0.9,1.3l-0.2,0.7
			c0,0.1-0.1,0.2-0.1,0.2c-0.2,0.1-0.4,0.2-0.6,0.2l-0.8,0.3l-0.7,2l2.4-0.9C12,28.4,12.2,28.2,12.4,28z"/>
		<path class="st3" d="M19.7,23.1c0.5-0.1,1-0.6,1.2-1.1c0.2-0.6,0-1-0.5-1c-0.6,0.1-1,0.6-1.2,1.1C19,22.7,19.2,23.1,19.7,23.1z"/>
		<path class="st3" d="M11,25.9c0.6-0.1,1-0.6,1.2-1.1c0.2-0.6,0-1-0.5-1c-0.6,0.1-1,0.6-1.2,1.1C10.4,25.5,10.6,25.9,11,25.9z"/>
		<path class="st3" d="M23.1,28.2L23.1,28.2c0.1,0,0.2,0,0.2,0c0.1,0,0.1,0.1,0.1,0.1l0.4,0.6l0.8-0.3l-0.3-0.6L24.2,28l-0.1-0.1
			c-0.1,0-0.1,0-0.2,0c0.1,0,0.2-0.1,0.2-0.2c0.1-0.1,0.2-0.2,0.2-0.3c0.1-0.1,0.1-0.2,0.1-0.4c0-0.1,0-0.2-0.1-0.4
			c-0.1-0.1-0.2-0.1-0.3-0.1c-0.2,0-0.3,0.1-0.5,0.1L22.4,27v2.4l0.7-0.2V28.2z M23.1,27.3l0.3-0.1c0.1,0,0.2-0.1,0.2,0
			c0,0,0.1,0.1,0.1,0.1c0,0,0,0.1,0,0.1c0,0-0.1,0.1-0.1,0.1l-0.2,0.1l-0.3,0.1L23.1,27.3z"/>
		<polygon class="st3" points="21.1,28.9 22.2,28.5 22.2,28.1 21.1,28.4 21.1,28.1 22.3,27.6 22.3,27.1 20.5,27.8 20.5,30.2 
			22.3,29.5 22.3,29 21.1,29.4 		"/>
		<path class="st3" d="M16.2,29.6c-0.3-0.1-0.6-0.1-0.9,0c-0.3,0.1-0.6,0.3-0.8,0.6c-0.2,0.3-0.3,0.6-0.3,1c0,0.2,0,0.4,0.1,0.6
			c0.1,0.1,0.2,0.2,0.4,0.3c0.2,0,0.4,0,0.6-0.1c0.2-0.1,0.4-0.2,0.6-0.4c0.2-0.2,0.3-0.3,0.4-0.5c0.1-0.2,0.1-0.5,0.1-0.7
			C16.5,30.1,16.4,29.8,16.2,29.6z M15.7,31.2c-0.1,0.1-0.2,0.2-0.3,0.3c-0.1,0.1-0.2,0.1-0.3,0c-0.1-0.1-0.1-0.3-0.1-0.5
			c0-0.2,0-0.4,0.1-0.6c0.1-0.1,0.2-0.2,0.3-0.3c0.1-0.1,0.2-0.1,0.3,0c0.1,0.1,0.1,0.3,0.1,0.5C15.8,30.8,15.8,31,15.7,31.2z"/>
		<polygon class="st3" points="26,28.2 26,27.2 26.8,25.5 26.1,25.7 25.6,26.7 25.2,26.1 24.4,26.3 25.3,27.4 25.3,28.4 		"/>
		<polygon class="st3" points="13.1,30.4 12.4,30.7 12.4,33.1 14.1,32.5 14.1,31.9 13.1,32.2 		"/>
		<polygon class="st3" points="16.4,29.2 16.4,29.8 17.1,29.6 17.1,31.4 17.8,31.1 17.8,29.3 18.3,29.1 18.5,29.1 19,28.9 19,30.7 
			19.6,30.5 19.6,28.6 20.3,28.4 20.3,27.8 18.3,28.6 		"/>
		<polygon class="st3" points="30.1,17 31.9,16.3 31.9,14.6 30.1,15.3 		"/>
		<polygon class="st3" points="24.4,24.8 26.5,20.8 25.2,24.6 27.2,23.8 28.4,20.1 28.1,23.3 30,22.6 30.3,18.7 31.1,18.4 
			31.5,17.2 29,18.1 29.2,17.6 27.2,18.4 27.1,18.9 24.6,19.9 24.2,21.1 25,20.8 22.6,25.5 		"/>
		<polygon class="st3" points="27.6,16.4 27.6,18 29.4,17.3 29.4,15.5 27.7,16.2 28,15.8 30.1,14.9 31.8,14.3 32.1,14.2 33,12.4 
			31,13.2 30.8,13.7 28.7,14.5 27.2,15.1 26.9,15.2 24.6,19.2 26.4,18.5 		"/>
		<path class="st3" d="M33.8,23.9L33.8,23.9c-1-0.4-2.4-0.8-1.3-2.2l0.4-0.5c0.4-0.5,0.7-1.1,0.7-1.8c0-0.2,0-0.4-0.1-0.5
			c-0.7-3.3,2.3-6.8,3.3-7.9L34.1,12H34c-0.6,0.8-1.1,1.7-1.4,2.8v-0.1c-0.2,0.7-0.3,1.3-0.3,2c-0.1,1.8,0.6,2.4-0.7,4.6l0,0
			c-0.2,0.3-0.4,0.7-0.6,1c-0.4,0.8-0.7,1.7,0,1.9c1.2,0.3,2.5,1.3,0,3.3l0,0c-2.2,2.3-3.9,0.2-7,6.1h3c1.4-4.1,1.9-3.1,4.5-5.4l0,0
			l0.4-0.3c0.7-0.6,1.3-1.1,1.7-1.5c1-1,1.1-1.8,0.7-2.3C34.2,24,34,23.9,33.8,23.9z"/>
	</g>
</g>
</svg>
