<?xml version="1.0" encoding="utf-8"?>
<!-- Generator: Adobe Illustrator 21.0.0, SVG Export Plug-In . SVG Version: 6.00 Build 0)  -->
<svg version="1.1" id="图层_1" xmlns="http://www.w3.org/2000/svg" xmlns:xlink="http://www.w3.org/1999/xlink" x="0px" y="0px"
	 width="42.2px" height="42.2px" viewBox="0 0 42.2 42.2" style="enable-background:new 0 0 42.2 42.2;" xml:space="preserve">
<style type="text/css">
	.st0{opacity:0.46;fill:none;stroke:#EFEFEF;stroke-width:0.29;stroke-miterlimit:10;enable-background:new    ;}
	.st1{opacity:0.8;fill:#308FD0;enable-background:new    ;}
	.st2{opacity:0.25;fill:#FFFFFF;enable-background:new    ;}
	.st3{fill:#FFFFFF;}
	.st4{opacity:0.4;fill:#FFFFFF;enable-background:new    ;}
</style>
<title>menu_gd11x5</title>
<g id="图层_2">
	<g id="左側選單">
		<circle class="st0" cx="21.1" cy="21.1" r="21"/>
		<circle class="st1" cx="21.1" cy="21.1" r="19.7"/>
		<path class="st2" d="M33.5,5.8C25.1-1,12.7,0.3,5.8,8.7C1.9,13.6,0.5,20,2,26c1.7,0.3,3.5,0.5,5.2,0.5C19.8,26.5,30.6,18,33.5,5.8
			z"/>
		<path class="st3" d="M19.7,25.1c-0.2,0.6-0.5,1.2-0.9,1.7h-1c0.3-0.6,0.5-1.2,0.9-1.7H19.7z"/>
		<path class="st3" d="M16,23.6h1.6l-0.5,3.5c0,0.2,0.1,0.3,0.3,0.3c0,0,3,0,4.4,0c0,0.2,0,0.5,0,0.7h-5.1c-0.3,0-0.6-0.2-0.6-0.5
			l0.4-3.3H16V23.6L16,23.6z"/>
		<path class="st3" d="M19.7,22l-0.2,0.5H20V22h1v0.5h1.6v0.6h-1.7l-0.1,1.1h1.6v0.6h-1.2l-0.1,1.4h0.9v0.7c-0.7,0-1.4,0-1.4,0
			c-0.5,0-0.6-0.3-0.6-0.6l0.1-1.5H18v-0.6h1.8l0.1-1l-0.6-0.1l-0.2,0.6H18l0.6-1.7L19.7,22z"/>
		<path class="st3" d="M16.5,22h1l0.2,1.4h-1L16.5,22z"/>
		<path class="st3" d="M11.4,21.7l-0.9,6.4H9L8.9,28l0.7-4.4c-0.4,0.1-0.6,0.2-1,0.3v-1.2L11.4,21.7L11.4,21.7z"/>
		<path class="st3" d="M14.3,28.1h-1.6l0.6-4.4l-1,0.2l0.1-1.1l2.7-1.2C14.9,23.7,14.6,26,14.3,28.1L14.3,28.1z"/>
		<path class="st3" d="M24.2,19.9h5L29,21.5h-3.4l-0.1,1c5.1,0.6,4,5.6-0.1,5.7h-2.2v-1.4h2.3c2.4-0.3,1.9-2.8-0.6-2.8h-1.2
			C23.8,22.6,24,21.2,24.2,19.9L24.2,19.9z"/>
		<path class="st3" d="M12.3,18.3c0.1-0.3,0.9-0.6,1.4,0.1c1.9,1.6,3.3,1.4,5.3,1.4C17,20.9,11.2,20.7,12.3,18.3L12.3,18.3z"/>
		<path class="st3" d="M19.4,19.3c-4.2,0.8-9.4-5.7-6.4-6.9c0.6-0.2,1.5-0.2,1.9,1.1C15.3,16.5,16.8,18.7,19.4,19.3z"/>
		<path class="st3" d="M26,12.1c5-0.5,9.5,3.3,9.9,8.3c0.1,0.7,0,1.4,0,2C35,28.5,27.4,34,20.7,28.5c7.6,3.2,11.9-2.5,11.7-7.1
			c-0.1-3.9-4.9-6.8-9.3-2.7C18.6,21.2,16,13.2,26,12.1z"/>
		<path class="st3" d="M32.5,8.3c1.4,1.6-0.4,3.1-1.6,3c-0.9,0-6-2-11.5,2.7C21.9,7.8,30.1,5.5,32.5,8.3L32.5,8.3z"/>
		<path class="st3" d="M19.6,7.3c1,0.1,1.7,0.9,1.6,1.9c0,0.2-0.1,0.5-0.2,0.7c-2.5,2.4-4.1,6.4-1.6,9.2C14,15.9,16.1,7.3,19.6,7.3
			L19.6,7.3z"/>
		<path class="st3" d="M23.2,18.7c-0.5-3.8,7.6-5.2,10.1-0.3c1.5,2.8-0.1,7.6-3.7,9.4c2.2-1.9,3.3-4.8,2.7-7.7
			C31.6,18.1,28.2,14.4,23.2,18.7L23.2,18.7z"/>
		<path class="st4" d="M17.7,8.2c1.2,0.1,2.5,0.4,3.6,1c0-0.1,0-0.2,0-0.3c-0.1-0.9-0.9-1.6-1.8-1.6C18.8,7.4,18.1,7.7,17.7,8.2
			L17.7,8.2z M22.5,10c0.6,0.4,1.2,0.9,1.8,1.4c1.7-0.5,3.5-0.6,5.2-0.3l0.9,0.1c-0.3-1.5-1-2.9-2-4C26.1,7.5,24.1,8.5,22.5,10z
			 M25.1,12.3c1.2,1.4,2.3,2.9,3.1,4.5c0.9,0.1,1.7,0.4,2.3,1c0.2-1.6,0.2-3.3,0-4.9C28.8,12.2,26.9,11.9,25.1,12.3L25.1,12.3z"/>
		<path class="st3" d="M9.1,33.4H8.4c0.2-0.3,0.3-0.7,0.3-1.1v-2.5c0-0.2,0.1-0.3,0.3-0.3h1.5v-0.6h0.7v0.6h1.6v0.3H9.6
			c-0.1,0-0.2,0.1-0.2,0.2l0,0v2.4C9.4,32.7,9.3,33,9.1,33.4z"/>
		<path class="st3" d="M13.2,29.4h0.9l0.2-0.6h0.8l-0.3,0.6h2.8v0.3h-3l-0.5,1.1c0,0.1,0,0.1,0,0.2c0,0,0.1,0.1,0.1,0.1h0.7v-0.9
			h0.7V31h1.7v0.3h-1.7V33c0,0.2-0.1,0.3-0.3,0.3h-1V33H15c0.1,0,0.2-0.1,0.2-0.2l0,0v-1.6h-1.4c-0.1,0-0.2,0-0.3-0.1
			c0-0.1,0-0.2,0-0.3l0.5-1.2h-0.8L13.2,29.4z M13.2,33.4c0.2-0.6,0.4-1.2,0.5-1.8h0.7c-0.1,0.6-0.3,1.2-0.5,1.8H13.2z M17,33.4
			c-0.2-0.6-0.4-1.2-0.5-1.8h0.7c0.1,0.6,0.3,1.2,0.5,1.8H17z"/>
	</g>
</g>
</svg>
