<?xml version="1.0" encoding="utf-8"?>
<!-- Generator: Adobe Illustrator 21.0.0, SVG Export Plug-In . SVG Version: 6.00 Build 0)  -->
<svg version="1.1" id="图层_1" xmlns="http://www.w3.org/2000/svg" xmlns:xlink="http://www.w3.org/1999/xlink" x="0px" y="0px"
	 width="42.2px" height="42.2px" viewBox="0 0 42.2 42.2" style="enable-background:new 0 0 42.2 42.2;" xml:space="preserve">
<style type="text/css">
	.st0{opacity:0.46;fill:none;stroke:#EFEFEF;stroke-width:0.29;stroke-miterlimit:10;enable-background:new    ;}
	.st1{opacity:0.8;fill:#E774E0;enable-background:new    ;}
	.st2{opacity:0.25;fill:#FFFFFF;enable-background:new    ;}
	.st3{fill:#FFFFFF;}
	.st4{opacity:0.4;fill:#FFFFFF;enable-background:new    ;}
</style>
<title>menu_sd11x5</title>
<g id="图层_2">
	<g id="左側選單">
		<circle class="st0" cx="21.1" cy="21.1" r="21"/>
		<circle class="st1" cx="21.1" cy="21.1" r="19.7"/>
		<path class="st2" d="M33.5,5.8C25.1-1,12.7,0.3,5.8,8.7C1.9,13.6,0.5,20,2,26c1.7,0.3,3.5,0.5,5.2,0.5C19.8,26.5,30.6,18,33.5,5.8
			z"/>
		<path class="st3" d="M20,25.7c-0.2,0.6-0.5,1.2-0.9,1.7h-1c0.3-0.6,0.5-1.2,0.9-1.7H20z"/>
		<path class="st3" d="M16.4,24.1H18l-0.5,3.5c0,0.2,0.1,0.3,0.3,0.3c0,0,3,0,4.4,0c0,0.2,0,0.5,0,0.7h-5.2c-0.3,0-0.6-0.2-0.6-0.5
			l0.4-3.3h-0.5L16.4,24.1L16.4,24.1z"/>
		<path class="st3" d="M20,22.5L19.8,23h0.5v-0.5h1.1V23H23v0.6h-1.8l-0.1,1.1h1.6v0.6h-1.2l-0.1,1.4h0.9v0.7c-0.7,0-1.4,0-1.4,0
			c-0.5,0-0.6-0.3-0.6-0.6l0.1-1.5h-2.3v-0.6h1.8l0.1-1.1h-0.6l-0.2,0.6h-1l0.6-1.7L20,22.5z"/>
		<path class="st3" d="M16.9,22.5h1l0.2,1.4h-1L16.9,22.5z"/>
		<path class="st3" d="M11.7,22.3l-0.9,6.4H9.2v-0.1l0.7-4.4c-0.4,0.1-0.6,0.2-1,0.3v-1.1L11.7,22.3L11.7,22.3z"/>
		<path class="st3" d="M14.6,28.7H13l0.6-4.4l-1,0.2l0.1-1.1l2.7-1.2C15.2,24.3,14.9,26.6,14.6,28.7L14.6,28.7z"/>
		<path class="st3" d="M24.5,20.5h5L29.4,22H26l-0.1,1c5.1,0.6,4,5.6-0.1,5.7h-2.2v-1.3h2.3c2.4-0.3,1.9-2.8-0.6-2.8H24
			C24.2,23.2,24.3,21.8,24.5,20.5L24.5,20.5z"/>
		<path class="st3" d="M12.6,18.9c0.1-0.3,0.9-0.6,1.4,0.1c1.9,1.6,3.3,1.4,5.3,1.4C17.3,21.5,11.5,21.3,12.6,18.9L12.6,18.9z"/>
		<path class="st3" d="M19.7,19.9c-4.2,0.8-9.4-5.7-6.4-6.9c0.6-0.2,1.5-0.2,1.9,1.1C15.6,17.1,17.2,19.3,19.7,19.9z"/>
		<path class="st3" d="M26.3,12.7c5-0.5,9.5,3.2,9.9,8.3c0.1,0.7,0,1.4,0,2c-0.8,6.1-8.5,11.6-15.2,6.1c7.5,3.2,11.9-2.6,11.7-7.1
			c-0.1-3.9-4.9-6.8-9.3-2.7C19,21.8,16.3,13.8,26.3,12.7L26.3,12.7z"/>
		<path class="st3" d="M32.9,8.9c1.4,1.6-0.4,3.1-1.6,3c-0.9,0-6-2-11.5,2.7C22.2,8.4,30.4,6.1,32.9,8.9L32.9,8.9z"/>
		<path class="st3" d="M19.9,7.9c1,0.1,1.7,0.9,1.7,1.9c0,0.3-0.1,0.5-0.2,0.7c-2.5,2.4-4.1,6.4-1.6,9.2
			C14.4,16.5,16.5,7.9,19.9,7.9z"/>
		<path class="st3" d="M23.5,19.3C23,15.4,31.1,14,33.6,19c1.5,2.8-0.1,7.6-3.7,9.4c2.2-1.9,3.3-4.8,2.7-7.7
			C31.9,18.7,28.5,15,23.5,19.3L23.5,19.3z"/>
		<path class="st4" d="M18,8.8c1.2,0.1,2.5,0.4,3.6,1c0-0.1,0-0.2,0-0.3c-0.1-0.9-0.9-1.6-1.8-1.6C19.1,8,18.4,8.3,18,8.8L18,8.8z
			 M22.8,10.6c0.6,0.4,1.2,0.9,1.8,1.4c1.7-0.5,3.5-0.6,5.2-0.3l0.9,0.1c-0.3-1.5-1-2.9-2-4C26.5,8.1,24.4,9.1,22.8,10.6L22.8,10.6z
			 M25.4,12.8c1.2,1.4,2.3,2.9,3.1,4.5c0.9,0.1,1.7,0.4,2.3,1c0.2-1.6,0.2-3.3,0-4.9C29.2,12.7,27.3,12.5,25.4,12.8L25.4,12.8z"/>
		<path class="st3" d="M8.9,30.1h0.7v3.4c0,0.1,0.1,0.2,0.2,0.2c0,0,0,0,0,0h0.8v-4.3h0.7v4.3h0.8c0.1,0,0.2-0.1,0.2-0.2l0,0v-3.4
			H13v3.6c0,0.2-0.1,0.3-0.3,0.3l-3.5,0c-0.2,0-0.3-0.1-0.3-0.3L8.9,30.1z"/>
		<path class="st3" d="M13.5,30h0.9l0.2-0.6h0.8L15.2,30H18v0.3h-3l-0.5,1.1c0,0.1,0,0.1,0,0.2c0,0,0.1,0.1,0.1,0.1h0.7v-0.9h0.7
			v0.9h1.7v0.3h-1.6v1.8c0,0.2-0.1,0.3-0.3,0.3H15v-0.3h0.4c0.1,0,0.2-0.1,0.2-0.2l0,0v-1.7h-1.5c-0.1,0-0.2,0-0.3-0.1
			c0-0.1,0-0.2,0-0.3l0.5-1.2h-0.8L13.5,30z M13.6,34c0.2-0.6,0.4-1.2,0.5-1.8h0.7c-0.1,0.6-0.3,1.2-0.5,1.8H13.6z M17.3,34
			c-0.2-0.6-0.4-1.2-0.5-1.8h0.7c0.1,0.6,0.3,1.2,0.5,1.7L17.3,34z"/>
	</g>
</g>
</svg>
