<?xml version="1.0" encoding="utf-8"?>
<!-- Generator: Adobe Illustrator 21.0.0, SVG Export Plug-In . SVG Version: 6.00 Build 0)  -->
<svg version="1.1" id="图层_1" xmlns="http://www.w3.org/2000/svg" xmlns:xlink="http://www.w3.org/1999/xlink" x="0px" y="0px"
	 width="42.2px" height="42.2px" viewBox="0 0 42.2 42.2" style="enable-background:new 0 0 42.2 42.2;" xml:space="preserve">
<style type="text/css">
	.st0{opacity:0.46;fill:none;stroke:#EFEFEF;stroke-width:0.29;stroke-miterlimit:10;enable-background:new    ;}
	.st1{opacity:0.8;fill:#7775DB;enable-background:new    ;}
	.st2{opacity:0.25;fill:#FFFFFF;enable-background:new    ;}
	.st3{fill:none;}
	.st4{fill:#FFFFFF;}
</style>
<title>menu_xjssc</title>
<g id="图层_2">
	<g id="左側選單">
		<circle class="st0" cx="21.1" cy="21.1" r="21"/>
		<circle class="st1" cx="21.1" cy="21.1" r="19.7"/>
		<path class="st2" d="M33.5,5.8C25.1-1,12.7,0.3,5.8,8.7C1.9,13.6,0.5,20,2,26c1.7,0.3,3.5,0.5,5.2,0.5C19.8,26.5,30.6,18,33.5,5.8
			z"/>
		<polygon class="st3" points="7.3,27 7.9,26.7 8.2,25.8 7.6,26 		"/>
		<path class="st3" d="M15.3,29.9c-0.1,0.1-0.3,0.2-0.3,0.3c-0.1,0.2-0.1,0.4-0.1,0.6c0,0.2,0,0.3,0.1,0.5c0.1,0.1,0.2,0.1,0.3,0
			c0.1-0.1,0.3-0.1,0.3-0.3c0.1-0.2,0.1-0.4,0.1-0.6c0-0.2,0-0.3-0.1-0.5C15.6,29.8,15.4,29.8,15.3,29.9z"/>
		<polygon class="st3" points="16.6,23.9 17,23 16.4,23.3 16,24.2 		"/>
		<polygon class="st3" points="8.3,24.3 8.9,24.1 9.2,23.2 8.6,23.4 		"/>
		<path class="st3" d="M22.7,28.3c0,0,0.1-0.1,0.1-0.1c0,0,0-0.1,0-0.1c0-0.1,0-0.1-0.1-0.1c0,0-0.1,0-0.2,0L22.2,28v0.5l0.3-0.1
			L22.7,28.3z"/>
		<polygon class="st3" points="17.9,20.4 17.3,20.6 17,21.5 17.6,21.3 		"/>
		<path class="st4" d="M9.6,24.1l1-2.8l0.6-0.2l0.3-0.7L8,21.8l-2.9,8l3.5-1.3l1.6-4.5L9.6,24.1z M7.9,26.7L7.3,27l0.3-1l0.6-0.2
			L7.9,26.7z M8.9,24.1l-0.6,0.2l0.3-0.9l0.6-0.2L8.9,24.1z"/>
		<path class="st4" d="M17.3,25.6l1.6-4.5l-0.6,0.2l1-2.8l0.6-0.2l0.3-0.7L16.7,19l-2.9,8L17.3,25.6z M17.3,20.6l0.6-0.2l-0.3,0.9
			L17,21.5L17.3,20.6z M17,23l-0.3,0.9l-0.6,0.2l0.3-0.9L17,23z"/>
		<path class="st4" d="M23.4,19.1l0.9-0.4l0.7-2.1L24.2,17l0.6-1.7L23,16l-0.6,1.7l-2.8,1.1l-0.7,2.1l2.8-1.1l-0.2,0.7
			c0.2,0.3,0.2,0.7,0,1c-0.2,0.5-0.5,0.9-0.9,1.3l-0.2,0.7c0,0.1-0.1,0.2-0.1,0.2c-0.2,0.1-0.4,0.2-0.5,0.2l-0.8,0.3l-0.7,2l2.4-0.9
			c0.2-0.1,0.4-0.2,0.6-0.4c0.1-0.1,0.3-0.3,0.4-0.5c0.2-0.4,0.3-0.7,0.4-1.1L23.4,19.1z"/>
		<path class="st4" d="M12.4,27.7c0.1-0.1,0.2-0.3,0.4-0.5c0.2-0.4,0.3-0.7,0.4-1.1l1.5-4.2l0.9-0.4l0.7-2.1l-0.9,0.4l0.6-1.7
			l-1.8,0.7l-0.6,1.7l-2.8,1.1l-0.7,2.1l2.8-1.1l-0.2,0.7c0.2,0.3,0.2,0.7,0,1c-0.2,0.5-0.5,0.9-0.9,1.3l-0.2,0.7
			c0,0.1-0.1,0.2-0.1,0.2c-0.2,0.1-0.4,0.2-0.6,0.2l-0.8,0.3L9.4,29l2.4-0.9C12,28,12.2,27.9,12.4,27.7z"/>
		<path class="st4" d="M19.7,22.8c0.6-0.1,1-0.6,1.2-1.1c0.2-0.6,0-1-0.5-1c-0.6,0.1-1,0.6-1.2,1.1C19,22.4,19.2,22.8,19.7,22.8z"/>
		<path class="st4" d="M11,25.6c0.6-0.1,1-0.6,1.2-1.1c0.2-0.6,0-1-0.5-1c-0.6,0.1-1,0.6-1.2,1.1C10.4,25.2,10.6,25.6,11,25.6z"/>
		<path class="st4" d="M23.1,27.9L23.1,27.9c0.1,0,0.2,0,0.2,0c0.1,0,0.1,0.1,0.1,0.1l0.4,0.6l0.8-0.3l-0.3-0.6l-0.1-0.1l-0.1-0.1
			c-0.1,0-0.1,0-0.2,0c0.1,0,0.2-0.1,0.2-0.2c0.1-0.1,0.2-0.2,0.2-0.3c0.1-0.1,0.1-0.2,0.1-0.4c0-0.1,0-0.2-0.1-0.4
			c-0.1-0.1-0.2-0.1-0.3-0.1c-0.2,0-0.3,0.1-0.5,0.1l-1.1,0.4v2.4l0.7-0.2L23.1,27.9z M23.1,27l0.3-0.1c0.1,0,0.2-0.1,0.2,0
			c0,0,0.1,0.1,0.1,0.1c0,0,0,0.1,0,0.1c0,0-0.1,0.1-0.1,0.1l-0.2,0.1l-0.3,0.1L23.1,27z"/>
		<polygon class="st4" points="21.1,28.6 22.2,28.2 22.2,27.8 21.1,28.1 21.1,27.8 22.3,27.4 22.3,26.8 20.5,27.5 20.5,29.9 
			22.3,29.2 22.3,28.7 21.1,29.1 		"/>
		<path class="st4" d="M16.2,29.3c-0.3-0.1-0.6-0.1-0.9,0c-0.3,0.1-0.6,0.3-0.8,0.6c-0.2,0.3-0.3,0.6-0.3,1c0,0.2,0,0.4,0.1,0.6
			c0.1,0.1,0.2,0.2,0.4,0.3c0.2,0,0.4,0,0.6-0.1c0.2-0.1,0.4-0.2,0.6-0.4c0.2-0.2,0.3-0.3,0.4-0.5c0.1-0.2,0.1-0.5,0.1-0.7
			C16.5,29.8,16.4,29.5,16.2,29.3z M15.7,30.9c-0.1,0.1-0.2,0.2-0.3,0.3c-0.1,0.1-0.2,0.1-0.3,0c-0.1-0.1-0.1-0.3-0.1-0.5
			c0-0.2,0-0.4,0.1-0.6c0.1-0.1,0.2-0.2,0.3-0.3c0.1-0.1,0.2-0.1,0.3,0c0.1,0.1,0.1,0.3,0.1,0.5C15.8,30.5,15.8,30.8,15.7,30.9z"/>
		<polygon class="st4" points="26,27.9 26,26.9 26.8,25.2 26.1,25.5 25.6,26.4 25.2,25.8 24.4,26 25.3,27.1 25.3,28.1 		"/>
		<polygon class="st4" points="13.1,30.1 12.4,30.4 12.4,32.8 14.1,32.2 14.1,31.6 13.1,32 		"/>
		<polygon class="st4" points="16.4,28.9 16.4,29.5 17.1,29.3 17.1,31.1 17.8,30.8 17.8,29 18.3,28.9 18.5,28.8 19,28.6 19,30.4 
			19.6,30.2 19.6,28.4 20.3,28.1 20.3,27.5 18.3,28.3 		"/>
		<polygon class="st4" points="30.1,16.8 31.9,16 31.9,14.3 30.1,15 		"/>
		<polygon class="st4" points="24.4,24.5 26.5,20.5 25.2,24.3 27.2,23.5 28.4,19.8 28.1,23 30,22.3 30.3,18.4 31.1,18.1 31.5,16.9 
			29,17.9 29.2,17.3 27.2,18.1 27.1,18.6 24.6,19.6 24.2,20.8 25,20.5 22.6,25.2 		"/>
		<polygon class="st4" points="27.6,16.1 27.6,17.7 29.4,17 29.4,15.2 27.7,15.9 28,15.5 30.1,14.7 31.8,14 32.1,13.9 33,12.2 
			31,12.9 30.8,13.4 28.7,14.2 27.2,14.8 26.9,14.9 24.6,18.9 26.4,18.2 		"/>
		<path class="st4" d="M33.8,23.6L33.8,23.6c-1-0.4-2.4-0.8-1.3-2.2l0.4-0.5c0.4-0.5,0.7-1.1,0.7-1.8c0-0.2,0-0.4-0.1-0.5
			c-0.7-3.3,2.3-6.8,3.3-7.9l-2.8,1.1H34c-0.6,0.8-1.1,1.7-1.4,2.8v-0.1c-0.2,0.7-0.3,1.3-0.3,2c-0.1,1.8,0.6,2.4-0.7,4.6l0,0
			c-0.2,0.3-0.4,0.7-0.6,1c-0.4,0.8-0.7,1.7,0,1.9c1.2,0.3,2.5,1.3,0,3.3l0,0c-2.2,2.3-3.9,0.2-7,6.1h3c1.4-4.1,1.9-3.1,4.5-5.4l0,0
			l0.4-0.3c0.7-0.6,1.3-1.1,1.7-1.5c1-1,1.1-1.8,0.7-2.3C34.2,23.7,34,23.6,33.8,23.6z"/>
		<path class="st4" d="M7.7,13.8v-0.4l1.1-0.4v-0.6l1.1-0.4v0.6l1.1-0.4v0.4L7.7,13.8z M8.8,18.4L8.8,18.4c0.1,0,0.2-0.2,0.2-0.3
			l-0.1-1.9l-1.1,0.4v-0.4l1.1-0.4v-0.7l-1.1,0.4v-0.4L8.1,15l-0.2-1l1-0.3l0.2,1l0.5-0.2l0.1-1.1l1-0.3l-0.1,1.1L11,14v0.4
			l-1.1,0.4v0.7l1.1-0.4v0.4l-1,0.4l0.1,2.1c0,0.3-0.2,0.5-0.4,0.6l-0.9,0.3L8.8,18.4z M7.9,18.9C8,18.2,8,17.5,8,16.9l0.8-0.2
			c0,0.7,0,1.4,0,2.1L7.9,18.9z M10.4,18.1c-0.1-0.7-0.2-1.3-0.3-2l0.8-0.2c0.1,0.7,0.2,1.3,0.3,2L10.4,18.1z M13.2,17.4l-0.2-4
			l-0.6,0.2l0.1,2.3c0.1,0.6,0,1.2-0.1,1.8l-1,0.3c0.1-0.6,0.2-1.2,0.1-1.8l-0.2-3.9c0-0.3,0.2-0.5,0.4-0.6l1-0.3
			c0.4-0.1,0.6-0.2,0.7-0.5l1-0.3c-0.1,0.5-0.4,0.9-0.9,0.9l-0.9,0.3c-0.1,0.1-0.2,0.2-0.2,0.3l0.1,1l2.2-0.7v0.4L13.9,13l0.2,4
			L13.2,17.4z"/>
		<path class="st4" d="M16.2,10.6c0-0.1-0.1-0.1-0.1-0.1c0,0,0,0,0,0l-1.3,0.4v-0.4l2-0.7c0.2-0.1,0.4,0,0.4,0.2c0,0,0,0.1,0,0.1
			l0.1,1.1c0,0.2-0.2,0.5-0.4,0.6L16.1,12c-0.1,0.1-0.2,0.2-0.2,0.3v0.7c0,0.1,0.1,0.2,0.2,0.2c0,0,0.1,0,0.1,0l0.8-0.2
			c0.2-0.1,0.4,0,0.4,0.2c0,0,0,0.1,0,0.1l0.1,2.2c0,0.2-0.2,0.5-0.4,0.6l-1.4,0.5v-0.4l0.6-0.2c0.1,0,0.2-0.1,0.1-0.2l-0.1-2
			c0-0.1-0.1-0.1-0.1-0.1c0,0,0,0-0.1,0l-0.8,0.3c-0.2,0.1-0.4,0-0.4-0.2c0,0,0-0.1,0-0.1l-0.1-1.1c0-0.2,0.2-0.5,0.4-0.6l0.9-0.3
			c0.1,0,0.2-0.1,0.2-0.2L16.2,10.6z M15.1,16.1v-0.4l0.2-0.1v-0.7L15,15v-0.4l0.2-0.1v-0.4l0.9-0.3v0.4l0.2-0.1v0.4l-0.2,0.1v0.7
			l0.2-0.1v0.4L15.1,16.1z M17.4,9.7l4.1-1.4v0.4L17.4,10L17.4,9.7z M17.5,10.7c0-0.3,0.2-0.5,0.4-0.6l3.1-1c0.2-0.1,0.4,0,0.4,0.1
			c0,0,0,0.1,0,0.1l0.1,1.2c0,0.3-0.2,0.5-0.4,0.6l-3.1,1c-0.2,0.1-0.4,0-0.4-0.1c0,0,0-0.1,0-0.1L17.5,10.7z M17.5,12.5l4.1-1.4
			v0.4l-4.1,1.4V12.5z M17.7,13.5c0-0.3,0.2-0.5,0.4-0.6l3.1-1c0.2-0.1,0.4,0,0.4,0.1c0,0,0,0.1,0,0.1l0.1,1.2
			c0,0.3-0.2,0.5-0.4,0.6l-3.1,1c-0.2,0.1-0.4,0-0.4-0.1c0,0,0-0.1,0-0.1L17.7,13.5z M17.7,15.4l4.2-1.4v0.4l-4.1,1.4L17.7,15.4z
			 M18.4,10.8l0.5-0.2v-0.5l-0.4,0.1c-0.1,0-0.2,0.1-0.2,0.2L18.4,10.8z M19,11.4l0-0.4l-0.5,0.2v0.3c0,0.1,0.1,0.2,0.2,0.1L19,11.4
			z M18.6,13.6l0.5-0.2V13l-0.4,0.1c-0.1,0-0.2,0.1-0.2,0.2L18.6,13.6z M19.2,14.3v-0.5L18.6,14v0.3c0,0.1,0.1,0.2,0.2,0.1
			L19.2,14.3z M20.5,9.8c0-0.1-0.1-0.1-0.1-0.1c0,0,0,0-0.1,0L20,9.8v0.5l0.5-0.2L20.5,9.8z M20.5,11c0.1,0,0.2-0.1,0.2-0.2v-0.3
			l-0.5,0.2v0.5L20.5,11z M20.7,12.7c0-0.1-0.1-0.1-0.1-0.1c0,0,0,0-0.1,0l-0.4,0.1v0.5l0.5-0.2L20.7,12.7z M20.6,13.9
			c0.1,0,0.2-0.1,0.2-0.2v-0.3l-0.5,0.2V14L20.6,13.9z"/>
	</g>
</g>
</svg>
