<?xml version="1.0" encoding="utf-8"?>
<!-- Generator: Adobe Illustrator 21.0.0, SVG Export Plug-In . SVG Version: 6.00 Build 0)  -->
<svg version="1.1" id="图层_1" xmlns="http://www.w3.org/2000/svg" xmlns:xlink="http://www.w3.org/1999/xlink" x="0px" y="0px"
	 width="42.2px" height="42.2px" viewBox="0 0 42.2 42.2" style="enable-background:new 0 0 42.2 42.2;" xml:space="preserve">
<style type="text/css">
	.st0{opacity:0.46;fill:none;stroke:#EFEFEF;stroke-width:0.29;stroke-miterlimit:10;enable-background:new    ;}
	.st1{opacity:0.8;fill:#F28930;enable-background:new    ;}
	.st2{opacity:0.25;fill:#FFFFFF;enable-background:new    ;}
	.st3{fill:none;}
	.st4{fill:#FFFFFF;}
</style>
<title>menu_tjssc</title>
<g id="图层_2">
	<g id="左側選單">
		<circle class="st0" cx="21.1" cy="21.1" r="21"/>
		<circle class="st1" cx="21.1" cy="21.1" r="19.7"/>
		<path class="st2" d="M33.5,5.8C25.1-1,12.7,0.3,5.8,8.7C1.9,13.6,0.5,20,2,26c1.7,0.3,3.5,0.5,5.2,0.5C19.8,26.5,30.6,18,33.5,5.8
			z"/>
		<polygon class="st3" points="7.6,27 8.2,26.7 8.5,25.8 7.9,26 		"/>
		<path class="st3" d="M15.6,29.9c-0.1,0.1-0.3,0.2-0.3,0.3c-0.1,0.2-0.1,0.4-0.1,0.6c0,0.2,0,0.3,0.1,0.5c0.1,0.1,0.2,0.1,0.3,0
			c0.1-0.1,0.3-0.1,0.3-0.3c0.1-0.2,0.1-0.4,0.1-0.6c0-0.2,0-0.3-0.1-0.5C15.8,29.8,15.7,29.8,15.6,29.9z"/>
		<polygon class="st3" points="16.9,23.9 17.3,23 16.7,23.3 16.3,24.2 		"/>
		<polygon class="st3" points="8.6,24.3 9.1,24.1 9.5,23.2 8.9,23.4 		"/>
		<path class="st3" d="M23,28.3c0,0,0.1-0.1,0.1-0.1c0,0,0-0.1,0-0.1c0-0.1,0-0.1-0.1-0.1c0,0-0.1,0-0.2,0L22.5,28v0.5l0.3-0.1
			L23,28.3z"/>
		<polygon class="st3" points="18.2,20.4 17.6,20.6 17.3,21.5 17.9,21.3 		"/>
		<path class="st4" d="M9.9,24.1l1-2.8l0.6-0.2l0.3-0.7l-3.5,1.3l-2.9,8l3.5-1.3l1.6-4.5L9.9,24.1z M8.2,26.7L7.6,27l0.3-1l0.6-0.2
			L8.2,26.7z M9.1,24.1l-0.6,0.2l0.3-0.9l0.6-0.2L9.1,24.1z"/>
		<path class="st4" d="M17.6,25.6l1.6-4.5l-0.6,0.2l1-2.8l0.6-0.2l0.3-0.7L17,19l-2.9,8L17.6,25.6z M17.6,20.6l0.6-0.2l-0.3,0.9
			l-0.6,0.2L17.6,20.6z M17.3,23l-0.3,0.9l-0.6,0.2l0.3-0.9L17.3,23z"/>
		<path class="st4" d="M23.7,19.1l0.9-0.4l0.7-2.1L24.5,17l0.6-1.7L23.2,16l-0.6,1.7l-2.8,1.1l-0.7,2.1l2.8-1.1l-0.2,0.7
			c0.2,0.3,0.2,0.7,0,1c-0.2,0.5-0.5,0.9-0.9,1.3l-0.2,0.7c0,0.1-0.1,0.2-0.1,0.2c-0.2,0.1-0.4,0.2-0.5,0.2l-0.8,0.3l-0.7,2l2.4-0.9
			c0.2-0.1,0.4-0.2,0.6-0.4c0.1-0.1,0.3-0.3,0.4-0.5c0.2-0.4,0.3-0.7,0.4-1.1L23.7,19.1z"/>
		<path class="st4" d="M12.7,27.7c0.1-0.1,0.2-0.3,0.4-0.5c0.2-0.4,0.3-0.7,0.4-1.1l1.5-4.2l0.9-0.4l0.7-2.1l-0.9,0.4l0.6-1.7
			l-1.8,0.7l-0.6,1.7l-2.8,1.1l-0.7,2.1l2.8-1.1l-0.2,0.7c0.2,0.3,0.2,0.7,0,1c-0.2,0.5-0.5,0.9-0.9,1.3l-0.2,0.7
			c0,0.1-0.1,0.2-0.1,0.2c-0.2,0.1-0.4,0.2-0.6,0.2L10.4,27l-0.7,2l2.4-0.9C12.3,28,12.5,27.9,12.7,27.7z"/>
		<path class="st4" d="M20,22.8c0.6-0.1,1-0.6,1.2-1.1c0.2-0.6,0-1-0.5-1c-0.6,0.1-1,0.6-1.2,1.1C19.3,22.4,19.5,22.8,20,22.8z"/>
		<path class="st4" d="M11.3,25.6c0.6-0.1,1-0.6,1.2-1.1c0.2-0.6,0-1-0.5-1c-0.6,0.1-1,0.6-1.2,1.1C10.6,25.2,10.9,25.6,11.3,25.6z"
			/>
		<path class="st4" d="M23.4,27.9L23.4,27.9c0.1,0,0.2,0,0.2,0c0.1,0,0.1,0.1,0.1,0.1l0.4,0.6l0.8-0.3l-0.3-0.6l-0.1-0.1l-0.1-0.1
			c-0.1,0-0.1,0-0.2,0c0.1,0,0.2-0.1,0.2-0.2c0.1-0.1,0.2-0.2,0.2-0.3c0.1-0.1,0.1-0.2,0.1-0.4c0-0.1,0-0.2-0.1-0.4
			c-0.1-0.1-0.2-0.1-0.3-0.1c-0.2,0-0.3,0.1-0.5,0.1l-1.1,0.4v2.4l0.7-0.2L23.4,27.9z M23.4,27l0.3-0.1c0.1,0,0.2-0.1,0.2,0
			c0,0,0,0.1,0,0.1c0,0,0,0.1,0,0.1c0,0-0.1,0.1-0.1,0.1l-0.2,0.1l-0.3,0.1L23.4,27z"/>
		<polygon class="st4" points="21.4,28.6 22.5,28.2 22.5,27.8 21.4,28.1 21.4,27.8 22.6,27.4 22.6,26.8 20.8,27.5 20.8,29.9 
			22.6,29.2 22.6,28.7 21.4,29.1 		"/>
		<path class="st4" d="M16.5,29.3c-0.3-0.1-0.6-0.1-0.9,0c-0.3,0.1-0.6,0.3-0.8,0.6c-0.2,0.3-0.3,0.6-0.3,1c0,0.2,0,0.4,0.1,0.6
			c0.1,0.1,0.2,0.2,0.4,0.3c0.2,0,0.4,0,0.6-0.1c0.2-0.1,0.4-0.2,0.6-0.4c0.2-0.2,0.3-0.3,0.4-0.5c0.1-0.2,0.1-0.5,0.1-0.7
			C16.8,29.8,16.7,29.5,16.5,29.3z M16,30.9c-0.1,0.1-0.2,0.2-0.3,0.3c-0.1,0.1-0.2,0.1-0.3,0c-0.1-0.1-0.1-0.3-0.1-0.5
			c0-0.2,0-0.4,0.1-0.6c0.1-0.1,0.2-0.2,0.3-0.3c0.1-0.1,0.2-0.1,0.3,0c0.1,0.1,0.1,0.3,0.1,0.5C16.1,30.5,16.1,30.8,16,30.9z"/>
		<polygon class="st4" points="26.2,27.9 26.2,26.9 27.1,25.2 26.4,25.5 25.9,26.4 25.5,25.8 24.7,26 25.6,27.1 25.6,28.1 		"/>
		<polygon class="st4" points="13.4,30.1 12.7,30.4 12.7,32.8 14.4,32.2 14.4,31.6 13.4,32 		"/>
		<polygon class="st4" points="16.7,28.9 16.7,29.5 17.4,29.3 17.4,31.1 18.1,30.8 18.1,29 18.6,28.9 18.8,28.8 19.2,28.6 
			19.2,30.4 19.9,30.2 19.9,28.4 20.6,28.1 20.6,27.5 18.6,28.3 		"/>
		<polygon class="st4" points="30.4,16.8 32.2,16 32.2,14.3 30.4,15 		"/>
		<polygon class="st4" points="24.7,24.5 26.8,20.5 25.5,24.3 27.5,23.5 28.7,19.8 28.4,23 30.2,22.3 30.6,18.4 31.4,18.1 
			31.8,16.9 29.3,17.9 29.5,17.3 27.5,18.1 27.4,18.6 24.9,19.6 24.5,20.8 25.3,20.5 22.9,25.2 		"/>
		<polygon class="st4" points="27.9,16.1 27.9,17.7 29.7,17 29.7,15.2 28,15.9 28.2,15.5 30.4,14.7 32.1,14 32.4,13.9 33.3,12.2 
			31.3,12.9 31.1,13.4 29,14.2 27.5,14.8 27.2,14.9 24.9,18.9 26.7,18.2 		"/>
		<path class="st4" d="M34.1,23.6L34.1,23.6c-1-0.4-2.4-0.8-1.3-2.2l0.4-0.5c0.4-0.5,0.7-1.1,0.7-1.8c0-0.2,0-0.4-0.1-0.5
			c-0.7-3.3,2.3-6.8,3.3-7.9l-2.7,1.2h-0.1c-0.6,0.8-1.1,1.8-1.3,2.8v-0.1c-0.2,0.7-0.3,1.3-0.3,2c-0.1,1.8,0.6,2.4-0.7,4.6l0,0
			c-0.2,0.3-0.4,0.7-0.6,1c-0.4,0.8-0.7,1.7,0,1.9c1.2,0.3,2.5,1.3,0,3.3l0,0c-2.2,2.3-3.9,0.2-7,6.1h3c1.4-4.1,1.9-3.1,4.5-5.4l0,0
			l0.4-0.3c0.7-0.6,1.3-1.1,1.7-1.5c1-1,1.1-1.8,0.7-2.3C34.5,23.7,34.3,23.6,34.1,23.6z"/>
		<path class="st4" d="M8.8,13.3l6.1-2v0.4l-2.4,0.8l0.1,1.7c0,0.1,0,0.1,0,0.2l2.8-0.9v0.4l-2.8,0.9c0.4,1,1.5,1.8,3,2.4l-1.4,0.5
			c-0.8-0.3-1.5-0.8-2.1-1.5c-0.5,1-1.1,2-1.8,2.8l-1.4,0.5c1.2-1.2,2.1-2.6,2.6-4.2l-2.8,0.9v-0.4l2.9-1c0-0.1,0-0.1,0-0.2
			l-0.1-1.7l-2.5,0.9L8.8,13.3z"/>
		<path class="st4" d="M16.3,11.9l-0.6-1.2l1.1-0.4l0.5,1.2L16.3,11.9z M16.5,13.8l-0.6-1.3l1.1-0.4l0.6,1.3L16.5,13.8z M16,17
			c0.3-0.9,0.5-1.8,0.6-2.8l1.1-0.4c-0.1,0.9-0.2,1.9-0.6,2.8L16,17z M19.5,15.8L19.5,15L18,15.5v-0.4l1.5-0.5v-0.8L18,14.3v-0.4
			l1.4-0.5v-0.7l-1.4,0.5v-0.4l1.4-0.5v-0.7l-1.5,0.5v-0.4l1.5-0.5l-0.1-0.9L18,10.9v-0.4l1.2-0.5V9.5l1.1-0.4v0.5l1.4-0.5
			c0.3-0.1,0.5,0,0.5,0.3l0,0.9l0.2-0.1v0.4l-0.2,0.1v0.6c0,0.3-0.2,0.5-0.5,0.6l-1.4,0.5V13l1.8-0.6v0.4l-1.8,0.6v0.8l1.9-0.6v0.4
			l-1.9,0.6l0,0.9L19.5,15.8z M21.1,10c0-0.1-0.1-0.2-0.3-0.1L20.3,10l0.1,0.9l0.8-0.3L21.1,10z M20.9,11.8c0.2,0,0.3-0.2,0.3-0.4
			v-0.4l-0.8,0.3V12L20.9,11.8z"/>
	</g>
</g>
</svg>
