<?xml version="1.0" encoding="utf-8"?>
<!-- Generator: Adobe Illustrator 21.0.0, SVG Export Plug-In . SVG Version: 6.00 Build 0)  -->
<svg version="1.1" id="图层_1" xmlns="http://www.w3.org/2000/svg" xmlns:xlink="http://www.w3.org/1999/xlink" x="0px" y="0px"
	 width="42.2px" height="42.2px" viewBox="0 0 42.2 42.2" style="enable-background:new 0 0 42.2 42.2;" xml:space="preserve">
<style type="text/css">
	.st0{opacity:0.46;fill:none;stroke:#EFEFEF;stroke-width:0.29;stroke-miterlimit:10;enable-background:new    ;}
	.st1{opacity:0.8;fill:#73C05B;enable-background:new    ;}
	.st2{opacity:0.25;fill:#FFFFFF;enable-background:new    ;}
	.st3{fill:none;}
	.st4{fill:#FFFFFF;}
</style>
<title>menu_hljssc</title>
<g id="图层_2">
	<g id="左側選單">
		<circle class="st0" cx="21.1" cy="21.1" r="21"/>
		<circle class="st1" cx="21.1" cy="21.1" r="19.7"/>
		<path class="st2" d="M33.5,5.8C25.1-1,12.7,0.3,5.8,8.7C1.9,13.6,0.5,20,2,26c1.7,0.3,3.5,0.5,5.2,0.5C19.8,26.5,30.6,18,33.5,5.8
			z"/>
		<polygon class="st3" points="7.6,27.2 8.2,27 8.5,26.1 7.9,26.3 		"/>
		<path class="st3" d="M15.6,30.1c-0.1,0.1-0.3,0.2-0.3,0.3c-0.1,0.2-0.1,0.4-0.1,0.6c0,0.2,0,0.3,0.1,0.5c0.1,0.1,0.2,0.1,0.3,0
			c0.1-0.1,0.3-0.1,0.3-0.3c0.1-0.2,0.1-0.4,0.1-0.6c0-0.2,0-0.3-0.1-0.5C15.8,30.1,15.7,30.1,15.6,30.1z"/>
		<polygon class="st3" points="16.9,24.2 17.3,23.3 16.7,23.5 16.3,24.5 		"/>
		<polygon class="st3" points="8.6,24.6 9.1,24.4 9.5,23.5 8.9,23.7 		"/>
		<path class="st3" d="M23,28.6c0,0,0.1-0.1,0.1-0.1c0,0,0-0.1,0-0.1c0-0.1,0-0.1-0.1-0.1c0,0-0.1,0-0.2,0l-0.3,0.1v0.5l0.3-0.1
			L23,28.6z"/>
		<polygon class="st3" points="18.2,20.7 17.6,20.9 17.3,21.8 17.9,21.6 		"/>
		<path class="st4" d="M9.9,24.4l1-2.8l0.6-0.2l0.3-0.7L8.2,22l-2.9,8l3.5-1.3l1.6-4.5L9.9,24.4z M8.2,27l-0.6,0.2l0.3-0.9l0.6-0.2
			L8.2,27z M9.1,24.4l-0.6,0.2l0.3-0.9l0.6-0.2L9.1,24.4z"/>
		<path class="st4" d="M17.6,25.9l1.6-4.5l-0.6,0.2l1-2.8l0.6-0.2l0.3-0.7L17,19.2l-2.9,8L17.6,25.9z M17.6,20.9l0.6-0.2l-0.3,0.9
			l-0.6,0.2L17.6,20.9z M17.2,23.3l-0.3,0.9l-0.6,0.2l0.3-0.9L17.2,23.3z"/>
		<path class="st4" d="M23.7,19.4l0.9-0.4l0.7-2l-0.9,0.4l0.6-1.7l-1.8,0.7L22.6,18l-2.8,1.1l-0.7,2.1l2.8-1.1l-0.2,0.7
			c0.2,0.3,0.2,0.7,0,1c-0.2,0.5-0.5,0.9-0.9,1.3l-0.2,0.7c0,0.1-0.1,0.2-0.1,0.2c-0.2,0.1-0.4,0.2-0.5,0.2l-0.8,0.3l-0.7,2l2.4-0.9
			c0.2-0.1,0.4-0.2,0.6-0.4c0.1-0.1,0.3-0.3,0.4-0.5c0.2-0.4,0.3-0.7,0.4-1.1L23.7,19.4z"/>
		<path class="st4" d="M12.7,28c0.1-0.1,0.2-0.3,0.4-0.5c0.2-0.4,0.3-0.7,0.4-1.1l1.5-4.2l0.9-0.4l0.7-2.1l-0.9,0.4l0.6-1.7
			l-1.8,0.7l-0.6,1.7l-2.8,1.1L10.4,24l2.8-1.1l-0.2,0.7c0.2,0.3,0.2,0.7,0,1c-0.2,0.5-0.5,0.9-0.9,1.3l-0.2,0.7
			c0,0.1-0.1,0.2-0.1,0.2c-0.2,0.1-0.4,0.2-0.6,0.2l-0.8,0.3l-0.7,2l2.4-0.9C12.3,28.4,12.5,28.2,12.7,28z"/>
		<path class="st4" d="M20,23.1c0.5-0.1,1-0.6,1.1-1.1c0.2-0.6,0-1-0.5-1c-0.6,0.1-1,0.6-1.2,1.1C19.3,22.7,19.5,23.1,20,23.1z"/>
		<path class="st4" d="M11.3,25.9c0.6-0.1,1-0.6,1.2-1.1c0.2-0.6,0-1-0.5-1c-0.6,0.1-1,0.6-1.2,1.1C10.6,25.5,10.9,25.9,11.3,25.9z"
			/>
		<path class="st4" d="M23.4,28.2L23.4,28.2c0.1,0,0.2,0,0.2,0c0.1,0,0.1,0.1,0.1,0.1l0.4,0.6l0.8-0.3l-0.3-0.6L24.5,28l-0.1-0.1
			c-0.1,0-0.1,0-0.2,0c0.1,0,0.2-0.1,0.2-0.2c0.1-0.1,0.2-0.2,0.2-0.3c0.1-0.1,0.1-0.2,0.1-0.4c0-0.1,0-0.2-0.1-0.4
			c-0.1-0.1-0.2-0.1-0.3-0.1c-0.2,0-0.3,0.1-0.5,0.1L22.7,27v2.4l0.7-0.2V28.2z M23.4,27.3l0.3-0.1c0.1,0,0.2-0.1,0.2,0
			c0,0,0.1,0.1,0.1,0.1c0,0,0,0.1,0,0.1c0,0-0.1,0.1-0.1,0.1l-0.2,0.1l-0.3,0.1L23.4,27.3z"/>
		<polygon class="st4" points="21.4,28.9 22.5,28.5 22.5,28.1 21.4,28.4 21.4,28.1 22.6,27.6 22.6,27.1 20.8,27.8 20.8,30.2 
			22.6,29.5 22.6,29 21.4,29.4 		"/>
		<path class="st4" d="M16.5,29.6c-0.3-0.1-0.6-0.1-0.9,0c-0.3,0.1-0.6,0.3-0.8,0.6c-0.2,0.3-0.3,0.6-0.3,1c0,0.2,0,0.4,0.1,0.6
			c0.1,0.1,0.2,0.2,0.4,0.3c0.2,0,0.4,0,0.6-0.1c0.2-0.1,0.4-0.2,0.6-0.4c0.2-0.2,0.3-0.3,0.4-0.5c0.1-0.2,0.1-0.5,0.1-0.7
			C16.8,30.1,16.7,29.8,16.5,29.6z M16,31.2c-0.1,0.1-0.2,0.2-0.3,0.3c-0.1,0.1-0.2,0.1-0.3,0c-0.1-0.1-0.1-0.3-0.1-0.5
			c0-0.2,0-0.4,0.1-0.6c0.1-0.1,0.2-0.2,0.3-0.3c0.1-0.1,0.2-0.1,0.3,0c0.1,0.1,0.1,0.3,0.1,0.5C16.1,30.8,16.1,31,16,31.2z"/>
		<polygon class="st4" points="26.2,28.2 26.2,27.2 27.1,25.5 26.4,25.7 25.9,26.7 25.5,26.1 24.7,26.3 25.6,27.4 25.6,28.4 		"/>
		<polygon class="st4" points="13.4,30.4 12.7,30.7 12.7,33.1 14.4,32.5 14.4,31.9 13.4,32.2 		"/>
		<polygon class="st4" points="16.7,29.2 16.7,29.8 17.4,29.6 17.4,31.4 18.1,31.1 18.1,29.3 18.6,29.1 18.8,29.1 19.2,28.9 
			19.2,30.7 19.9,30.5 19.9,28.6 20.6,28.4 20.6,27.8 18.6,28.6 		"/>
		<polygon class="st4" points="30.4,17 32.2,16.3 32.2,14.6 30.4,15.3 		"/>
		<polygon class="st4" points="24.7,24.8 26.8,20.8 25.5,24.6 27.5,23.8 28.7,20.1 28.4,23.3 30.2,22.6 30.6,18.7 31.4,18.4 
			31.8,17.2 29.3,18.1 29.5,17.6 27.5,18.4 27.4,18.9 24.9,19.9 24.5,21.1 25.3,20.8 22.9,25.5 		"/>
		<polygon class="st4" points="27.9,16.4 27.9,18 29.7,17.3 29.7,15.5 28,16.2 28.2,15.8 30.4,14.9 32.1,14.3 32.4,14.2 33.3,12.4 
			31.3,13.2 31.1,13.7 29,14.5 27.5,15.1 27.2,15.2 24.9,19.2 26.7,18.5 		"/>
		<path class="st4" d="M34.1,23.9L34.1,23.9c-1-0.4-2.4-0.8-1.3-2.2l0.4-0.5c0.4-0.5,0.7-1.1,0.7-1.8c0-0.2,0-0.4-0.1-0.5
			c-0.7-3.3,2.3-6.8,3.3-7.9L34.4,12h-0.1c-0.6,0.8-1.1,1.8-1.3,2.8v-0.1c-0.2,0.7-0.3,1.3-0.3,2c-0.1,1.8,0.6,2.4-0.7,4.6l0,0
			c-0.2,0.3-0.4,0.7-0.6,1c-0.4,0.8-0.7,1.7,0,1.9c1.2,0.3,2.5,1.3,0,3.3l0,0c-2.2,2.3-3.9,0.2-7,6.1h3c1.4-4.1,1.9-3.1,4.5-5.4l0,0
			l0.4-0.3c0.7-0.6,1.3-1.1,1.7-1.5c1-1,1.1-1.8,0.7-2.3C34.5,24,34.3,23.9,34.1,23.9z"/>
		<path class="st4" d="M8.3,17.1l2.6-0.9v-0.4l-2.1,0.7c-0.2,0.1-0.4,0-0.5-0.2c0,0,0-0.1,0-0.1l-0.1-2.1c0-0.3,0.2-0.5,0.4-0.6
			l5.2-1.7c0.3-0.1,0.5,0,0.5,0.3l0.1,2.1c0,0.3-0.2,0.5-0.4,0.6L12,15.4v0.4l2.6-0.9v0.4L12,16.2v0.5l2.8-1v0.4l-6.7,2.3v-0.4
			l2.8-1v-0.5l-2.6,0.9L8.3,17.1z M8.3,20l0.4-1.4l1.1-0.4l-0.4,1.4L8.3,20z M9.7,15.8l1.2-0.4l-0.1-2.2l-1.2,0.4
			c-0.2,0-0.3,0.2-0.3,0.3l0.1,1.8C9.4,15.8,9.5,15.9,9.7,15.8L9.7,15.8z M9.7,15.3l-0.2-1.2l0.9-0.3l0.2,1.2L9.7,15.3z M10.5,19.2
			L10,18.1l1.1-0.4l0.5,1.1L10.5,19.2z M12.2,18.7l-0.5-1.1l1.1-0.4l0.5,1.1L12.2,18.7z M13.2,12.6c0-0.1-0.1-0.2-0.3-0.2l-1.2,0.4
			l0.1,2.2l1.2-0.4c0.2,0,0.3-0.2,0.3-0.3L13.2,12.6z M12,14.5l0.1-1.3l0.9-0.3l0,1.3L12,14.5z M13.8,18.1L13.3,17l1.1-0.4l0.6,1.1
			L13.8,18.1z"/>
		<path class="st4" d="M18.4,10.2c0,0.5-0.1,0.9-0.2,1.4l3.7-1.2v0.4l-2,0.7l0.1,1.8c0.5-0.6,1-1.2,1.5-1.9v0.8
			c-0.5,0.6-1,1.2-1.5,1.8l0.1,1.4c0,0.1,0.1,0.2,0.3,0.2l1.7-0.6v0.4l-2.6,0.9c-0.3,0.1-0.5,0-0.5-0.3V15c-0.5,0.5-1.1,1-1.7,1.6
			V16c0.6-0.5,1.1-1.1,1.7-1.6l-0.2-2.6L18.1,12c-0.3,1.8-0.8,3.5-1.5,5.2l-1.2,0.4c0.7-1.7,1.2-3.4,1.6-5.2L15.1,13v-0.4l2-0.7
			c0.1-0.5,0.2-0.9,0.2-1.4L18.4,10.2z M20,10.8L19.5,10l1.1-0.4l0.5,0.8L20,10.8z"/>
		<path class="st4" d="M22.9,10.1l-0.6-1.2l1.1-0.4L24,9.7L22.9,10.1z M23.1,11.9l-0.6-1.3l1.1-0.4l0.6,1.3L23.1,11.9z M22.6,15.2
			c0.3-0.9,0.5-1.8,0.6-2.8l1.1-0.4c-0.1,0.9-0.3,1.9-0.6,2.8L22.6,15.2z M24.5,14.5v-0.4l1.8-0.6L26,8.4l-1.6,0.5V8.5L28.8,7v0.4
			L27.1,8l0.3,5.1l1.9-0.6v0.4L24.5,14.5z"/>
	</g>
</g>
</svg>
